<?xml version="1.0" encoding="UTF-8" standalone="no"?><svg xmlns="http://www.w3.org/2000/svg" xmlns:xlink="http://www.w3.org/1999/xlink" clip-rule="evenodd" stroke-miterlimit="10" viewBox="0 0 1920 1080"><desc>SVG generated by Keynote</desc><defs></defs><g transform="matrix(1.00, 0.00, -0.00, -1.00, 0.0, 1080.0)"><g><clipPath id="clip0x6000010b2f00"><path d="M 0.0 1080.0 L 1920.0 1080.0 L 1920.0 0.0 L 0.0 0.0 Z M 0.0 1080.0 "></path></clipPath><g clip-path="url(#clip0x6000010b2f00)"><image xlink:href="../../670AF0A5-B06C-45B2-A649-BC83FE98871A/assets/400D38DE9BD779267D8D9BA1A44336F3.jpeg" width="3840.00" height="2160.00" transform="matrix(1.75, 0.00, -0.00, -1.75, -2406.0, 2433.0)"></image></g></g><text xml:space="preserve" font-family="GillSans-SemiBold,Gill Sans" font-weight="bold" font-size="71.0" fill="#525252" transform="matrix(1.00, 0.00, -0.00, -1.00, 636.2, 515.2)">S</text><text xml:space="preserve" font-family="GillSans-SemiBold,Gill Sans" font-weight="bold" font-size="71.0" fill="#525252" transform="matrix(1.00, 0.00, -0.00, -1.00, 674.1, 515.2)">h</text><text xml:space="preserve" font-family="GillSans-SemiBold,Gill Sans" font-weight="bold" font-size="71.0" fill="#525252" transform="matrix(1.00, 0.00, -0.00, -1.00, 712.6, 515.2)">o</text><text xml:space="preserve" font-family="GillSans-SemiBold,Gill Sans" font-weight="bold" font-size="71.0" fill="#525252" transform="matrix(1.00, 0.00, -0.00, -1.00, 753.3, 515.2)">w</text><text xml:space="preserve" font-family="GillSans-SemiBold,Gill Sans" font-weight="bold" font-size="71.0" fill="#525252" transform="matrix(1.00, 0.00, -0.00, -1.00, 806.9, 515.2)"> </text><text xml:space="preserve" font-family="GillSans-SemiBold,Gill Sans" font-weight="bold" font-size="71.0" fill="#525252" transform="matrix(1.00, 0.00, -0.00, -1.00, 826.6, 515.2)">m</text><text xml:space="preserve" font-family="GillSans-SemiBold,Gill Sans" font-weight="bold" font-size="71.0" fill="#525252" transform="matrix(1.00, 0.00, -0.00, -1.00, 886.7, 515.2)">e</text><text xml:space="preserve" font-family="GillSans-SemiBold,Gill Sans" font-weight="bold" font-size="71.0" fill="#525252" transform="matrix(1.00, 0.00, -0.00, -1.00, 923.3, 515.2)"> </text><text xml:space="preserve" font-family="GillSans-SemiBold,Gill Sans" font-weight="bold" font-size="71.0" fill="#525252" transform="matrix(1.00, 0.00, -0.00, -1.00, 943.0, 515.2)">s</text><text xml:space="preserve" font-family="GillSans-SemiBold,Gill Sans" font-weight="bold" font-size="71.0" fill="#525252" transform="matrix(1.00, 0.00, -0.00, -1.00, 971.7, 515.2)">o</text><text xml:space="preserve" font-family="GillSans-SemiBold,Gill Sans" font-weight="bold" font-size="71.0" fill="#525252" transform="matrix(1.00, 0.00, -0.00, -1.00, 1012.4, 515.2)">m</text><text xml:space="preserve" font-family="GillSans-SemiBold,Gill Sans" font-weight="bold" font-size="71.0" fill="#525252" transform="matrix(1.00, 0.00, -0.00, -1.00, 1072.5, 515.2)">e</text><text xml:space="preserve" font-family="GillSans-SemiBold,Gill Sans" font-weight="bold" font-size="71.0" fill="#525252" transform="matrix(1.00, 0.00, -0.00, -1.00, 1109.1, 515.2)">t</text><text xml:space="preserve" font-family="GillSans-SemiBold,Gill Sans" font-weight="bold" font-size="71.0" fill="#525252" transform="matrix(1.00, 0.00, -0.00, -1.00, 1135.4, 515.2)">h</text><text xml:space="preserve" font-family="GillSans-SemiBold,Gill Sans" font-weight="bold" font-size="71.0" fill="#525252" transform="matrix(1.00, 0.00, -0.00, -1.00, 1173.8, 515.2)">i</text><text xml:space="preserve" font-family="GillSans-SemiBold,Gill Sans" font-weight="bold" font-size="71.0" fill="#525252" transform="matrix(1.00, 0.00, -0.00, -1.00, 1191.4, 515.2)">n</text><text xml:space="preserve" font-family="GillSans-SemiBold,Gill Sans" font-weight="bold" font-size="71.0" fill="#525252" transform="matrix(1.00, 0.00, -0.00, -1.00, 1229.8, 515.2)">g</text><text xml:space="preserve" font-family="GillSans-SemiBold,Gill Sans" font-weight="bold" font-size="71.0" fill="#525252" transform="matrix(1.00, 0.00, -0.00, -1.00, 1264.6, 515.2)">!</text></g></svg>