<?xml version="1.0" encoding="UTF-8" standalone="no"?><svg xmlns="http://www.w3.org/2000/svg" xmlns:xlink="http://www.w3.org/1999/xlink" clip-rule="evenodd" stroke-miterlimit="10" viewBox="0 0 1920 1080"><desc>SVG generated by Keynote</desc><defs></defs><g transform="matrix(1.00, 0.00, -0.00, -1.00, 0.0, 1080.0)"><g><clipPath id="clip0x6080016a71a0"><path d="M 0.0 1080.0 L 1920.0 1080.0 L 1920.0 0.0 L 0.0 0.0 Z M 0.0 1080.0 "></path></clipPath><g clip-path="url(#clip0x6080016a71a0)"><image xlink:href="../../670AF0A5-B06C-45B2-A649-BC83FE98871A/assets/400D38DE9BD779267D8D9BA1A44336F3.jpeg" width="3840.00" height="2160.00" transform="matrix(1.75, 0.00, -0.00, -1.75, -2406.0, 2433.0)"></image></g></g><image xlink:href="35AB6D6263AF89AA51E839E1AD574734.png" width="748.00" height="432.00" transform="matrix(2.26, 0.00, -0.00, -2.26, 107.0, 1021.0)"></image><path d="M 114.0 436.4 L 113.2 626.9 L 187.2 627.2 L 188.0 436.8 Z M 114.0 436.4 " fill="#78889F"></path><g><clipPath id="clip0x6000012b6200"><path d="M 112.0 427.4 L 111.1 636.0 L 189.2 636.3 L 190.1 427.7 Z M 112.0 427.4 "></path></clipPath><g clip-path="url(#clip0x6000012b6200)"><text xml:space="preserve" font-family="GillSans-Light,Gill Sans" font-size="46.0" fill="#FEFFFF" transform="matrix(-0.00, 1.00, 1.00, 0.00, 166.0, 458.7)">C</text><text xml:space="preserve" font-family="GillSans-Light,Gill Sans" font-size="46.0" fill="#FEFFFF" transform="matrix(-0.00, 1.00, 1.00, 0.00, 165.8, 489.8)">U</text><text xml:space="preserve" font-family="GillSans-Light,Gill Sans" font-size="46.0" fill="#FEFFFF" transform="matrix(-0.00, 1.00, 1.00, 0.00, 165.7, 521.9)">S</text><text xml:space="preserve" font-family="GillSans-Light,Gill Sans" font-size="46.0" fill="#FEFFFF" transform="matrix(-0.00, 1.00, 1.00, 0.00, 165.6, 543.5)">T</text><text xml:space="preserve" font-family="GillSans-Light,Gill Sans" font-size="46.0" fill="#FEFFFF" transform="matrix(-0.00, 1.00, 1.00, 0.00, 165.5, 566.4)">O</text></g></g><path d="M 849.0 120.0 L 1059.0 120.0 L 1059.0 55.0 L 849.0 55.0 Z M 848.8 120.3 " fill="#78889F"></path><g><clipPath id="clip0x6000012b65c0"><path d="M 839.7 48.2 L 1068.2 48.2 L 1068.2 126.3 L 839.7 126.3 Z M 839.7 48.2 "></path></clipPath><g clip-path="url(#clip0x6000012b65c0)"><text xml:space="preserve" font-family="GillSans-Light,Gill Sans" font-size="46.0" fill="#FEFFFF" transform="matrix(1.00, 0.00, -0.00, -1.00, 870.8, 72.2)">T</text><text xml:space="preserve" font-family="GillSans-Light,Gill Sans" font-size="46.0" fill="#FEFFFF" transform="matrix(1.00, 0.00, -0.00, -1.00, 897.2, 72.2)">E</text><text xml:space="preserve" font-family="GillSans-Light,Gill Sans" font-size="46.0" fill="#FEFFFF" transform="matrix(1.00, 0.00, -0.00, -1.00, 919.7, 72.2)">M</text><text xml:space="preserve" font-family="GillSans-Light,Gill Sans" font-size="46.0" fill="#FEFFFF" transform="matrix(1.00, 0.00, -0.00, -1.00, 955.7, 72.2)">P</text><text xml:space="preserve" font-family="GillSans-Light,Gill Sans" font-size="46.0" fill="#FEFFFF" transform="matrix(1.00, 0.00, -0.00, -1.00, 979.1, 72.2)">O</text></g></g><path d="M 733.0 869.0 L 1187.0 869.0 L 1187.0 706.0 L 733.0 706.0 Z M 732.9 869.3 " fill="#AA1802"></path><g><clipPath id="clip0x6080016a7b00"><path d="M 723.8 696.2 L 1196.2 696.2 L 1196.2 878.3 L 723.8 878.3 Z M 723.8 696.2 "></path></clipPath><g clip-path="url(#clip0x6080016a7b00)"><text xml:space="preserve" font-family="GillSans-Light,Gill Sans" font-size="46.0" fill="#FEFFFF" transform="matrix(1.00, 0.00, -0.00, -1.00, 772.9, 824.2)">a</text><text xml:space="preserve" font-family="GillSans-Light,Gill Sans" font-size="46.0" fill="#FEFFFF" transform="matrix(1.00, 0.00, -0.00, -1.00, 792.5, 824.2)"> </text><text xml:space="preserve" font-family="GillSans-Light,Gill Sans" font-size="46.0" fill="#FEFFFF" transform="matrix(1.00, 0.00, -0.00, -1.00, 805.3, 824.2)">r</text><text xml:space="preserve" font-family="GillSans-Light,Gill Sans" font-size="46.0" fill="#FEFFFF" transform="matrix(1.00, 0.00, -0.00, -1.00, 820.6, 824.2)">e</text><text xml:space="preserve" font-family="GillSans-Light,Gill Sans" font-size="46.0" fill="#FEFFFF" transform="matrix(1.00, 0.00, -0.00, -1.00, 842.6, 824.2)">g</text><text xml:space="preserve" font-family="GillSans-Light,Gill Sans" font-size="46.0" fill="#FEFFFF" transform="matrix(1.00, 0.00, -0.00, -1.00, 862.2, 824.2)">r</text><text xml:space="preserve" font-family="GillSans-Light,Gill Sans" font-size="46.0" fill="#FEFFFF" transform="matrix(1.00, 0.00, -0.00, -1.00, 877.6, 824.2)">e</text><text xml:space="preserve" font-family="GillSans-Light,Gill Sans" font-size="46.0" fill="#FEFFFF" transform="matrix(1.00, 0.00, -0.00, -1.00, 899.6, 824.2)">s</text><text xml:space="preserve" font-family="GillSans-Light,Gill Sans" font-size="46.0" fill="#FEFFFF" transform="matrix(1.00, 0.00, -0.00, -1.00, 915.9, 824.2)">s</text><text xml:space="preserve" font-family="GillSans-Light,Gill Sans" font-size="46.0" fill="#FEFFFF" transform="matrix(1.00, 0.00, -0.00, -1.00, 932.2, 824.2)">ã</text><text xml:space="preserve" font-family="GillSans-Light,Gill Sans" font-size="46.0" fill="#FEFFFF" transform="matrix(1.00, 0.00, -0.00, -1.00, 951.8, 824.2)">o</text><text xml:space="preserve" font-family="GillSans-Light,Gill Sans" font-size="46.0" fill="#FEFFFF" transform="matrix(1.00, 0.00, -0.00, -1.00, 976.7, 824.2)"> </text><text xml:space="preserve" font-family="GillSans-Light,Gill Sans" font-size="46.0" fill="#FEFFFF" transform="matrix(1.00, 0.00, -0.00, -1.00, 989.5, 824.2)">l</text><text xml:space="preserve" font-family="GillSans-Light,Gill Sans" font-size="46.0" fill="#FEFFFF" transform="matrix(1.00, 0.00, -0.00, -1.00, 998.1, 824.2)">i</text><text xml:space="preserve" font-family="GillSans-Light,Gill Sans" font-size="46.0" fill="#FEFFFF" transform="matrix(1.00, 0.00, -0.00, -1.00, 1006.8, 824.2)">n</text><text xml:space="preserve" font-family="GillSans-Light,Gill Sans" font-size="46.0" fill="#FEFFFF" transform="matrix(1.00, 0.00, -0.00, -1.00, 1029.3, 824.2)">e</text><text xml:space="preserve" font-family="GillSans-Light,Gill Sans" font-size="46.0" fill="#FEFFFF" transform="matrix(1.00, 0.00, -0.00, -1.00, 1051.4, 824.2)">a</text><text xml:space="preserve" font-family="GillSans-Light,Gill Sans" font-size="46.0" fill="#FEFFFF" transform="matrix(1.00, 0.00, -0.00, -1.00, 1071.0, 824.2)">r</text><text xml:space="preserve" font-family="GillSans-Light,Gill Sans" font-size="46.0" fill="#FEFFFF" transform="matrix(1.00, 0.00, -0.00, -1.00, 1086.3, 824.2)"> </text><text xml:space="preserve" font-family="GillSans-Light,Gill Sans" font-size="46.0" fill="#FEFFFF" transform="matrix(1.00, 0.00, -0.00, -1.00, 772.9, 772.2)">a</text><text xml:space="preserve" font-family="GillSans-Light,Gill Sans" font-size="46.0" fill="#FEFFFF" transform="matrix(1.00, 0.00, -0.00, -1.00, 792.5, 772.2)">p</text><text xml:space="preserve" font-family="GillSans-Light,Gill Sans" font-size="46.0" fill="#FEFFFF" transform="matrix(1.00, 0.00, -0.00, -1.00, 815.9, 772.2)">e</text><text xml:space="preserve" font-family="GillSans-Light,Gill Sans" font-size="46.0" fill="#FEFFFF" transform="matrix(1.00, 0.00, -0.00, -1.00, 838.0, 772.2)">n</text><text xml:space="preserve" font-family="GillSans-Light,Gill Sans" font-size="46.0" fill="#FEFFFF" transform="matrix(1.00, 0.00, -0.00, -1.00, 860.5, 772.2)">a</text><text xml:space="preserve" font-family="GillSans-Light,Gill Sans" font-size="46.0" fill="#FEFFFF" transform="matrix(1.00, 0.00, -0.00, -1.00, 880.2, 772.2)">s</text><text xml:space="preserve" font-family="GillSans-Light,Gill Sans" font-size="46.0" fill="#FEFFFF" transform="matrix(1.00, 0.00, -0.00, -1.00, 896.4, 772.2)"> </text><text xml:space="preserve" font-family="GillSans-Light,Gill Sans" font-size="46.0" fill="#FEFFFF" transform="matrix(1.00, 0.00, -0.00, -1.00, 909.2, 772.2)">s</text><text xml:space="preserve" font-family="GillSans-Light,Gill Sans" font-size="46.0" fill="#FEFFFF" transform="matrix(1.00, 0.00, -0.00, -1.00, 925.5, 772.2)">e</text><text xml:space="preserve" font-family="GillSans-Light,Gill Sans" font-size="46.0" fill="#FEFFFF" transform="matrix(1.00, 0.00, -0.00, -1.00, 947.5, 772.2)"> </text><text xml:space="preserve" font-family="GillSans-Light,Gill Sans" font-size="46.0" fill="#FEFFFF" transform="matrix(1.00, 0.00, -0.00, -1.00, 960.3, 772.2)">a</text><text xml:space="preserve" font-family="GillSans-Light,Gill Sans" font-size="46.0" fill="#FEFFFF" transform="matrix(1.00, 0.00, -0.00, -1.00, 979.9, 772.2)">j</text><text xml:space="preserve" font-family="GillSans-Light,Gill Sans" font-size="46.0" fill="#FEFFFF" transform="matrix(1.00, 0.00, -0.00, -1.00, 988.6, 772.2)">u</text><text xml:space="preserve" font-family="GillSans-Light,Gill Sans" font-size="46.0" fill="#FEFFFF" transform="matrix(1.00, 0.00, -0.00, -1.00, 1011.1, 772.2)">s</text><text xml:space="preserve" font-family="GillSans-Light,Gill Sans" font-size="46.0" fill="#FEFFFF" transform="matrix(1.00, 0.00, -0.00, -1.00, 1027.4, 772.2)">t</text><text xml:space="preserve" font-family="GillSans-Light,Gill Sans" font-size="46.0" fill="#FEFFFF" transform="matrix(1.00, 0.00, -0.00, -1.00, 1041.3, 772.2)">a</text><text xml:space="preserve" font-family="GillSans-Light,Gill Sans" font-size="46.0" fill="#FEFFFF" transform="matrix(1.00, 0.00, -0.00, -1.00, 1060.9, 772.2)"> </text><text xml:space="preserve" font-family="GillSans-Light,Gill Sans" font-size="46.0" fill="#FEFFFF" transform="matrix(1.00, 0.00, -0.00, -1.00, 1073.7, 772.2)">a</text><text xml:space="preserve" font-family="GillSans-Light,Gill Sans" font-size="46.0" fill="#FEFFFF" transform="matrix(1.00, 0.00, -0.00, -1.00, 1093.3, 772.2)"> </text></g></g><g><clipPath id="clip0x6080016a8ac0"><path d="M 723.8 710.3 L 1196.2 710.3 L 1196.2 865.3 L 723.8 865.3 Z M 723.8 710.3 "></path></clipPath><g clip-path="url(#clip0x6080016a8ac0)"><text xml:space="preserve" font-family="GillSans-Light,Gill Sans" font-size="46.0" fill="#FEFFFF" transform="matrix(1.00, 0.00, -0.00, -1.00, 772.9, 720.2)">u</text><text xml:space="preserve" font-family="GillSans-Light,Gill Sans" font-size="46.0" fill="#FEFFFF" transform="matrix(1.00, 0.00, -0.00, -1.00, 795.4, 720.2)">m</text><text xml:space="preserve" font-family="GillSans-Light,Gill Sans" font-size="46.0" fill="#FEFFFF" transform="matrix(1.00, 0.00, -0.00, -1.00, 830.9, 720.2)">a</text><text xml:space="preserve" font-family="GillSans-Light,Gill Sans" font-size="46.0" fill="#FEFFFF" transform="matrix(1.00, 0.00, -0.00, -1.00, 850.5, 720.2)"> </text><text xml:space="preserve" font-family="GillSans-Light,Gill Sans" font-size="46.0" fill="#FEFFFF" transform="matrix(1.00, 0.00, -0.00, -1.00, 863.3, 720.2)">l</text><text xml:space="preserve" font-family="GillSans-Light,Gill Sans" font-size="46.0" fill="#FEFFFF" transform="matrix(1.00, 0.00, -0.00, -1.00, 871.9, 720.2)">i</text><text xml:space="preserve" font-family="GillSans-Light,Gill Sans" font-size="46.0" fill="#FEFFFF" transform="matrix(1.00, 0.00, -0.00, -1.00, 880.6, 720.2)">n</text><text xml:space="preserve" font-family="GillSans-Light,Gill Sans" font-size="46.0" fill="#FEFFFF" transform="matrix(1.00, 0.00, -0.00, -1.00, 903.2, 720.2)">h</text><text xml:space="preserve" font-family="GillSans-Light,Gill Sans" font-size="46.0" fill="#FEFFFF" transform="matrix(1.00, 0.00, -0.00, -1.00, 925.7, 720.2)">a</text><text xml:space="preserve" font-family="GillSans-Light,Gill Sans" font-size="46.0" fill="#FEFFFF" transform="matrix(1.00, 0.00, -0.00, -1.00, 945.3, 720.2)"> </text><text xml:space="preserve" font-family="GillSans-Light,Gill Sans" font-size="46.0" fill="#FEFFFF" transform="matrix(1.00, 0.00, -0.00, -1.00, 958.1, 720.2)">r</text><text xml:space="preserve" font-family="GillSans-Light,Gill Sans" font-size="46.0" fill="#FEFFFF" transform="matrix(1.00, 0.00, -0.00, -1.00, 973.4, 720.2)">e</text><text xml:space="preserve" font-family="GillSans-Light,Gill Sans" font-size="46.0" fill="#FEFFFF" transform="matrix(1.00, 0.00, -0.00, -1.00, 995.5, 720.2)">c</text><text xml:space="preserve" font-family="GillSans-Light,Gill Sans" font-size="46.0" fill="#FEFFFF" transform="matrix(1.00, 0.00, -0.00, -1.00, 1014.6, 720.2)">t</text><text xml:space="preserve" font-family="GillSans-Light,Gill Sans" font-size="46.0" fill="#FEFFFF" transform="matrix(1.00, 0.00, -0.00, -1.00, 1028.5, 720.2)">a</text></g></g><path d="M 461.0 913.0 L 755.0 913.0 L 755.0 847.0 L 461.0 847.0 Z M 460.8 912.7 " fill="#78889F"></path><g><clipPath id="clip0x6000012b69e0"><path d="M 451.7 840.7 L 764.1 840.7 L 764.1 918.8 L 451.7 918.8 Z M 451.7 840.7 "></path></clipPath><g clip-path="url(#clip0x6000012b69e0)"><text xml:space="preserve" font-family="GillSans-Light,Gill Sans" font-size="46.0" fill="#FEFFFF" transform="matrix(1.00, 0.00, -0.00, -1.00, 482.8, 864.7)">o</text><text xml:space="preserve" font-family="GillSans-Light,Gill Sans" font-size="46.0" fill="#FEFFFF" transform="matrix(1.00, 0.00, -0.00, -1.00, 507.7, 864.7)">s</text><text xml:space="preserve" font-family="GillSans-Light,Gill Sans" font-size="46.0" fill="#FEFFFF" transform="matrix(1.00, 0.00, -0.00, -1.00, 524.0, 864.7)"> </text><text xml:space="preserve" font-family="GillSans-Light,Gill Sans" font-size="46.0" fill="#FEFFFF" transform="matrix(1.00, 0.00, -0.00, -1.00, 536.8, 864.7)">s</text><text xml:space="preserve" font-family="GillSans-Light,Gill Sans" font-size="46.0" fill="#FEFFFF" transform="matrix(1.00, 0.00, -0.00, -1.00, 553.1, 864.7)">e</text><text xml:space="preserve" font-family="GillSans-Light,Gill Sans" font-size="46.0" fill="#FEFFFF" transform="matrix(1.00, 0.00, -0.00, -1.00, 575.1, 864.7)">u</text><text xml:space="preserve" font-family="GillSans-Light,Gill Sans" font-size="46.0" fill="#FEFFFF" transform="matrix(1.00, 0.00, -0.00, -1.00, 597.7, 864.7)">s</text><text xml:space="preserve" font-family="GillSans-Light,Gill Sans" font-size="46.0" fill="#FEFFFF" transform="matrix(1.00, 0.00, -0.00, -1.00, 613.9, 864.7)"> </text><text xml:space="preserve" font-family="GillSans-Light,Gill Sans" font-size="46.0" fill="#FEFFFF" transform="matrix(1.00, 0.00, -0.00, -1.00, 626.7, 864.7)">d</text><text xml:space="preserve" font-family="GillSans-Light,Gill Sans" font-size="46.0" fill="#FEFFFF" transform="matrix(1.00, 0.00, -0.00, -1.00, 650.2, 864.7)">a</text><text xml:space="preserve" font-family="GillSans-Light,Gill Sans" font-size="46.0" fill="#FEFFFF" transform="matrix(1.00, 0.00, -0.00, -1.00, 669.8, 864.7)">d</text><text xml:space="preserve" font-family="GillSans-Light,Gill Sans" font-size="46.0" fill="#FEFFFF" transform="matrix(1.00, 0.00, -0.00, -1.00, 693.2, 864.7)">o</text><text xml:space="preserve" font-family="GillSans-Light,Gill Sans" font-size="46.0" fill="#FEFFFF" transform="matrix(1.00, 0.00, -0.00, -1.00, 718.2, 864.7)">s</text></g></g><path d="M 1305.0 840.0 L 1760.0 840.0 L 1760.0 677.0 L 1305.0 677.0 Z M 1305.4 840.4 " fill="#AA1802"></path><g><clipPath id="clip0x6000012b70a0"><path d="M 1296.3 667.4 L 1768.7 667.4 L 1768.7 849.5 L 1296.3 849.5 Z M 1296.3 667.4 "></path></clipPath><g clip-path="url(#clip0x6000012b70a0)"><text xml:space="preserve" font-family="GillSans-Light,Gill Sans" font-size="46.0" fill="#FEFFFF" transform="matrix(1.00, 0.00, -0.00, -1.00, 1345.4, 795.4)">a</text><text xml:space="preserve" font-family="GillSans-Light,Gill Sans" font-size="46.0" fill="#FEFFFF" transform="matrix(1.00, 0.00, -0.00, -1.00, 1365.0, 795.4)"> </text><text xml:space="preserve" font-family="GillSans-Light,Gill Sans" font-size="46.0" fill="#FEFFFF" transform="matrix(1.00, 0.00, -0.00, -1.00, 1377.8, 795.4)">r</text><text xml:space="preserve" font-family="GillSans-Light,Gill Sans" font-size="46.0" fill="#FEFFFF" transform="matrix(1.00, 0.00, -0.00, -1.00, 1393.1, 795.4)">e</text><text xml:space="preserve" font-family="GillSans-Light,Gill Sans" font-size="46.0" fill="#FEFFFF" transform="matrix(1.00, 0.00, -0.00, -1.00, 1415.1, 795.4)">g</text><text xml:space="preserve" font-family="GillSans-Light,Gill Sans" font-size="46.0" fill="#FEFFFF" transform="matrix(1.00, 0.00, -0.00, -1.00, 1434.7, 795.4)">r</text><text xml:space="preserve" font-family="GillSans-Light,Gill Sans" font-size="46.0" fill="#FEFFFF" transform="matrix(1.00, 0.00, -0.00, -1.00, 1450.1, 795.4)">e</text><text xml:space="preserve" font-family="GillSans-Light,Gill Sans" font-size="46.0" fill="#FEFFFF" transform="matrix(1.00, 0.00, -0.00, -1.00, 1472.1, 795.4)">s</text><text xml:space="preserve" font-family="GillSans-Light,Gill Sans" font-size="46.0" fill="#FEFFFF" transform="matrix(1.00, 0.00, -0.00, -1.00, 1488.4, 795.4)">s</text><text xml:space="preserve" font-family="GillSans-Light,Gill Sans" font-size="46.0" fill="#FEFFFF" transform="matrix(1.00, 0.00, -0.00, -1.00, 1504.7, 795.4)">ã</text><text xml:space="preserve" font-family="GillSans-Light,Gill Sans" font-size="46.0" fill="#FEFFFF" transform="matrix(1.00, 0.00, -0.00, -1.00, 1524.3, 795.4)">o</text><text xml:space="preserve" font-family="GillSans-Light,Gill Sans" font-size="46.0" fill="#FEFFFF" transform="matrix(1.00, 0.00, -0.00, -1.00, 1549.2, 795.4)"> </text><text xml:space="preserve" font-family="GillSans-Light,Gill Sans" font-size="46.0" fill="#FEFFFF" transform="matrix(1.00, 0.00, -0.00, -1.00, 1562.0, 795.4)">n</text><text xml:space="preserve" font-family="GillSans-Light,Gill Sans" font-size="46.0" fill="#FEFFFF" transform="matrix(1.00, 0.00, -0.00, -1.00, 1584.5, 795.4)">ã</text><text xml:space="preserve" font-family="GillSans-Light,Gill Sans" font-size="46.0" fill="#FEFFFF" transform="matrix(1.00, 0.00, -0.00, -1.00, 1604.2, 795.4)">o</text><text xml:space="preserve" font-family="GillSans-Light,Gill Sans" font-size="46.0" fill="#FEFFFF" transform="matrix(1.00, 0.00, -0.00, -1.00, 1629.1, 795.4)">-</text><text xml:space="preserve" font-family="GillSans-Light,Gill Sans" font-size="46.0" fill="#FEFFFF" transform="matrix(1.00, 0.00, -0.00, -1.00, 1643.5, 795.4)">l</text><text xml:space="preserve" font-family="GillSans-Light,Gill Sans" font-size="46.0" fill="#FEFFFF" transform="matrix(1.00, 0.00, -0.00, -1.00, 1652.1, 795.4)">i</text><text xml:space="preserve" font-family="GillSans-Light,Gill Sans" font-size="46.0" fill="#FEFFFF" transform="matrix(1.00, 0.00, -0.00, -1.00, 1660.8, 795.4)">n</text><text xml:space="preserve" font-family="GillSans-Light,Gill Sans" font-size="46.0" fill="#FEFFFF" transform="matrix(1.00, 0.00, -0.00, -1.00, 1683.3, 795.4)">e</text><text xml:space="preserve" font-family="GillSans-Light,Gill Sans" font-size="46.0" fill="#FEFFFF" transform="matrix(1.00, 0.00, -0.00, -1.00, 1705.4, 795.4)">a</text><text xml:space="preserve" font-family="GillSans-Light,Gill Sans" font-size="46.0" fill="#FEFFFF" transform="matrix(1.00, 0.00, -0.00, -1.00, 1725.0, 795.4)">r</text><text xml:space="preserve" font-family="GillSans-Light,Gill Sans" font-size="46.0" fill="#FEFFFF" transform="matrix(1.00, 0.00, -0.00, -1.00, 1740.3, 795.4)"> </text><text xml:space="preserve" font-family="GillSans-Light,Gill Sans" font-size="46.0" fill="#FEFFFF" transform="matrix(1.00, 0.00, -0.00, -1.00, 1345.4, 743.4)">r</text><text xml:space="preserve" font-family="GillSans-Light,Gill Sans" font-size="46.0" fill="#FEFFFF" transform="matrix(1.00, 0.00, -0.00, -1.00, 1360.7, 743.4)">e</text><text xml:space="preserve" font-family="GillSans-Light,Gill Sans" font-size="46.0" fill="#FEFFFF" transform="matrix(1.00, 0.00, -0.00, -1.00, 1382.7, 743.4)">q</text><text xml:space="preserve" font-family="GillSans-Light,Gill Sans" font-size="46.0" fill="#FEFFFF" transform="matrix(1.00, 0.00, -0.00, -1.00, 1406.2, 743.4)">u</text><text xml:space="preserve" font-family="GillSans-Light,Gill Sans" font-size="46.0" fill="#FEFFFF" transform="matrix(1.00, 0.00, -0.00, -1.00, 1428.7, 743.4)">e</text><text xml:space="preserve" font-family="GillSans-Light,Gill Sans" font-size="46.0" fill="#FEFFFF" transform="matrix(1.00, 0.00, -0.00, -1.00, 1450.8, 743.4)">r</text><text xml:space="preserve" font-family="GillSans-Light,Gill Sans" font-size="46.0" fill="#FEFFFF" transform="matrix(1.00, 0.00, -0.00, -1.00, 1466.1, 743.4)"> </text><text xml:space="preserve" font-family="GillSans-Light,Gill Sans" font-size="46.0" fill="#FEFFFF" transform="matrix(1.00, 0.00, -0.00, -1.00, 1478.8, 743.4)">u</text><text xml:space="preserve" font-family="GillSans-Light,Gill Sans" font-size="46.0" fill="#FEFFFF" transform="matrix(1.00, 0.00, -0.00, -1.00, 1501.4, 743.4)">m</text><text xml:space="preserve" font-family="GillSans-Light,Gill Sans" font-size="46.0" fill="#FEFFFF" transform="matrix(1.00, 0.00, -0.00, -1.00, 1536.9, 743.4)"> </text><text xml:space="preserve" font-family="GillSans-Light,Gill Sans" font-size="46.0" fill="#FEFFFF" transform="matrix(1.00, 0.00, -0.00, -1.00, 1549.6, 743.4)">m</text><text xml:space="preserve" font-family="GillSans-Light,Gill Sans" font-size="46.0" fill="#FEFFFF" transform="matrix(1.00, 0.00, -0.00, -1.00, 1585.1, 743.4)">o</text><text xml:space="preserve" font-family="GillSans-Light,Gill Sans" font-size="46.0" fill="#FEFFFF" transform="matrix(1.00, 0.00, -0.00, -1.00, 1610.0, 743.4)">d</text><text xml:space="preserve" font-family="GillSans-Light,Gill Sans" font-size="46.0" fill="#FEFFFF" transform="matrix(1.00, 0.00, -0.00, -1.00, 1633.5, 743.4)">e</text><text xml:space="preserve" font-family="GillSans-Light,Gill Sans" font-size="46.0" fill="#FEFFFF" transform="matrix(1.00, 0.00, -0.00, -1.00, 1655.5, 743.4)">l</text><text xml:space="preserve" font-family="GillSans-Light,Gill Sans" font-size="46.0" fill="#FEFFFF" transform="matrix(1.00, 0.00, -0.00, -1.00, 1664.2, 743.4)">o</text><text xml:space="preserve" font-family="GillSans-Light,Gill Sans" font-size="46.0" fill="#FEFFFF" transform="matrix(1.00, 0.00, -0.00, -1.00, 1689.1, 743.4)"> </text></g></g><g><clipPath id="clip0x6080016aa260"><path d="M 1296.3 681.4 L 1768.7 681.4 L 1768.7 836.4 L 1296.3 836.4 Z M 1296.3 681.4 "></path></clipPath><g clip-path="url(#clip0x6080016aa260)"><text xml:space="preserve" font-family="GillSans-Light,Gill Sans" font-size="46.0" fill="#FEFFFF" transform="matrix(1.00, 0.00, -0.00, -1.00, 1345.4, 691.4)">p</text><text xml:space="preserve" font-family="GillSans-Light,Gill Sans" font-size="46.0" fill="#FEFFFF" transform="matrix(1.00, 0.00, -0.00, -1.00, 1368.8, 691.4)">r</text><text xml:space="preserve" font-family="GillSans-Light,Gill Sans" font-size="46.0" fill="#FEFFFF" transform="matrix(1.00, 0.00, -0.00, -1.00, 1384.1, 691.4)">é</text><text xml:space="preserve" font-family="GillSans-Light,Gill Sans" font-size="46.0" fill="#FEFFFF" transform="matrix(1.00, 0.00, -0.00, -1.00, 1406.2, 691.4)">v</text><text xml:space="preserve" font-family="GillSans-Light,Gill Sans" font-size="46.0" fill="#FEFFFF" transform="matrix(1.00, 0.00, -0.00, -1.00, 1425.8, 691.4)">i</text><text xml:space="preserve" font-family="GillSans-Light,Gill Sans" font-size="46.0" fill="#FEFFFF" transform="matrix(1.00, 0.00, -0.00, -1.00, 1434.4, 691.4)">o</text><text xml:space="preserve" font-family="GillSans-Light,Gill Sans" font-size="46.0" fill="#FEFFFF" transform="matrix(1.00, 0.00, -0.00, -1.00, 1459.4, 691.4)"> </text><text xml:space="preserve" font-family="GillSans-Light,Gill Sans" font-size="46.0" fill="#FEFFFF" transform="matrix(1.00, 0.00, -0.00, -1.00, 1472.1, 691.4)">s</text><text xml:space="preserve" font-family="GillSans-Light,Gill Sans" font-size="46.0" fill="#FEFFFF" transform="matrix(1.00, 0.00, -0.00, -1.00, 1488.4, 691.4)">e</text><text xml:space="preserve" font-family="GillSans-Light,Gill Sans" font-size="46.0" fill="#FEFFFF" transform="matrix(1.00, 0.00, -0.00, -1.00, 1510.4, 691.4)">j</text><text xml:space="preserve" font-family="GillSans-Light,Gill Sans" font-size="46.0" fill="#FEFFFF" transform="matrix(1.00, 0.00, -0.00, -1.00, 1519.1, 691.4)">a</text><text xml:space="preserve" font-family="GillSans-Light,Gill Sans" font-size="46.0" fill="#FEFFFF" transform="matrix(1.00, 0.00, -0.00, -1.00, 1538.7, 691.4)"> </text><text xml:space="preserve" font-family="GillSans-Light,Gill Sans" font-size="46.0" fill="#FEFFFF" transform="matrix(1.00, 0.00, -0.00, -1.00, 1551.5, 691.4)">f</text><text xml:space="preserve" font-family="GillSans-Light,Gill Sans" font-size="46.0" fill="#FEFFFF" transform="matrix(1.00, 0.00, -0.00, -1.00, 1562.1, 691.4)">o</text><text xml:space="preserve" font-family="GillSans-Light,Gill Sans" font-size="46.0" fill="#FEFFFF" transform="matrix(1.00, 0.00, -0.00, -1.00, 1587.0, 691.4)">r</text><text xml:space="preserve" font-family="GillSans-Light,Gill Sans" font-size="46.0" fill="#FEFFFF" transform="matrix(1.00, 0.00, -0.00, -1.00, 1603.5, 691.4)">n</text><text xml:space="preserve" font-family="GillSans-Light,Gill Sans" font-size="46.0" fill="#FEFFFF" transform="matrix(1.00, 0.00, -0.00, -1.00, 1626.1, 691.4)">e</text><text xml:space="preserve" font-family="GillSans-Light,Gill Sans" font-size="46.0" fill="#FEFFFF" transform="matrix(1.00, 0.00, -0.00, -1.00, 1648.1, 691.4)">c</text><text xml:space="preserve" font-family="GillSans-Light,Gill Sans" font-size="46.0" fill="#FEFFFF" transform="matrix(1.00, 0.00, -0.00, -1.00, 1667.3, 691.4)">i</text><text xml:space="preserve" font-family="GillSans-Light,Gill Sans" font-size="46.0" fill="#FEFFFF" transform="matrix(1.00, 0.00, -0.00, -1.00, 1675.9, 691.4)">d</text><text xml:space="preserve" font-family="GillSans-Light,Gill Sans" font-size="46.0" fill="#FEFFFF" transform="matrix(1.00, 0.00, -0.00, -1.00, 1699.4, 691.4)">o</text></g></g><path d="M 819.0 313.0 L 1676.0 313.0 L 1676.0 173.0 L 819.0 173.0 Z M 818.9 313.2 " fill="#AA1802"></path><g><clipPath id="clip0x6080016aace0"><path d="M 809.8 172.8 L 1685.1 172.8 L 1685.1 313.2 L 809.8 313.2 Z M 809.8 172.8 "></path></clipPath><g clip-path="url(#clip0x6080016aace0)"><text xml:space="preserve" font-family="GillSans-Light,Gill Sans" font-size="46.0" fill="#FEFFFF" transform="matrix(1.00, 0.00, -0.00, -1.00, 858.9, 254.2)">a</text><text xml:space="preserve" font-family="GillSans-Light,Gill Sans" font-size="46.0" fill="#FEFFFF" transform="matrix(1.00, 0.00, -0.00, -1.00, 878.5, 254.2)"> </text><text xml:space="preserve" font-family="GillSans-Light,Gill Sans" font-size="46.0" fill="#FEFFFF" transform="matrix(1.00, 0.00, -0.00, -1.00, 891.3, 254.2)">r</text><text xml:space="preserve" font-family="GillSans-Light,Gill Sans" font-size="46.0" fill="#FEFFFF" transform="matrix(1.00, 0.00, -0.00, -1.00, 906.6, 254.2)">e</text><text xml:space="preserve" font-family="GillSans-Light,Gill Sans" font-size="46.0" fill="#FEFFFF" transform="matrix(1.00, 0.00, -0.00, -1.00, 928.6, 254.2)">g</text><text xml:space="preserve" font-family="GillSans-Light,Gill Sans" font-size="46.0" fill="#FEFFFF" transform="matrix(1.00, 0.00, -0.00, -1.00, 948.2, 254.2)">r</text><text xml:space="preserve" font-family="GillSans-Light,Gill Sans" font-size="46.0" fill="#FEFFFF" transform="matrix(1.00, 0.00, -0.00, -1.00, 963.6, 254.2)">e</text><text xml:space="preserve" font-family="GillSans-Light,Gill Sans" font-size="46.0" fill="#FEFFFF" transform="matrix(1.00, 0.00, -0.00, -1.00, 985.6, 254.2)">s</text><text xml:space="preserve" font-family="GillSans-Light,Gill Sans" font-size="46.0" fill="#FEFFFF" transform="matrix(1.00, 0.00, -0.00, -1.00, 1001.9, 254.2)">s</text><text xml:space="preserve" font-family="GillSans-Light,Gill Sans" font-size="46.0" fill="#FEFFFF" transform="matrix(1.00, 0.00, -0.00, -1.00, 1018.2, 254.2)">ã</text><text xml:space="preserve" font-family="GillSans-Light,Gill Sans" font-size="46.0" fill="#FEFFFF" transform="matrix(1.00, 0.00, -0.00, -1.00, 1037.8, 254.2)">o</text><text xml:space="preserve" font-family="GillSans-Light,Gill Sans" font-size="46.0" fill="#FEFFFF" transform="matrix(1.00, 0.00, -0.00, -1.00, 1062.7, 254.2)"> </text><text xml:space="preserve" font-family="GillSans-Light,Gill Sans" font-size="46.0" fill="#FEFFFF" transform="matrix(1.00, 0.00, -0.00, -1.00, 1075.5, 254.2)">s</text><text xml:space="preserve" font-family="GillSans-Light,Gill Sans" font-size="46.0" fill="#FEFFFF" transform="matrix(1.00, 0.00, -0.00, -1.00, 1091.8, 254.2)">i</text><text xml:space="preserve" font-family="GillSans-Light,Gill Sans" font-size="46.0" fill="#FEFFFF" transform="matrix(1.00, 0.00, -0.00, -1.00, 1100.4, 254.2)">m</text><text xml:space="preserve" font-family="GillSans-Light,Gill Sans" font-size="46.0" fill="#FEFFFF" transform="matrix(1.00, 0.00, -0.00, -1.00, 1135.9, 254.2)">b</text><text xml:space="preserve" font-family="GillSans-Light,Gill Sans" font-size="46.0" fill="#FEFFFF" transform="matrix(1.00, 0.00, -0.00, -1.00, 1159.3, 254.2)">ó</text><text xml:space="preserve" font-family="GillSans-Light,Gill Sans" font-size="46.0" fill="#FEFFFF" transform="matrix(1.00, 0.00, -0.00, -1.00, 1184.3, 254.2)">l</text><text xml:space="preserve" font-family="GillSans-Light,Gill Sans" font-size="46.0" fill="#FEFFFF" transform="matrix(1.00, 0.00, -0.00, -1.00, 1192.9, 254.2)">i</text><text xml:space="preserve" font-family="GillSans-Light,Gill Sans" font-size="46.0" fill="#FEFFFF" transform="matrix(1.00, 0.00, -0.00, -1.00, 1201.5, 254.2)">c</text><text xml:space="preserve" font-family="GillSans-Light,Gill Sans" font-size="46.0" fill="#FEFFFF" transform="matrix(1.00, 0.00, -0.00, -1.00, 1220.7, 254.2)">a</text><text xml:space="preserve" font-family="GillSans-Light,Gill Sans" font-size="46.0" fill="#FEFFFF" transform="matrix(1.00, 0.00, -0.00, -1.00, 1240.3, 254.2)"> </text><text xml:space="preserve" font-family="GillSans-Light,Gill Sans" font-size="46.0" fill="#FEFFFF" transform="matrix(1.00, 0.00, -0.00, -1.00, 1253.1, 254.2)">e</text><text xml:space="preserve" font-family="GillSans-Light,Gill Sans" font-size="46.0" fill="#FEFFFF" transform="matrix(1.00, 0.00, -0.00, -1.00, 1275.2, 254.2)">n</text><text xml:space="preserve" font-family="GillSans-Light,Gill Sans" font-size="46.0" fill="#FEFFFF" transform="matrix(1.00, 0.00, -0.00, -1.00, 1297.7, 254.2)">c</text><text xml:space="preserve" font-family="GillSans-Light,Gill Sans" font-size="46.0" fill="#FEFFFF" transform="matrix(1.00, 0.00, -0.00, -1.00, 1316.9, 254.2)">o</text><text xml:space="preserve" font-family="GillSans-Light,Gill Sans" font-size="46.0" fill="#FEFFFF" transform="matrix(1.00, 0.00, -0.00, -1.00, 1341.8, 254.2)">n</text><text xml:space="preserve" font-family="GillSans-Light,Gill Sans" font-size="46.0" fill="#FEFFFF" transform="matrix(1.00, 0.00, -0.00, -1.00, 1364.4, 254.2)">t</text><text xml:space="preserve" font-family="GillSans-Light,Gill Sans" font-size="46.0" fill="#FEFFFF" transform="matrix(1.00, 0.00, -0.00, -1.00, 1378.3, 254.2)">r</text><text xml:space="preserve" font-family="GillSans-Light,Gill Sans" font-size="46.0" fill="#FEFFFF" transform="matrix(1.00, 0.00, -0.00, -1.00, 1394.7, 254.2)">a</text><text xml:space="preserve" font-family="GillSans-Light,Gill Sans" font-size="46.0" fill="#FEFFFF" transform="matrix(1.00, 0.00, -0.00, -1.00, 1414.3, 254.2)"> </text><text xml:space="preserve" font-family="GillSans-Light,Gill Sans" font-size="46.0" fill="#FEFFFF" transform="matrix(1.00, 0.00, -0.00, -1.00, 1427.1, 254.2)">o</text><text xml:space="preserve" font-family="GillSans-Light,Gill Sans" font-size="46.0" fill="#FEFFFF" transform="matrix(1.00, 0.00, -0.00, -1.00, 1452.0, 254.2)"> </text><text xml:space="preserve" font-family="GillSans-Light,Gill Sans" font-size="46.0" fill="#FEFFFF" transform="matrix(1.00, 0.00, -0.00, -1.00, 1464.8, 254.2)">m</text><text xml:space="preserve" font-family="GillSans-Light,Gill Sans" font-size="46.0" fill="#FEFFFF" transform="matrix(1.00, 0.00, -0.00, -1.00, 1500.3, 254.2)">e</text><text xml:space="preserve" font-family="GillSans-Light,Gill Sans" font-size="46.0" fill="#FEFFFF" transform="matrix(1.00, 0.00, -0.00, -1.00, 1522.3, 254.2)">l</text><text xml:space="preserve" font-family="GillSans-Light,Gill Sans" font-size="46.0" fill="#FEFFFF" transform="matrix(1.00, 0.00, -0.00, -1.00, 1531.0, 254.2)">h</text><text xml:space="preserve" font-family="GillSans-Light,Gill Sans" font-size="46.0" fill="#FEFFFF" transform="matrix(1.00, 0.00, -0.00, -1.00, 1553.5, 254.2)">o</text><text xml:space="preserve" font-family="GillSans-Light,Gill Sans" font-size="46.0" fill="#FEFFFF" transform="matrix(1.00, 0.00, -0.00, -1.00, 1578.5, 254.2)">r</text><text xml:space="preserve" font-family="GillSans-Light,Gill Sans" font-size="46.0" fill="#FEFFFF" transform="matrix(1.00, 0.00, -0.00, -1.00, 1593.8, 254.2)"> </text><text xml:space="preserve" font-family="GillSans-Light,Gill Sans" font-size="46.0" fill="#FEFFFF" transform="matrix(1.00, 0.00, -0.00, -1.00, 858.9, 202.2)">m</text><text xml:space="preserve" font-family="GillSans-Light,Gill Sans" font-size="46.0" fill="#FEFFFF" transform="matrix(1.00, 0.00, -0.00, -1.00, 894.3, 202.2)">o</text><text xml:space="preserve" font-family="GillSans-Light,Gill Sans" font-size="46.0" fill="#FEFFFF" transform="matrix(1.00, 0.00, -0.00, -1.00, 919.3, 202.2)">d</text><text xml:space="preserve" font-family="GillSans-Light,Gill Sans" font-size="46.0" fill="#FEFFFF" transform="matrix(1.00, 0.00, -0.00, -1.00, 942.7, 202.2)">e</text><text xml:space="preserve" font-family="GillSans-Light,Gill Sans" font-size="46.0" fill="#FEFFFF" transform="matrix(1.00, 0.00, -0.00, -1.00, 964.7, 202.2)">l</text><text xml:space="preserve" font-family="GillSans-Light,Gill Sans" font-size="46.0" fill="#FEFFFF" transform="matrix(1.00, 0.00, -0.00, -1.00, 973.4, 202.2)">o</text><text xml:space="preserve" font-family="GillSans-Light,Gill Sans" font-size="46.0" fill="#FEFFFF" transform="matrix(1.00, 0.00, -0.00, -1.00, 998.3, 202.2)"> </text><text xml:space="preserve" font-family="GillSans-Light,Gill Sans" font-size="46.0" fill="#FEFFFF" transform="matrix(1.00, 0.00, -0.00, -1.00, 1011.1, 202.2)">a</text><text xml:space="preserve" font-family="GillSans-Light,Gill Sans" font-size="46.0" fill="#FEFFFF" transform="matrix(1.00, 0.00, -0.00, -1.00, 1030.7, 202.2)">u</text><text xml:space="preserve" font-family="GillSans-Light,Gill Sans" font-size="46.0" fill="#FEFFFF" transform="matrix(1.00, 0.00, -0.00, -1.00, 1053.3, 202.2)">t</text><text xml:space="preserve" font-family="GillSans-Light,Gill Sans" font-size="46.0" fill="#FEFFFF" transform="matrix(1.00, 0.00, -0.00, -1.00, 1067.1, 202.2)">o</text><text xml:space="preserve" font-family="GillSans-Light,Gill Sans" font-size="46.0" fill="#FEFFFF" transform="matrix(1.00, 0.00, -0.00, -1.00, 1092.1, 202.2)">m</text><text xml:space="preserve" font-family="GillSans-Light,Gill Sans" font-size="46.0" fill="#FEFFFF" transform="matrix(1.00, 0.00, -0.00, -1.00, 1127.5, 202.2)">a</text><text xml:space="preserve" font-family="GillSans-Light,Gill Sans" font-size="46.0" fill="#FEFFFF" transform="matrix(1.00, 0.00, -0.00, -1.00, 1147.2, 202.2)">t</text><text xml:space="preserve" font-family="GillSans-Light,Gill Sans" font-size="46.0" fill="#FEFFFF" transform="matrix(1.00, 0.00, -0.00, -1.00, 1161.0, 202.2)">i</text><text xml:space="preserve" font-family="GillSans-Light,Gill Sans" font-size="46.0" fill="#FEFFFF" transform="matrix(1.00, 0.00, -0.00, -1.00, 1169.7, 202.2)">c</text><text xml:space="preserve" font-family="GillSans-Light,Gill Sans" font-size="46.0" fill="#FEFFFF" transform="matrix(1.00, 0.00, -0.00, -1.00, 1188.9, 202.2)">a</text><text xml:space="preserve" font-family="GillSans-Light,Gill Sans" font-size="46.0" fill="#FEFFFF" transform="matrix(1.00, 0.00, -0.00, -1.00, 1208.5, 202.2)">m</text><text xml:space="preserve" font-family="GillSans-Light,Gill Sans" font-size="46.0" fill="#FEFFFF" transform="matrix(1.00, 0.00, -0.00, -1.00, 1244.0, 202.2)">e</text><text xml:space="preserve" font-family="GillSans-Light,Gill Sans" font-size="46.0" fill="#FEFFFF" transform="matrix(1.00, 0.00, -0.00, -1.00, 1266.0, 202.2)">n</text><text xml:space="preserve" font-family="GillSans-Light,Gill Sans" font-size="46.0" fill="#FEFFFF" transform="matrix(1.00, 0.00, -0.00, -1.00, 1288.5, 202.2)">t</text><text xml:space="preserve" font-family="GillSans-Light,Gill Sans" font-size="46.0" fill="#FEFFFF" transform="matrix(1.00, 0.00, -0.00, -1.00, 1302.4, 202.2)">e</text></g></g></g></svg>