<?xml version="1.0" encoding="UTF-8" standalone="no"?><svg xmlns="http://www.w3.org/2000/svg" xmlns:xlink="http://www.w3.org/1999/xlink" clip-rule="evenodd" stroke-miterlimit="10" viewBox="0 0 1920 1080"><desc>SVG generated by Keynote</desc><defs></defs><g transform="matrix(1.00, 0.00, -0.00, -1.00, 0.0, 1080.0)"><g><clipPath id="clip0x6080010ab340"><path d="M 0.0 1080.0 L 1920.0 1080.0 L 1920.0 0.0 L 0.0 0.0 Z M 0.0 1080.0 "></path></clipPath><g clip-path="url(#clip0x6080010ab340)"><image xlink:href="../../670AF0A5-B06C-45B2-A649-BC83FE98871A/assets/400D38DE9BD779267D8D9BA1A44336F3.jpeg" width="3840.00" height="2160.00" transform="matrix(1.75, 0.00, -0.00, -1.75, -2406.0, 2433.0)"></image></g></g><text xml:space="preserve" font-family="GillSans-SemiBold,Gill Sans" font-weight="bold" font-size="41.0" fill="#525252" transform="matrix(1.00, 0.00, -0.00, -1.00, 152.4, 501.4)">•</text><text xml:space="preserve" font-family="GillSans-SemiBold,Gill Sans" font-weight="bold" font-size="50.0" fill="#525252" transform="matrix(1.00, 0.00, -0.00, -1.00, 197.8, 498.2)">U</text><text xml:space="preserve" font-family="GillSans-SemiBold,Gill Sans" font-weight="bold" font-size="50.0" fill="#525252" transform="matrix(1.00, 0.00, -0.00, -1.00, 235.9, 498.2)">m</text><text xml:space="preserve" font-family="GillSans-SemiBold,Gill Sans" font-weight="bold" font-size="50.0" fill="#525252" transform="matrix(1.00, 0.00, -0.00, -1.00, 278.2, 498.2)"> </text><text xml:space="preserve" font-family="GillSans-SemiBold,Gill Sans" font-weight="bold" font-size="50.0" fill="#525252" transform="matrix(1.00, 0.00, -0.00, -1.00, 292.1, 498.2)">d</text><text xml:space="preserve" font-family="GillSans-SemiBold,Gill Sans" font-weight="bold" font-size="50.0" fill="#525252" transform="matrix(1.00, 0.00, -0.00, -1.00, 319.5, 498.2)">o</text><text xml:space="preserve" font-family="GillSans-SemiBold,Gill Sans" font-weight="bold" font-size="50.0" fill="#525252" transform="matrix(1.00, 0.00, -0.00, -1.00, 348.2, 498.2)">s</text><text xml:space="preserve" font-family="GillSans-SemiBold,Gill Sans" font-weight="bold" font-size="50.0" fill="#525252" transform="matrix(1.00, 0.00, -0.00, -1.00, 368.4, 498.2)"> </text><text xml:space="preserve" font-family="GillSans-SemiBold,Gill Sans" font-weight="bold" font-size="50.0" fill="#525252" transform="matrix(1.00, 0.00, -0.00, -1.00, 382.3, 498.2)">a</text><text xml:space="preserve" font-family="GillSans-SemiBold,Gill Sans" font-weight="bold" font-size="50.0" fill="#525252" transform="matrix(1.00, 0.00, -0.00, -1.00, 406.4, 498.2)">l</text><text xml:space="preserve" font-family="GillSans-SemiBold,Gill Sans" font-weight="bold" font-size="50.0" fill="#525252" transform="matrix(1.00, 0.00, -0.00, -1.00, 418.8, 498.2)">g</text><text xml:space="preserve" font-family="GillSans-SemiBold,Gill Sans" font-weight="bold" font-size="50.0" fill="#525252" transform="matrix(1.00, 0.00, -0.00, -1.00, 443.3, 498.2)">o</text><text xml:space="preserve" font-family="GillSans-SemiBold,Gill Sans" font-weight="bold" font-size="50.0" fill="#525252" transform="matrix(1.00, 0.00, -0.00, -1.00, 472.0, 498.2)">r</text><text xml:space="preserve" font-family="GillSans-SemiBold,Gill Sans" font-weight="bold" font-size="50.0" fill="#525252" transform="matrix(1.00, 0.00, -0.00, -1.00, 492.9, 498.2)">i</text><text xml:space="preserve" font-family="GillSans-SemiBold,Gill Sans" font-weight="bold" font-size="50.0" fill="#525252" transform="matrix(1.00, 0.00, -0.00, -1.00, 505.3, 498.2)">t</text><text xml:space="preserve" font-family="GillSans-SemiBold,Gill Sans" font-weight="bold" font-size="50.0" fill="#525252" transform="matrix(1.00, 0.00, -0.00, -1.00, 523.8, 498.2)">m</text><text xml:space="preserve" font-family="GillSans-SemiBold,Gill Sans" font-weight="bold" font-size="50.0" fill="#525252" transform="matrix(1.00, 0.00, -0.00, -1.00, 566.1, 498.2)">o</text><text xml:space="preserve" font-family="GillSans-SemiBold,Gill Sans" font-weight="bold" font-size="50.0" fill="#525252" transform="matrix(1.00, 0.00, -0.00, -1.00, 594.7, 498.2)">s</text><text xml:space="preserve" font-family="GillSans-SemiBold,Gill Sans" font-weight="bold" font-size="50.0" fill="#525252" transform="matrix(1.00, 0.00, -0.00, -1.00, 614.9, 498.2)"> </text><text xml:space="preserve" font-family="GillSans-SemiBold,Gill Sans" font-weight="bold" font-size="50.0" fill="#525252" transform="matrix(1.00, 0.00, -0.00, -1.00, 628.8, 498.2)">d</text><text xml:space="preserve" font-family="GillSans-SemiBold,Gill Sans" font-weight="bold" font-size="50.0" fill="#525252" transform="matrix(1.00, 0.00, -0.00, -1.00, 656.2, 498.2)">e</text><text xml:space="preserve" font-family="GillSans-SemiBold,Gill Sans" font-weight="bold" font-size="50.0" fill="#525252" transform="matrix(1.00, 0.00, -0.00, -1.00, 682.0, 498.2)"> </text><text xml:space="preserve" font-family="GillSans-SemiBold,Gill Sans" font-weight="bold" font-size="50.0" fill="#525252" transform="matrix(1.00, 0.00, -0.00, -1.00, 695.9, 498.2)">M</text><text xml:space="preserve" font-family="GillSans-SemiBold,Gill Sans" font-weight="bold" font-size="50.0" fill="#525252" transform="matrix(1.00, 0.00, -0.00, -1.00, 737.6, 498.2)">L</text><text xml:space="preserve" font-family="GillSans-SemiBold,Gill Sans" font-weight="bold" font-size="50.0" fill="#525252" transform="matrix(1.00, 0.00, -0.00, -1.00, 765.3, 498.2)"> </text><text xml:space="preserve" font-family="GillSans-SemiBold,Gill Sans" font-weight="bold" font-size="50.0" fill="#525252" transform="matrix(1.00, 0.00, -0.00, -1.00, 779.2, 498.2)">m</text><text xml:space="preserve" font-family="GillSans-SemiBold,Gill Sans" font-weight="bold" font-size="50.0" fill="#525252" transform="matrix(1.00, 0.00, -0.00, -1.00, 821.5, 498.2)">a</text><text xml:space="preserve" font-family="GillSans-SemiBold,Gill Sans" font-weight="bold" font-size="50.0" fill="#525252" transform="matrix(1.00, 0.00, -0.00, -1.00, 845.6, 498.2)">i</text><text xml:space="preserve" font-family="GillSans-SemiBold,Gill Sans" font-weight="bold" font-size="50.0" fill="#525252" transform="matrix(1.00, 0.00, -0.00, -1.00, 858.0, 498.2)">s</text><text xml:space="preserve" font-family="GillSans-SemiBold,Gill Sans" font-weight="bold" font-size="50.0" fill="#525252" transform="matrix(1.00, 0.00, -0.00, -1.00, 878.2, 498.2)"> </text><text xml:space="preserve" font-family="GillSans-SemiBold,Gill Sans" font-weight="bold" font-size="50.0" fill="#525252" transform="matrix(1.00, 0.00, -0.00, -1.00, 892.1, 498.2)">s</text><text xml:space="preserve" font-family="GillSans-SemiBold,Gill Sans" font-weight="bold" font-size="50.0" fill="#525252" transform="matrix(1.00, 0.00, -0.00, -1.00, 912.3, 498.2)">i</text><text xml:space="preserve" font-family="GillSans-SemiBold,Gill Sans" font-weight="bold" font-size="50.0" fill="#525252" transform="matrix(1.00, 0.00, -0.00, -1.00, 924.7, 498.2)">m</text><text xml:space="preserve" font-family="GillSans-SemiBold,Gill Sans" font-weight="bold" font-size="50.0" fill="#525252" transform="matrix(1.00, 0.00, -0.00, -1.00, 967.0, 498.2)">p</text><text xml:space="preserve" font-family="GillSans-SemiBold,Gill Sans" font-weight="bold" font-size="50.0" fill="#525252" transform="matrix(1.00, 0.00, -0.00, -1.00, 994.4, 498.2)">l</text><text xml:space="preserve" font-family="GillSans-SemiBold,Gill Sans" font-weight="bold" font-size="50.0" fill="#525252" transform="matrix(1.00, 0.00, -0.00, -1.00, 1006.8, 498.2)">e</text><text xml:space="preserve" font-family="GillSans-SemiBold,Gill Sans" font-weight="bold" font-size="50.0" fill="#525252" transform="matrix(1.00, 0.00, -0.00, -1.00, 1032.6, 498.2)">s</text><text xml:space="preserve" font-family="GillSans-SemiBold,Gill Sans" font-weight="bold" font-size="50.0" fill="#525252" transform="matrix(1.00, 0.00, -0.00, -1.00, 1052.8, 498.2)"> </text><text xml:space="preserve" font-family="GillSans-SemiBold,Gill Sans" font-weight="bold" font-size="41.0" fill="#525252" transform="matrix(1.00, 0.00, -0.00, -1.00, 152.4, 411.4)">•</text><text xml:space="preserve" font-family="GillSans-SemiBold,Gill Sans" font-weight="bold" font-size="50.0" fill="#525252" transform="matrix(1.00, 0.00, -0.00, -1.00, 197.8, 408.2)">A</text><text xml:space="preserve" font-family="GillSans-SemiBold,Gill Sans" font-weight="bold" font-size="50.0" fill="#525252" transform="matrix(1.00, 0.00, -0.00, -1.00, 234.1, 408.2)">p</text><text xml:space="preserve" font-family="GillSans-SemiBold,Gill Sans" font-weight="bold" font-size="50.0" fill="#525252" transform="matrix(1.00, 0.00, -0.00, -1.00, 261.5, 408.2)">r</text><text xml:space="preserve" font-family="GillSans-SemiBold,Gill Sans" font-weight="bold" font-size="50.0" fill="#525252" transform="matrix(1.00, 0.00, -0.00, -1.00, 281.4, 408.2)">e</text><text xml:space="preserve" font-family="GillSans-SemiBold,Gill Sans" font-weight="bold" font-size="50.0" fill="#525252" transform="matrix(1.00, 0.00, -0.00, -1.00, 307.2, 408.2)">s</text><text xml:space="preserve" font-family="GillSans-SemiBold,Gill Sans" font-weight="bold" font-size="50.0" fill="#525252" transform="matrix(1.00, 0.00, -0.00, -1.00, 327.4, 408.2)">e</text><text xml:space="preserve" font-family="GillSans-SemiBold,Gill Sans" font-weight="bold" font-size="50.0" fill="#525252" transform="matrix(1.00, 0.00, -0.00, -1.00, 353.2, 408.2)">n</text><text xml:space="preserve" font-family="GillSans-SemiBold,Gill Sans" font-weight="bold" font-size="50.0" fill="#525252" transform="matrix(1.00, 0.00, -0.00, -1.00, 380.3, 408.2)">t</text><text xml:space="preserve" font-family="GillSans-SemiBold,Gill Sans" font-weight="bold" font-size="50.0" fill="#525252" transform="matrix(1.00, 0.00, -0.00, -1.00, 398.7, 408.2)">a</text><text xml:space="preserve" font-family="GillSans-SemiBold,Gill Sans" font-weight="bold" font-size="50.0" fill="#525252" transform="matrix(1.00, 0.00, -0.00, -1.00, 422.9, 408.2)">m</text><text xml:space="preserve" font-family="GillSans-SemiBold,Gill Sans" font-weight="bold" font-size="50.0" fill="#525252" transform="matrix(1.00, 0.00, -0.00, -1.00, 465.2, 408.2)"> </text><text xml:space="preserve" font-family="GillSans-SemiBold,Gill Sans" font-weight="bold" font-size="50.0" fill="#525252" transform="matrix(1.00, 0.00, -0.00, -1.00, 479.1, 408.2)">u</text><text xml:space="preserve" font-family="GillSans-SemiBold,Gill Sans" font-weight="bold" font-size="50.0" fill="#525252" transform="matrix(1.00, 0.00, -0.00, -1.00, 506.1, 408.2)">m</text><text xml:space="preserve" font-family="GillSans-SemiBold,Gill Sans" font-weight="bold" font-size="50.0" fill="#525252" transform="matrix(1.00, 0.00, -0.00, -1.00, 548.4, 408.2)">a</text><text xml:space="preserve" font-family="GillSans-SemiBold,Gill Sans" font-weight="bold" font-size="50.0" fill="#525252" transform="matrix(1.00, 0.00, -0.00, -1.00, 572.5, 408.2)"> </text><text xml:space="preserve" font-family="GillSans-SemiBold,Gill Sans" font-weight="bold" font-size="50.0" fill="#525252" transform="matrix(1.00, 0.00, -0.00, -1.00, 586.4, 408.2)">f</text><text xml:space="preserve" font-family="GillSans-SemiBold,Gill Sans" font-weight="bold" font-size="50.0" fill="#525252" transform="matrix(1.00, 0.00, -0.00, -1.00, 600.0, 408.2)">o</text><text xml:space="preserve" font-family="GillSans-SemiBold,Gill Sans" font-weight="bold" font-size="50.0" fill="#525252" transform="matrix(1.00, 0.00, -0.00, -1.00, 628.7, 408.2)">r</text><text xml:space="preserve" font-family="GillSans-SemiBold,Gill Sans" font-weight="bold" font-size="50.0" fill="#525252" transform="matrix(1.00, 0.00, -0.00, -1.00, 649.6, 408.2)">m</text><text xml:space="preserve" font-family="GillSans-SemiBold,Gill Sans" font-weight="bold" font-size="50.0" fill="#525252" transform="matrix(1.00, 0.00, -0.00, -1.00, 691.9, 408.2)">a</text><text xml:space="preserve" font-family="GillSans-SemiBold,Gill Sans" font-weight="bold" font-size="50.0" fill="#525252" transform="matrix(1.00, 0.00, -0.00, -1.00, 716.1, 408.2)"> </text><text xml:space="preserve" font-family="GillSans-SemiBold,Gill Sans" font-weight="bold" font-size="50.0" fill="#525252" transform="matrix(1.00, 0.00, -0.00, -1.00, 730.0, 408.2)">d</text><text xml:space="preserve" font-family="GillSans-SemiBold,Gill Sans" font-weight="bold" font-size="50.0" fill="#525252" transform="matrix(1.00, 0.00, -0.00, -1.00, 757.3, 408.2)">e</text><text xml:space="preserve" font-family="GillSans-SemiBold,Gill Sans" font-weight="bold" font-size="50.0" fill="#525252" transform="matrix(1.00, 0.00, -0.00, -1.00, 783.2, 408.2)"> </text><text xml:space="preserve" font-family="GillSans-SemiBold,Gill Sans" font-weight="bold" font-size="50.0" fill="#525252" transform="matrix(1.00, 0.00, -0.00, -1.00, 797.0, 408.2)">c</text><text xml:space="preserve" font-family="GillSans-SemiBold,Gill Sans" font-weight="bold" font-size="50.0" fill="#525252" transform="matrix(1.00, 0.00, -0.00, -1.00, 820.1, 408.2)">l</text><text xml:space="preserve" font-family="GillSans-SemiBold,Gill Sans" font-weight="bold" font-size="50.0" fill="#525252" transform="matrix(1.00, 0.00, -0.00, -1.00, 832.5, 408.2)">a</text><text xml:space="preserve" font-family="GillSans-SemiBold,Gill Sans" font-weight="bold" font-size="50.0" fill="#525252" transform="matrix(1.00, 0.00, -0.00, -1.00, 856.6, 408.2)">s</text><text xml:space="preserve" font-family="GillSans-SemiBold,Gill Sans" font-weight="bold" font-size="50.0" fill="#525252" transform="matrix(1.00, 0.00, -0.00, -1.00, 876.8, 408.2)">s</text><text xml:space="preserve" font-family="GillSans-SemiBold,Gill Sans" font-weight="bold" font-size="50.0" fill="#525252" transform="matrix(1.00, 0.00, -0.00, -1.00, 897.0, 408.2)">i</text><text xml:space="preserve" font-family="GillSans-SemiBold,Gill Sans" font-weight="bold" font-size="50.0" fill="#525252" transform="matrix(1.00, 0.00, -0.00, -1.00, 909.4, 408.2)">ﬁ</text><text xml:space="preserve" font-family="GillSans-SemiBold,Gill Sans" font-weight="bold" font-size="50.0" fill="#525252" transform="matrix(1.00, 0.00, -0.00, -1.00, 935.9, 408.2)">c</text><text xml:space="preserve" font-family="GillSans-SemiBold,Gill Sans" font-weight="bold" font-size="50.0" fill="#525252" transform="matrix(1.00, 0.00, -0.00, -1.00, 959.0, 408.2)">a</text><text xml:space="preserve" font-family="GillSans-SemiBold,Gill Sans" font-weight="bold" font-size="50.0" fill="#525252" transform="matrix(1.00, 0.00, -0.00, -1.00, 983.1, 408.2)">ç</text><text xml:space="preserve" font-family="GillSans-SemiBold,Gill Sans" font-weight="bold" font-size="50.0" fill="#525252" transform="matrix(1.00, 0.00, -0.00, -1.00, 1006.1, 408.2)">ã</text><text xml:space="preserve" font-family="GillSans-SemiBold,Gill Sans" font-weight="bold" font-size="50.0" fill="#525252" transform="matrix(1.00, 0.00, -0.00, -1.00, 1030.3, 408.2)">o</text><text xml:space="preserve" font-family="GillSans-SemiBold,Gill Sans" font-weight="bold" font-size="50.0" fill="#525252" transform="matrix(1.00, 0.00, -0.00, -1.00, 1058.9, 408.2)"> </text><text xml:space="preserve" font-family="GillSans-SemiBold,Gill Sans" font-weight="bold" font-size="50.0" fill="#525252" transform="matrix(1.00, 0.00, -0.00, -1.00, 1072.8, 408.2)">c</text><text xml:space="preserve" font-family="GillSans-SemiBold,Gill Sans" font-weight="bold" font-size="50.0" fill="#525252" transform="matrix(1.00, 0.00, -0.00, -1.00, 1095.9, 408.2)">o</text><text xml:space="preserve" font-family="GillSans-SemiBold,Gill Sans" font-weight="bold" font-size="50.0" fill="#525252" transform="matrix(1.00, 0.00, -0.00, -1.00, 1124.5, 408.2)">m</text><text xml:space="preserve" font-family="GillSans-SemiBold,Gill Sans" font-weight="bold" font-size="50.0" fill="#525252" transform="matrix(1.00, 0.00, -0.00, -1.00, 1166.9, 408.2)">p</text><text xml:space="preserve" font-family="GillSans-SemiBold,Gill Sans" font-weight="bold" font-size="50.0" fill="#525252" transform="matrix(1.00, 0.00, -0.00, -1.00, 1194.2, 408.2)">l</text><text xml:space="preserve" font-family="GillSans-SemiBold,Gill Sans" font-weight="bold" font-size="50.0" fill="#525252" transform="matrix(1.00, 0.00, -0.00, -1.00, 1206.7, 408.2)">e</text><text xml:space="preserve" font-family="GillSans-SemiBold,Gill Sans" font-weight="bold" font-size="50.0" fill="#525252" transform="matrix(1.00, 0.00, -0.00, -1.00, 1232.5, 408.2)">t</text><text xml:space="preserve" font-family="GillSans-SemiBold,Gill Sans" font-weight="bold" font-size="50.0" fill="#525252" transform="matrix(1.00, 0.00, -0.00, -1.00, 1250.9, 408.2)">a</text><text xml:space="preserve" font-family="GillSans-SemiBold,Gill Sans" font-weight="bold" font-size="50.0" fill="#525252" transform="matrix(1.00, 0.00, -0.00, -1.00, 1275.1, 408.2)">m</text><text xml:space="preserve" font-family="GillSans-SemiBold,Gill Sans" font-weight="bold" font-size="50.0" fill="#525252" transform="matrix(1.00, 0.00, -0.00, -1.00, 1317.4, 408.2)">e</text><text xml:space="preserve" font-family="GillSans-SemiBold,Gill Sans" font-weight="bold" font-size="50.0" fill="#525252" transform="matrix(1.00, 0.00, -0.00, -1.00, 1343.2, 408.2)">n</text><text xml:space="preserve" font-family="GillSans-SemiBold,Gill Sans" font-weight="bold" font-size="50.0" fill="#525252" transform="matrix(1.00, 0.00, -0.00, -1.00, 1370.2, 408.2)">t</text><text xml:space="preserve" font-family="GillSans-SemiBold,Gill Sans" font-weight="bold" font-size="50.0" fill="#525252" transform="matrix(1.00, 0.00, -0.00, -1.00, 1388.7, 408.2)">e</text><text xml:space="preserve" font-family="GillSans-SemiBold,Gill Sans" font-weight="bold" font-size="50.0" fill="#525252" transform="matrix(1.00, 0.00, -0.00, -1.00, 1414.5, 408.2)"> </text><text xml:space="preserve" font-family="GillSans-SemiBold,Gill Sans" font-weight="bold" font-size="50.0" fill="#525252" transform="matrix(1.00, 0.00, -0.00, -1.00, 1428.4, 408.2)">t</text><text xml:space="preserve" font-family="GillSans-SemiBold,Gill Sans" font-weight="bold" font-size="50.0" fill="#525252" transform="matrix(1.00, 0.00, -0.00, -1.00, 1446.9, 408.2)">r</text><text xml:space="preserve" font-family="GillSans-SemiBold,Gill Sans" font-weight="bold" font-size="50.0" fill="#525252" transform="matrix(1.00, 0.00, -0.00, -1.00, 1467.8, 408.2)">a</text><text xml:space="preserve" font-family="GillSans-SemiBold,Gill Sans" font-weight="bold" font-size="50.0" fill="#525252" transform="matrix(1.00, 0.00, -0.00, -1.00, 1491.9, 408.2)">n</text><text xml:space="preserve" font-family="GillSans-SemiBold,Gill Sans" font-weight="bold" font-size="50.0" fill="#525252" transform="matrix(1.00, 0.00, -0.00, -1.00, 1519.0, 408.2)">s</text><text xml:space="preserve" font-family="GillSans-SemiBold,Gill Sans" font-weight="bold" font-size="50.0" fill="#525252" transform="matrix(1.00, 0.00, -0.00, -1.00, 1539.1, 408.2)">p</text><text xml:space="preserve" font-family="GillSans-SemiBold,Gill Sans" font-weight="bold" font-size="50.0" fill="#525252" transform="matrix(1.00, 0.00, -0.00, -1.00, 1566.5, 408.2)">a</text><text xml:space="preserve" font-family="GillSans-SemiBold,Gill Sans" font-weight="bold" font-size="50.0" fill="#525252" transform="matrix(1.00, 0.00, -0.00, -1.00, 1590.7, 408.2)">r</text><text xml:space="preserve" font-family="GillSans-SemiBold,Gill Sans" font-weight="bold" font-size="50.0" fill="#525252" transform="matrix(1.00, 0.00, -0.00, -1.00, 1610.6, 408.2)">e</text><text xml:space="preserve" font-family="GillSans-SemiBold,Gill Sans" font-weight="bold" font-size="50.0" fill="#525252" transform="matrix(1.00, 0.00, -0.00, -1.00, 1636.4, 408.2)">n</text><text xml:space="preserve" font-family="GillSans-SemiBold,Gill Sans" font-weight="bold" font-size="50.0" fill="#525252" transform="matrix(1.00, 0.00, -0.00, -1.00, 1663.4, 408.2)">t</text><text xml:space="preserve" font-family="GillSans-SemiBold,Gill Sans" font-weight="bold" font-size="50.0" fill="#525252" transform="matrix(1.00, 0.00, -0.00, -1.00, 1681.9, 408.2)">e</text><text xml:space="preserve" font-family="GillSans-SemiBold,Gill Sans" font-weight="bold" font-size="50.0" fill="#525252" transform="matrix(1.00, 0.00, -0.00, -1.00, 1707.7, 408.2)"> </text><text xml:space="preserve" font-family="GillSans-SemiBold,Gill Sans" font-weight="bold" font-size="41.0" fill="#525252" transform="matrix(1.00, 0.00, -0.00, -1.00, 152.4, 321.4)">•</text><text xml:space="preserve" font-family="GillSans-SemiBold,Gill Sans" font-weight="bold" font-size="50.0" fill="#525252" transform="matrix(1.00, 0.00, -0.00, -1.00, 197.8, 318.2)">A</text><text xml:space="preserve" font-family="GillSans-SemiBold,Gill Sans" font-weight="bold" font-size="50.0" fill="#525252" transform="matrix(1.00, 0.00, -0.00, -1.00, 234.1, 318.2)">p</text><text xml:space="preserve" font-family="GillSans-SemiBold,Gill Sans" font-weight="bold" font-size="50.0" fill="#525252" transform="matrix(1.00, 0.00, -0.00, -1.00, 261.5, 318.2)">ó</text><text xml:space="preserve" font-family="GillSans-SemiBold,Gill Sans" font-weight="bold" font-size="50.0" fill="#525252" transform="matrix(1.00, 0.00, -0.00, -1.00, 290.2, 318.2)">s</text><text xml:space="preserve" font-family="GillSans-SemiBold,Gill Sans" font-weight="bold" font-size="50.0" fill="#525252" transform="matrix(1.00, 0.00, -0.00, -1.00, 310.4, 318.2)"> </text><text xml:space="preserve" font-family="GillSans-SemiBold,Gill Sans" font-weight="bold" font-size="50.0" fill="#525252" transform="matrix(1.00, 0.00, -0.00, -1.00, 324.2, 318.2)">o</text><text xml:space="preserve" font-family="GillSans-SemiBold,Gill Sans" font-weight="bold" font-size="50.0" fill="#525252" transform="matrix(1.00, 0.00, -0.00, -1.00, 352.9, 318.2)"> </text><text xml:space="preserve" font-family="GillSans-SemiBold,Gill Sans" font-weight="bold" font-size="50.0" fill="#525252" transform="matrix(1.00, 0.00, -0.00, -1.00, 366.8, 318.2)">t</text><text xml:space="preserve" font-family="GillSans-SemiBold,Gill Sans" font-weight="bold" font-size="50.0" fill="#525252" transform="matrix(1.00, 0.00, -0.00, -1.00, 385.3, 318.2)">r</text><text xml:space="preserve" font-family="GillSans-SemiBold,Gill Sans" font-weight="bold" font-size="50.0" fill="#525252" transform="matrix(1.00, 0.00, -0.00, -1.00, 405.1, 318.2)">e</text><text xml:space="preserve" font-family="GillSans-SemiBold,Gill Sans" font-weight="bold" font-size="50.0" fill="#525252" transform="matrix(1.00, 0.00, -0.00, -1.00, 431.0, 318.2)">i</text><text xml:space="preserve" font-family="GillSans-SemiBold,Gill Sans" font-weight="bold" font-size="50.0" fill="#525252" transform="matrix(1.00, 0.00, -0.00, -1.00, 443.4, 318.2)">n</text><text xml:space="preserve" font-family="GillSans-SemiBold,Gill Sans" font-weight="bold" font-size="50.0" fill="#525252" transform="matrix(1.00, 0.00, -0.00, -1.00, 470.4, 318.2)">a</text><text xml:space="preserve" font-family="GillSans-SemiBold,Gill Sans" font-weight="bold" font-size="50.0" fill="#525252" transform="matrix(1.00, 0.00, -0.00, -1.00, 494.6, 318.2)">m</text><text xml:space="preserve" font-family="GillSans-SemiBold,Gill Sans" font-weight="bold" font-size="50.0" fill="#525252" transform="matrix(1.00, 0.00, -0.00, -1.00, 536.9, 318.2)">e</text><text xml:space="preserve" font-family="GillSans-SemiBold,Gill Sans" font-weight="bold" font-size="50.0" fill="#525252" transform="matrix(1.00, 0.00, -0.00, -1.00, 562.7, 318.2)">n</text><text xml:space="preserve" font-family="GillSans-SemiBold,Gill Sans" font-weight="bold" font-size="50.0" fill="#525252" transform="matrix(1.00, 0.00, -0.00, -1.00, 589.7, 318.2)">t</text><text xml:space="preserve" font-family="GillSans-SemiBold,Gill Sans" font-weight="bold" font-size="50.0" fill="#525252" transform="matrix(1.00, 0.00, -0.00, -1.00, 608.2, 318.2)">o</text><text xml:space="preserve" font-family="GillSans-SemiBold,Gill Sans" font-weight="bold" font-size="50.0" fill="#525252" transform="matrix(1.00, 0.00, -0.00, -1.00, 636.9, 318.2)">,</text><text xml:space="preserve" font-family="GillSans-SemiBold,Gill Sans" font-weight="bold" font-size="50.0" fill="#525252" transform="matrix(1.00, 0.00, -0.00, -1.00, 649.2, 318.2)"> </text><text xml:space="preserve" font-family="GillSans-SemiBold,Gill Sans" font-weight="bold" font-size="50.0" fill="#525252" transform="matrix(1.00, 0.00, -0.00, -1.00, 663.1, 318.2)">r</text><text xml:space="preserve" font-family="GillSans-SemiBold,Gill Sans" font-weight="bold" font-size="50.0" fill="#525252" transform="matrix(1.00, 0.00, -0.00, -1.00, 683.0, 318.2)">e</text><text xml:space="preserve" font-family="GillSans-SemiBold,Gill Sans" font-weight="bold" font-size="50.0" fill="#525252" transform="matrix(1.00, 0.00, -0.00, -1.00, 708.8, 318.2)">s</text><text xml:space="preserve" font-family="GillSans-SemiBold,Gill Sans" font-weight="bold" font-size="50.0" fill="#525252" transform="matrix(1.00, 0.00, -0.00, -1.00, 728.9, 318.2)">u</text><text xml:space="preserve" font-family="GillSans-SemiBold,Gill Sans" font-weight="bold" font-size="50.0" fill="#525252" transform="matrix(1.00, 0.00, -0.00, -1.00, 755.9, 318.2)">m</text><text xml:space="preserve" font-family="GillSans-SemiBold,Gill Sans" font-weight="bold" font-size="50.0" fill="#525252" transform="matrix(1.00, 0.00, -0.00, -1.00, 798.3, 318.2)">e</text><text xml:space="preserve" font-family="GillSans-SemiBold,Gill Sans" font-weight="bold" font-size="50.0" fill="#525252" transform="matrix(1.00, 0.00, -0.00, -1.00, 824.1, 318.2)">m</text><text xml:space="preserve" font-family="GillSans-SemiBold,Gill Sans" font-weight="bold" font-size="50.0" fill="#525252" transform="matrix(1.00, 0.00, -0.00, -1.00, 866.4, 318.2)">-</text><text xml:space="preserve" font-family="GillSans-SemiBold,Gill Sans" font-weight="bold" font-size="50.0" fill="#525252" transform="matrix(1.00, 0.00, -0.00, -1.00, 883.9, 318.2)">s</text><text xml:space="preserve" font-family="GillSans-SemiBold,Gill Sans" font-weight="bold" font-size="50.0" fill="#525252" transform="matrix(1.00, 0.00, -0.00, -1.00, 904.0, 318.2)">e</text><text xml:space="preserve" font-family="GillSans-SemiBold,Gill Sans" font-weight="bold" font-size="50.0" fill="#525252" transform="matrix(1.00, 0.00, -0.00, -1.00, 929.8, 318.2)"> </text><text xml:space="preserve" font-family="GillSans-SemiBold,Gill Sans" font-weight="bold" font-size="50.0" fill="#525252" transform="matrix(1.00, 0.00, -0.00, -1.00, 943.7, 318.2)">a</text><text xml:space="preserve" font-family="GillSans-SemiBold,Gill Sans" font-weight="bold" font-size="50.0" fill="#525252" transform="matrix(1.00, 0.00, -0.00, -1.00, 967.9, 318.2)"> </text><text xml:space="preserve" font-family="GillSans-SemiBold,Gill Sans" font-weight="bold" font-size="50.0" fill="#525252" transform="matrix(1.00, 0.00, -0.00, -1.00, 981.8, 318.2)">e</text><text xml:space="preserve" font-family="GillSans-SemiBold,Gill Sans" font-weight="bold" font-size="50.0" fill="#525252" transform="matrix(1.00, 0.00, -0.00, -1.00, 1007.6, 318.2)">x</text><text xml:space="preserve" font-family="GillSans-SemiBold,Gill Sans" font-weight="bold" font-size="50.0" fill="#525252" transform="matrix(1.00, 0.00, -0.00, -1.00, 1034.0, 318.2)">p</text><text xml:space="preserve" font-family="GillSans-SemiBold,Gill Sans" font-weight="bold" font-size="50.0" fill="#525252" transform="matrix(1.00, 0.00, -0.00, -1.00, 1061.4, 318.2)">r</text><text xml:space="preserve" font-family="GillSans-SemiBold,Gill Sans" font-weight="bold" font-size="50.0" fill="#525252" transform="matrix(1.00, 0.00, -0.00, -1.00, 1081.3, 318.2)">e</text><text xml:space="preserve" font-family="GillSans-SemiBold,Gill Sans" font-weight="bold" font-size="50.0" fill="#525252" transform="matrix(1.00, 0.00, -0.00, -1.00, 1107.1, 318.2)">s</text><text xml:space="preserve" font-family="GillSans-SemiBold,Gill Sans" font-weight="bold" font-size="50.0" fill="#525252" transform="matrix(1.00, 0.00, -0.00, -1.00, 1127.3, 318.2)">s</text><text xml:space="preserve" font-family="GillSans-SemiBold,Gill Sans" font-weight="bold" font-size="50.0" fill="#525252" transform="matrix(1.00, 0.00, -0.00, -1.00, 1147.4, 318.2)">õ</text><text xml:space="preserve" font-family="GillSans-SemiBold,Gill Sans" font-weight="bold" font-size="50.0" fill="#525252" transform="matrix(1.00, 0.00, -0.00, -1.00, 1176.1, 318.2)">e</text><text xml:space="preserve" font-family="GillSans-SemiBold,Gill Sans" font-weight="bold" font-size="50.0" fill="#525252" transform="matrix(1.00, 0.00, -0.00, -1.00, 1201.9, 318.2)">s</text><text xml:space="preserve" font-family="GillSans-SemiBold,Gill Sans" font-weight="bold" font-size="50.0" fill="#525252" transform="matrix(1.00, 0.00, -0.00, -1.00, 1222.1, 318.2)"> </text><text xml:space="preserve" font-family="GillSans-SemiBold,Gill Sans" font-weight="bold" font-size="50.0" fill="#525252" transform="matrix(1.00, 0.00, -0.00, -1.00, 1236.0, 318.2)">i</text><text xml:space="preserve" font-family="GillSans-SemiBold,Gill Sans" font-weight="bold" font-size="50.0" fill="#525252" transform="matrix(1.00, 0.00, -0.00, -1.00, 1248.4, 318.2)">f</text><text xml:space="preserve" font-family="GillSans-SemiBold,Gill Sans" font-weight="bold" font-size="50.0" fill="#525252" transform="matrix(1.00, 0.00, -0.00, -1.00, 1262.0, 318.2)">-</text><text xml:space="preserve" font-family="GillSans-SemiBold,Gill Sans" font-weight="bold" font-size="50.0" fill="#525252" transform="matrix(1.00, 0.00, -0.00, -1.00, 1278.5, 318.2)">t</text><text xml:space="preserve" font-family="GillSans-SemiBold,Gill Sans" font-weight="bold" font-size="50.0" fill="#525252" transform="matrix(1.00, 0.00, -0.00, -1.00, 1297.0, 318.2)">h</text><text xml:space="preserve" font-family="GillSans-SemiBold,Gill Sans" font-weight="bold" font-size="50.0" fill="#525252" transform="matrix(1.00, 0.00, -0.00, -1.00, 1324.0, 318.2)">e</text><text xml:space="preserve" font-family="GillSans-SemiBold,Gill Sans" font-weight="bold" font-size="50.0" fill="#525252" transform="matrix(1.00, 0.00, -0.00, -1.00, 1349.8, 318.2)">n</text><text xml:space="preserve" font-family="GillSans-SemiBold,Gill Sans" font-weight="bold" font-size="50.0" fill="#525252" transform="matrix(1.00, 0.00, -0.00, -1.00, 1376.9, 318.2)"> </text><text xml:space="preserve" font-family="GillSans-SemiBold,Gill Sans" font-weight="bold" font-size="50.0" fill="#525252" transform="matrix(1.00, 0.00, -0.00, -1.00, 1390.8, 318.2)">e</text><text xml:space="preserve" font-family="GillSans-SemiBold,Gill Sans" font-weight="bold" font-size="50.0" fill="#525252" transform="matrix(1.00, 0.00, -0.00, -1.00, 1416.6, 318.2)">m</text><text xml:space="preserve" font-family="GillSans-SemiBold,Gill Sans" font-weight="bold" font-size="50.0" fill="#525252" transform="matrix(1.00, 0.00, -0.00, -1.00, 1458.9, 318.2)"> </text><text xml:space="preserve" font-family="GillSans-SemiBold,Gill Sans" font-weight="bold" font-size="50.0" fill="#525252" transform="matrix(1.00, 0.00, -0.00, -1.00, 1472.8, 318.2)">f</text><text xml:space="preserve" font-family="GillSans-SemiBold,Gill Sans" font-weight="bold" font-size="50.0" fill="#525252" transform="matrix(1.00, 0.00, -0.00, -1.00, 1486.4, 318.2)">o</text><text xml:space="preserve" font-family="GillSans-SemiBold,Gill Sans" font-weight="bold" font-size="50.0" fill="#525252" transform="matrix(1.00, 0.00, -0.00, -1.00, 1515.1, 318.2)">r</text><text xml:space="preserve" font-family="GillSans-SemiBold,Gill Sans" font-weight="bold" font-size="50.0" fill="#525252" transform="matrix(1.00, 0.00, -0.00, -1.00, 1536.0, 318.2)">m</text><text xml:space="preserve" font-family="GillSans-SemiBold,Gill Sans" font-weight="bold" font-size="50.0" fill="#525252" transform="matrix(1.00, 0.00, -0.00, -1.00, 1578.3, 318.2)">a</text><text xml:space="preserve" font-family="GillSans-SemiBold,Gill Sans" font-weight="bold" font-size="50.0" fill="#525252" transform="matrix(1.00, 0.00, -0.00, -1.00, 1602.4, 318.2)"> </text><text xml:space="preserve" font-family="GillSans-SemiBold,Gill Sans" font-weight="bold" font-size="50.0" fill="#525252" transform="matrix(1.00, 0.00, -0.00, -1.00, 1616.3, 318.2)">d</text><text xml:space="preserve" font-family="GillSans-SemiBold,Gill Sans" font-weight="bold" font-size="50.0" fill="#525252" transform="matrix(1.00, 0.00, -0.00, -1.00, 1643.7, 318.2)">e</text><text xml:space="preserve" font-family="GillSans-SemiBold,Gill Sans" font-weight="bold" font-size="50.0" fill="#525252" transform="matrix(1.00, 0.00, -0.00, -1.00, 1669.5, 318.2)"> </text><text xml:space="preserve" font-family="GillSans-SemiBold,Gill Sans" font-weight="bold" font-size="50.0" fill="#525252" transform="matrix(1.00, 0.00, -0.00, -1.00, 1683.4, 318.2)">á</text><text xml:space="preserve" font-family="GillSans-SemiBold,Gill Sans" font-weight="bold" font-size="50.0" fill="#525252" transform="matrix(1.00, 0.00, -0.00, -1.00, 1707.5, 318.2)">r</text><text xml:space="preserve" font-family="GillSans-SemiBold,Gill Sans" font-weight="bold" font-size="50.0" fill="#525252" transform="matrix(1.00, 0.00, -0.00, -1.00, 1728.4, 318.2)">v</text><text xml:space="preserve" font-family="GillSans-SemiBold,Gill Sans" font-weight="bold" font-size="50.0" fill="#525252" transform="matrix(1.00, 0.00, -0.00, -1.00, 1752.3, 318.2)">o</text><text xml:space="preserve" font-family="GillSans-SemiBold,Gill Sans" font-weight="bold" font-size="50.0" fill="#525252" transform="matrix(1.00, 0.00, -0.00, -1.00, 1781.0, 318.2)">r</text><text xml:space="preserve" font-family="GillSans-SemiBold,Gill Sans" font-weight="bold" font-size="50.0" fill="#525252" transform="matrix(1.00, 0.00, -0.00, -1.00, 1800.9, 318.2)">e</text><path d="M 122.0 890.0 L 873.0 890.0 L 873.0 815.0 L 122.0 815.0 Z M 122.0 890.2 " fill="#78889F"></path><g><clipPath id="clip0x6080010af9c0"><path d="M 111.1 807.2 L 883.7 807.2 L 883.7 897.1 L 111.1 897.1 Z M 111.1 807.2 "></path></clipPath><g clip-path="url(#clip0x6080010af9c0)"><text xml:space="preserve" font-family="GillSans-SemiBold,Gill Sans" font-weight="bold" font-size="50.0" fill="#FEFFFF" transform="matrix(1.00, 0.00, -0.00, -1.00, 144.0, 834.7)">Á</text><text xml:space="preserve" font-family="GillSans-SemiBold,Gill Sans" font-weight="bold" font-size="50.0" fill="#FEFFFF" transform="matrix(1.00, 0.00, -0.00, -1.00, 180.4, 834.7)">r</text><text xml:space="preserve" font-family="GillSans-SemiBold,Gill Sans" font-weight="bold" font-size="50.0" fill="#FEFFFF" transform="matrix(1.00, 0.00, -0.00, -1.00, 201.2, 834.7)">v</text><text xml:space="preserve" font-family="GillSans-SemiBold,Gill Sans" font-weight="bold" font-size="50.0" fill="#FEFFFF" transform="matrix(1.00, 0.00, -0.00, -1.00, 225.1, 834.7)">o</text><text xml:space="preserve" font-family="GillSans-SemiBold,Gill Sans" font-weight="bold" font-size="50.0" fill="#FEFFFF" transform="matrix(1.00, 0.00, -0.00, -1.00, 253.8, 834.7)">r</text><text xml:space="preserve" font-family="GillSans-SemiBold,Gill Sans" font-weight="bold" font-size="50.0" fill="#FEFFFF" transform="matrix(1.00, 0.00, -0.00, -1.00, 273.7, 834.7)">e</text><text xml:space="preserve" font-family="GillSans-SemiBold,Gill Sans" font-weight="bold" font-size="50.0" fill="#FEFFFF" transform="matrix(1.00, 0.00, -0.00, -1.00, 299.5, 834.7)">s</text><text xml:space="preserve" font-family="GillSans-SemiBold,Gill Sans" font-weight="bold" font-size="50.0" fill="#FEFFFF" transform="matrix(1.00, 0.00, -0.00, -1.00, 319.7, 834.7)"> </text><text xml:space="preserve" font-family="GillSans-SemiBold,Gill Sans" font-weight="bold" font-size="50.0" fill="#FEFFFF" transform="matrix(1.00, 0.00, -0.00, -1.00, 333.5, 834.7)">d</text><text xml:space="preserve" font-family="GillSans-SemiBold,Gill Sans" font-weight="bold" font-size="50.0" fill="#FEFFFF" transform="matrix(1.00, 0.00, -0.00, -1.00, 360.9, 834.7)">e</text><text xml:space="preserve" font-family="GillSans-SemiBold,Gill Sans" font-weight="bold" font-size="50.0" fill="#FEFFFF" transform="matrix(1.00, 0.00, -0.00, -1.00, 386.7, 834.7)"> </text><text xml:space="preserve" font-family="GillSans-SemiBold,Gill Sans" font-weight="bold" font-size="50.0" fill="#FEFFFF" transform="matrix(1.00, 0.00, -0.00, -1.00, 400.6, 834.7)">D</text><text xml:space="preserve" font-family="GillSans-SemiBold,Gill Sans" font-weight="bold" font-size="50.0" fill="#FEFFFF" transform="matrix(1.00, 0.00, -0.00, -1.00, 439.3, 834.7)">e</text><text xml:space="preserve" font-family="GillSans-SemiBold,Gill Sans" font-weight="bold" font-size="50.0" fill="#FEFFFF" transform="matrix(1.00, 0.00, -0.00, -1.00, 465.1, 834.7)">c</text><text xml:space="preserve" font-family="GillSans-SemiBold,Gill Sans" font-weight="bold" font-size="50.0" fill="#FEFFFF" transform="matrix(1.00, 0.00, -0.00, -1.00, 488.1, 834.7)">i</text><text xml:space="preserve" font-family="GillSans-SemiBold,Gill Sans" font-weight="bold" font-size="50.0" fill="#FEFFFF" transform="matrix(1.00, 0.00, -0.00, -1.00, 500.5, 834.7)">s</text><text xml:space="preserve" font-family="GillSans-SemiBold,Gill Sans" font-weight="bold" font-size="50.0" fill="#FEFFFF" transform="matrix(1.00, 0.00, -0.00, -1.00, 520.7, 834.7)">ã</text><text xml:space="preserve" font-family="GillSans-SemiBold,Gill Sans" font-weight="bold" font-size="50.0" fill="#FEFFFF" transform="matrix(1.00, 0.00, -0.00, -1.00, 544.8, 834.7)">o</text></g></g><path d="M 48.0 1023.0 L 829.0 1023.0 L 829.0 876.0 L 48.0 876.0 Z M 47.8 1023.3 " fill="#AA1802"></path><g><clipPath id="clip0x6080010b0320"><path d="M 36.9 876.2 L 839.7 876.2 L 839.7 1023.3 L 36.9 1023.3 Z M 36.9 876.2 "></path></clipPath><g clip-path="url(#clip0x6080010b0320)"><text xml:space="preserve" font-family="GillSans-SemiBold,Gill Sans" font-weight="bold" font-size="50.0" fill="#FEFFFF" transform="matrix(1.00, 0.00, -0.00, -1.00, 87.8, 931.8)">1</text><text xml:space="preserve" font-family="GillSans-SemiBold,Gill Sans" font-weight="bold" font-size="50.0" fill="#FEFFFF" transform="matrix(1.00, 0.00, -0.00, -1.00, 114.2, 931.8)">.</text><text xml:space="preserve" font-family="GillSans-SemiBold,Gill Sans" font-weight="bold" font-size="50.0" fill="#FEFFFF" transform="matrix(1.00, 0.00, -0.00, -1.00, 126.5, 931.8)"> </text><text xml:space="preserve" font-family="GillSans-SemiBold,Gill Sans" font-weight="bold" font-size="50.0" fill="#FEFFFF" transform="matrix(1.00, 0.00, -0.00, -1.00, 140.4, 931.8)">M</text><text xml:space="preserve" font-family="GillSans-SemiBold,Gill Sans" font-weight="bold" font-size="50.0" fill="#FEFFFF" transform="matrix(1.00, 0.00, -0.00, -1.00, 182.2, 931.8)">a</text><text xml:space="preserve" font-family="GillSans-SemiBold,Gill Sans" font-weight="bold" font-size="50.0" fill="#FEFFFF" transform="matrix(1.00, 0.00, -0.00, -1.00, 206.3, 931.8)">c</text><text xml:space="preserve" font-family="GillSans-SemiBold,Gill Sans" font-weight="bold" font-size="50.0" fill="#FEFFFF" transform="matrix(1.00, 0.00, -0.00, -1.00, 229.3, 931.8)">h</text><text xml:space="preserve" font-family="GillSans-SemiBold,Gill Sans" font-weight="bold" font-size="50.0" fill="#FEFFFF" transform="matrix(1.00, 0.00, -0.00, -1.00, 256.4, 931.8)">i</text><text xml:space="preserve" font-family="GillSans-SemiBold,Gill Sans" font-weight="bold" font-size="50.0" fill="#FEFFFF" transform="matrix(1.00, 0.00, -0.00, -1.00, 268.8, 931.8)">n</text><text xml:space="preserve" font-family="GillSans-SemiBold,Gill Sans" font-weight="bold" font-size="50.0" fill="#FEFFFF" transform="matrix(1.00, 0.00, -0.00, -1.00, 295.8, 931.8)">e</text><text xml:space="preserve" font-family="GillSans-SemiBold,Gill Sans" font-weight="bold" font-size="50.0" fill="#FEFFFF" transform="matrix(1.00, 0.00, -0.00, -1.00, 321.7, 931.8)"> </text><text xml:space="preserve" font-family="GillSans-SemiBold,Gill Sans" font-weight="bold" font-size="50.0" fill="#FEFFFF" transform="matrix(1.00, 0.00, -0.00, -1.00, 335.5, 931.8)">L</text><text xml:space="preserve" font-family="GillSans-SemiBold,Gill Sans" font-weight="bold" font-size="50.0" fill="#FEFFFF" transform="matrix(1.00, 0.00, -0.00, -1.00, 363.2, 931.8)">e</text><text xml:space="preserve" font-family="GillSans-SemiBold,Gill Sans" font-weight="bold" font-size="50.0" fill="#FEFFFF" transform="matrix(1.00, 0.00, -0.00, -1.00, 389.0, 931.8)">a</text><text xml:space="preserve" font-family="GillSans-SemiBold,Gill Sans" font-weight="bold" font-size="50.0" fill="#FEFFFF" transform="matrix(1.00, 0.00, -0.00, -1.00, 413.2, 931.8)">r</text><text xml:space="preserve" font-family="GillSans-SemiBold,Gill Sans" font-weight="bold" font-size="50.0" fill="#FEFFFF" transform="matrix(1.00, 0.00, -0.00, -1.00, 434.1, 931.8)">n</text><text xml:space="preserve" font-family="GillSans-SemiBold,Gill Sans" font-weight="bold" font-size="50.0" fill="#FEFFFF" transform="matrix(1.00, 0.00, -0.00, -1.00, 461.1, 931.8)">i</text><text xml:space="preserve" font-family="GillSans-SemiBold,Gill Sans" font-weight="bold" font-size="50.0" fill="#FEFFFF" transform="matrix(1.00, 0.00, -0.00, -1.00, 473.5, 931.8)">n</text><text xml:space="preserve" font-family="GillSans-SemiBold,Gill Sans" font-weight="bold" font-size="50.0" fill="#FEFFFF" transform="matrix(1.00, 0.00, -0.00, -1.00, 500.6, 931.8)">g</text></g></g></g></svg>