<?xml version="1.0" encoding="UTF-8" standalone="no"?><svg xmlns="http://www.w3.org/2000/svg" xmlns:xlink="http://www.w3.org/1999/xlink" clip-rule="evenodd" stroke-miterlimit="10" viewBox="0 0 1304 145"><desc>SVG generated by Keynote</desc><defs></defs><g transform="matrix(1.00, 0.00, -0.00, -1.00, 0.0, 145.0)"><path d="M 1.0 144.0 L 1303.0 144.0 L 1303.0 1.0 L 1.0 1.0 Z M 1.2 144.0 " fill="#AA1802"></path><g><clipPath id="clip0x600000cadec0"><path d="M -9.8 1.0 L 1313.5 1.0 L 1313.5 144.0 L -9.8 144.0 Z M -9.8 1.0 "></path></clipPath><g clip-path="url(#clip0x600000cadec0)"><text xml:space="preserve" font-family="GillSans-SemiBold,Gill Sans" font-weight="bold" font-size="50.0" fill="#FEFFFF" transform="matrix(1.00, 0.00, -0.00, -1.00, 343.2, 54.5)">A</text><text xml:space="preserve" font-family="GillSans-SemiBold,Gill Sans" font-weight="bold" font-size="50.0" fill="#FEFFFF" transform="matrix(1.00, 0.00, -0.00, -1.00, 379.6, 54.5)">u</text><text xml:space="preserve" font-family="GillSans-SemiBold,Gill Sans" font-weight="bold" font-size="50.0" fill="#FEFFFF" transform="matrix(1.00, 0.00, -0.00, -1.00, 406.6, 54.5)">d</text><text xml:space="preserve" font-family="GillSans-SemiBold,Gill Sans" font-weight="bold" font-size="50.0" fill="#FEFFFF" transform="matrix(1.00, 0.00, -0.00, -1.00, 434.0, 54.5)">i</text><text xml:space="preserve" font-family="GillSans-SemiBold,Gill Sans" font-weight="bold" font-size="50.0" fill="#FEFFFF" transform="matrix(1.00, 0.00, -0.00, -1.00, 446.4, 54.5)">t</text><text xml:space="preserve" font-family="GillSans-SemiBold,Gill Sans" font-weight="bold" font-size="50.0" fill="#FEFFFF" transform="matrix(1.00, 0.00, -0.00, -1.00, 464.8, 54.5)">o</text><text xml:space="preserve" font-family="GillSans-SemiBold,Gill Sans" font-weight="bold" font-size="50.0" fill="#FEFFFF" transform="matrix(1.00, 0.00, -0.00, -1.00, 493.5, 54.5)">r</text><text xml:space="preserve" font-family="GillSans-SemiBold,Gill Sans" font-weight="bold" font-size="50.0" fill="#FEFFFF" transform="matrix(1.00, 0.00, -0.00, -1.00, 514.4, 54.5)">i</text><text xml:space="preserve" font-family="GillSans-SemiBold,Gill Sans" font-weight="bold" font-size="50.0" fill="#FEFFFF" transform="matrix(1.00, 0.00, -0.00, -1.00, 526.8, 54.5)">o</text><text xml:space="preserve" font-family="GillSans-SemiBold,Gill Sans" font-weight="bold" font-size="50.0" fill="#FEFFFF" transform="matrix(1.00, 0.00, -0.00, -1.00, 555.5, 54.5)"> </text><text xml:space="preserve" font-family="GillSans-SemiBold,Gill Sans" font-weight="bold" font-size="50.0" fill="#FEFFFF" transform="matrix(1.00, 0.00, -0.00, -1.00, 569.3, 54.5)">d</text><text xml:space="preserve" font-family="GillSans-SemiBold,Gill Sans" font-weight="bold" font-size="50.0" fill="#FEFFFF" transform="matrix(1.00, 0.00, -0.00, -1.00, 596.7, 54.5)">a</text><text xml:space="preserve" font-family="GillSans-SemiBold,Gill Sans" font-weight="bold" font-size="50.0" fill="#FEFFFF" transform="matrix(1.00, 0.00, -0.00, -1.00, 620.9, 54.5)"> </text><text xml:space="preserve" font-family="GillSans-SemiBold,Gill Sans" font-weight="bold" font-size="50.0" fill="#FEFFFF" transform="matrix(1.00, 0.00, -0.00, -1.00, 634.8, 54.5)">S</text><text xml:space="preserve" font-family="GillSans-SemiBold,Gill Sans" font-weight="bold" font-size="50.0" fill="#FEFFFF" transform="matrix(1.00, 0.00, -0.00, -1.00, 661.5, 54.5)">I</text><text xml:space="preserve" font-family="GillSans-SemiBold,Gill Sans" font-weight="bold" font-size="50.0" fill="#FEFFFF" transform="matrix(1.00, 0.00, -0.00, -1.00, 675.9, 54.5)">S</text><text xml:space="preserve" font-family="GillSans-SemiBold,Gill Sans" font-weight="bold" font-size="50.0" fill="#FEFFFF" transform="matrix(1.00, 0.00, -0.00, -1.00, 701.6, 54.5)">T</text><text xml:space="preserve" font-family="GillSans-SemiBold,Gill Sans" font-weight="bold" font-size="50.0" fill="#FEFFFF" transform="matrix(1.00, 0.00, -0.00, -1.00, 734.9, 54.5)">E</text><text xml:space="preserve" font-family="GillSans-SemiBold,Gill Sans" font-weight="bold" font-size="50.0" fill="#FEFFFF" transform="matrix(1.00, 0.00, -0.00, -1.00, 763.4, 54.5)">C</text><text xml:space="preserve" font-family="GillSans-SemiBold,Gill Sans" font-weight="bold" font-size="50.0" fill="#FEFFFF" transform="matrix(1.00, 0.00, -0.00, -1.00, 799.7, 54.5)">,</text><text xml:space="preserve" font-family="GillSans-SemiBold,Gill Sans" font-weight="bold" font-size="50.0" fill="#FEFFFF" transform="matrix(1.00, 0.00, -0.00, -1.00, 812.0, 54.5)"> </text><text xml:space="preserve" font-family="GillSans-SemiBold,Gill Sans" font-weight="bold" font-size="50.0" fill="#FEFFFF" transform="matrix(1.00, 0.00, -0.00, -1.00, 825.9, 54.5)">1</text><text xml:space="preserve" font-family="GillSans-SemiBold,Gill Sans" font-weight="bold" font-size="50.0" fill="#FEFFFF" transform="matrix(1.00, 0.00, -0.00, -1.00, 852.3, 54.5)">7</text><text xml:space="preserve" font-family="GillSans-SemiBold,Gill Sans" font-weight="bold" font-size="50.0" fill="#FEFFFF" transform="matrix(1.00, 0.00, -0.00, -1.00, 878.7, 54.5)"> </text><text xml:space="preserve" font-family="GillSans-SemiBold,Gill Sans" font-weight="bold" font-size="50.0" fill="#FEFFFF" transform="matrix(1.00, 0.00, -0.00, -1.00, 892.5, 54.5)">d</text><text xml:space="preserve" font-family="GillSans-SemiBold,Gill Sans" font-weight="bold" font-size="50.0" fill="#FEFFFF" transform="matrix(1.00, 0.00, -0.00, -1.00, 919.9, 54.5)">e</text><text xml:space="preserve" font-family="GillSans-SemiBold,Gill Sans" font-weight="bold" font-size="50.0" fill="#FEFFFF" transform="matrix(1.00, 0.00, -0.00, -1.00, 945.7, 54.5)"> </text><text xml:space="preserve" font-family="GillSans-SemiBold,Gill Sans" font-weight="bold" font-size="50.0" fill="#FEFFFF" transform="matrix(1.00, 0.00, -0.00, -1.00, 959.6, 54.5)">J</text><text xml:space="preserve" font-family="GillSans-SemiBold,Gill Sans" font-weight="bold" font-size="50.0" fill="#FEFFFF" transform="matrix(1.00, 0.00, -0.00, -1.00, 974.0, 54.5)">a</text><text xml:space="preserve" font-family="GillSans-SemiBold,Gill Sans" font-weight="bold" font-size="50.0" fill="#FEFFFF" transform="matrix(1.00, 0.00, -0.00, -1.00, 998.2, 54.5)">n</text><text xml:space="preserve" font-family="GillSans-SemiBold,Gill Sans" font-weight="bold" font-size="50.0" fill="#FEFFFF" transform="matrix(1.00, 0.00, -0.00, -1.00, 1025.2, 54.5)">e</text><text xml:space="preserve" font-family="GillSans-SemiBold,Gill Sans" font-weight="bold" font-size="50.0" fill="#FEFFFF" transform="matrix(1.00, 0.00, -0.00, -1.00, 1051.0, 54.5)">i</text><text xml:space="preserve" font-family="GillSans-SemiBold,Gill Sans" font-weight="bold" font-size="50.0" fill="#FEFFFF" transform="matrix(1.00, 0.00, -0.00, -1.00, 1063.4, 54.5)">r</text><text xml:space="preserve" font-family="GillSans-SemiBold,Gill Sans" font-weight="bold" font-size="50.0" fill="#FEFFFF" transform="matrix(1.00, 0.00, -0.00, -1.00, 1083.3, 54.5)">o</text><text xml:space="preserve" font-family="GillSans-SemiBold,Gill Sans" font-weight="bold" font-size="50.0" fill="#FEFFFF" transform="matrix(1.00, 0.00, -0.00, -1.00, 1112.0, 54.5)"> </text><text xml:space="preserve" font-family="GillSans-SemiBold,Gill Sans" font-weight="bold" font-size="50.0" fill="#FEFFFF" transform="matrix(1.00, 0.00, -0.00, -1.00, 1125.9, 54.5)">d</text><text xml:space="preserve" font-family="GillSans-SemiBold,Gill Sans" font-weight="bold" font-size="50.0" fill="#FEFFFF" transform="matrix(1.00, 0.00, -0.00, -1.00, 1153.3, 54.5)">e</text><text xml:space="preserve" font-family="GillSans-SemiBold,Gill Sans" font-weight="bold" font-size="50.0" fill="#FEFFFF" transform="matrix(1.00, 0.00, -0.00, -1.00, 1179.1, 54.5)"> </text><text xml:space="preserve" font-family="GillSans-SemiBold,Gill Sans" font-weight="bold" font-size="50.0" fill="#FEFFFF" transform="matrix(1.00, 0.00, -0.00, -1.00, 1193.0, 54.5)">2</text><text xml:space="preserve" font-family="GillSans-SemiBold,Gill Sans" font-weight="bold" font-size="50.0" fill="#FEFFFF" transform="matrix(1.00, 0.00, -0.00, -1.00, 1219.3, 54.5)">0</text><text xml:space="preserve" font-family="GillSans-SemiBold,Gill Sans" font-weight="bold" font-size="50.0" fill="#FEFFFF" transform="matrix(1.00, 0.00, -0.00, -1.00, 1245.7, 54.5)">1</text><text xml:space="preserve" font-family="GillSans-SemiBold,Gill Sans" font-weight="bold" font-size="50.0" fill="#FEFFFF" transform="matrix(1.00, 0.00, -0.00, -1.00, 1272.1, 54.5)">5</text></g></g></g></svg>