<?xml version="1.0" encoding="UTF-8" standalone="no"?><svg xmlns="http://www.w3.org/2000/svg" xmlns:xlink="http://www.w3.org/1999/xlink" clip-rule="evenodd" stroke-miterlimit="10" viewBox="0 0 1920 1080"><desc>SVG generated by Keynote</desc><defs></defs><g transform="matrix(1.00, 0.00, -0.00, -1.00, 0.0, 1080.0)"><g><clipPath id="clip0x6000016a3360"><path d="M 0.0 1080.0 L 1920.0 1080.0 L 1920.0 0.0 L 0.0 0.0 Z M 0.0 1080.0 "></path></clipPath><g clip-path="url(#clip0x6000016a3360)"><image xlink:href="../../670AF0A5-B06C-45B2-A649-BC83FE98871A/assets/400D38DE9BD779267D8D9BA1A44336F3.jpeg" width="3840.00" height="2160.00" transform="matrix(1.00, 0.00, -0.00, -1.00, -960.0, 1620.0)"></image></g></g><path d="M 103.0 875.0 L 419.0 875.0 L 419.0 810.0 L 103.0 810.0 Z M 102.6 875.0 " fill="#78889F"></path><g><clipPath id="clip0x6080018bfc80"><path d="M 92.0 814.0 L 430.1 814.0 L 430.1 871.0 L 92.0 871.0 Z M 92.0 814.0 "></path></clipPath><g clip-path="url(#clip0x6080018bfc80)"><text xml:space="preserve" font-family="GillSans-SemiBold,Gill Sans" font-weight="bold" font-size="49.0" fill="#FEFFFF" transform="matrix(1.00, 0.00, -0.00, -1.00, 124.6, 825.3)">R</text><text xml:space="preserve" font-family="GillSans-SemiBold,Gill Sans" font-weight="bold" font-size="49.0" fill="#FEFFFF" transform="matrix(1.00, 0.00, -0.00, -1.00, 155.1, 825.3)">e</text><text xml:space="preserve" font-family="GillSans-SemiBold,Gill Sans" font-weight="bold" font-size="49.0" fill="#FEFFFF" transform="matrix(1.00, 0.00, -0.00, -1.00, 180.4, 825.3)">p</text><text xml:space="preserve" font-family="GillSans-SemiBold,Gill Sans" font-weight="bold" font-size="49.0" fill="#FEFFFF" transform="matrix(1.00, 0.00, -0.00, -1.00, 207.3, 825.3)">r</text><text xml:space="preserve" font-family="GillSans-SemiBold,Gill Sans" font-weight="bold" font-size="49.0" fill="#FEFFFF" transform="matrix(1.00, 0.00, -0.00, -1.00, 226.8, 825.3)">o</text><text xml:space="preserve" font-family="GillSans-SemiBold,Gill Sans" font-weight="bold" font-size="49.0" fill="#FEFFFF" transform="matrix(1.00, 0.00, -0.00, -1.00, 254.9, 825.3)">d</text><text xml:space="preserve" font-family="GillSans-SemiBold,Gill Sans" font-weight="bold" font-size="49.0" fill="#FEFFFF" transform="matrix(1.00, 0.00, -0.00, -1.00, 281.7, 825.3)">u</text><text xml:space="preserve" font-family="GillSans-SemiBold,Gill Sans" font-weight="bold" font-size="49.0" fill="#FEFFFF" transform="matrix(1.00, 0.00, -0.00, -1.00, 308.2, 825.3)">ç</text><text xml:space="preserve" font-family="GillSans-SemiBold,Gill Sans" font-weight="bold" font-size="49.0" fill="#FEFFFF" transform="matrix(1.00, 0.00, -0.00, -1.00, 330.8, 825.3)">ã</text><text xml:space="preserve" font-family="GillSans-SemiBold,Gill Sans" font-weight="bold" font-size="49.0" fill="#FEFFFF" transform="matrix(1.00, 0.00, -0.00, -1.00, 354.4, 825.3)">o</text></g></g><path d="M 48.0 1023.0 L 829.0 1023.0 L 829.0 876.0 L 48.0 876.0 Z M 47.8 1023.3 " fill="#AA1802"></path><g><clipPath id="clip0x608001aa0240"><path d="M 36.9 876.2 L 839.7 876.2 L 839.7 1023.3 L 36.9 1023.3 Z M 36.9 876.2 "></path></clipPath><g clip-path="url(#clip0x608001aa0240)"><text xml:space="preserve" font-family="GillSans-SemiBold,Gill Sans" font-weight="bold" font-size="50.0" fill="#FEFFFF" transform="matrix(1.00, 0.00, -0.00, -1.00, 87.8, 931.8)">3</text><text xml:space="preserve" font-family="GillSans-SemiBold,Gill Sans" font-weight="bold" font-size="50.0" fill="#FEFFFF" transform="matrix(1.00, 0.00, -0.00, -1.00, 114.2, 931.8)">.</text><text xml:space="preserve" font-family="GillSans-SemiBold,Gill Sans" font-weight="bold" font-size="50.0" fill="#FEFFFF" transform="matrix(1.00, 0.00, -0.00, -1.00, 126.5, 931.8)"> </text><text xml:space="preserve" font-family="GillSans-SemiBold,Gill Sans" font-weight="bold" font-size="50.0" fill="#FEFFFF" transform="matrix(1.00, 0.00, -0.00, -1.00, 140.4, 931.8)">P</text><text xml:space="preserve" font-family="GillSans-SemiBold,Gill Sans" font-weight="bold" font-size="50.0" fill="#FEFFFF" transform="matrix(1.00, 0.00, -0.00, -1.00, 169.6, 931.8)">r</text><text xml:space="preserve" font-family="GillSans-SemiBold,Gill Sans" font-weight="bold" font-size="50.0" fill="#FEFFFF" transform="matrix(1.00, 0.00, -0.00, -1.00, 189.5, 931.8)">o</text><text xml:space="preserve" font-family="GillSans-SemiBold,Gill Sans" font-weight="bold" font-size="50.0" fill="#FEFFFF" transform="matrix(1.00, 0.00, -0.00, -1.00, 218.2, 931.8)">g</text><text xml:space="preserve" font-family="GillSans-SemiBold,Gill Sans" font-weight="bold" font-size="50.0" fill="#FEFFFF" transform="matrix(1.00, 0.00, -0.00, -1.00, 242.7, 931.8)">r</text><text xml:space="preserve" font-family="GillSans-SemiBold,Gill Sans" font-weight="bold" font-size="50.0" fill="#FEFFFF" transform="matrix(1.00, 0.00, -0.00, -1.00, 263.6, 931.8)">a</text><text xml:space="preserve" font-family="GillSans-SemiBold,Gill Sans" font-weight="bold" font-size="50.0" fill="#FEFFFF" transform="matrix(1.00, 0.00, -0.00, -1.00, 287.7, 931.8)">m</text><text xml:space="preserve" font-family="GillSans-SemiBold,Gill Sans" font-weight="bold" font-size="50.0" fill="#FEFFFF" transform="matrix(1.00, 0.00, -0.00, -1.00, 330.1, 931.8)">a</text><text xml:space="preserve" font-family="GillSans-SemiBold,Gill Sans" font-weight="bold" font-size="50.0" fill="#FEFFFF" transform="matrix(1.00, 0.00, -0.00, -1.00, 354.2, 931.8)">ç</text><text xml:space="preserve" font-family="GillSans-SemiBold,Gill Sans" font-weight="bold" font-size="50.0" fill="#FEFFFF" transform="matrix(1.00, 0.00, -0.00, -1.00, 377.2, 931.8)">ã</text><text xml:space="preserve" font-family="GillSans-SemiBold,Gill Sans" font-weight="bold" font-size="50.0" fill="#FEFFFF" transform="matrix(1.00, 0.00, -0.00, -1.00, 401.4, 931.8)">o</text><text xml:space="preserve" font-family="GillSans-SemiBold,Gill Sans" font-weight="bold" font-size="50.0" fill="#FEFFFF" transform="matrix(1.00, 0.00, -0.00, -1.00, 430.1, 931.8)"> </text><text xml:space="preserve" font-family="GillSans-SemiBold,Gill Sans" font-weight="bold" font-size="50.0" fill="#FEFFFF" transform="matrix(1.00, 0.00, -0.00, -1.00, 443.9, 931.8)">G</text><text xml:space="preserve" font-family="GillSans-SemiBold,Gill Sans" font-weight="bold" font-size="50.0" fill="#FEFFFF" transform="matrix(1.00, 0.00, -0.00, -1.00, 482.1, 931.8)">e</text><text xml:space="preserve" font-family="GillSans-SemiBold,Gill Sans" font-weight="bold" font-size="50.0" fill="#FEFFFF" transform="matrix(1.00, 0.00, -0.00, -1.00, 507.9, 931.8)">n</text><text xml:space="preserve" font-family="GillSans-SemiBold,Gill Sans" font-weight="bold" font-size="50.0" fill="#FEFFFF" transform="matrix(1.00, 0.00, -0.00, -1.00, 534.9, 931.8)">é</text><text xml:space="preserve" font-family="GillSans-SemiBold,Gill Sans" font-weight="bold" font-size="50.0" fill="#FEFFFF" transform="matrix(1.00, 0.00, -0.00, -1.00, 560.7, 931.8)">t</text><text xml:space="preserve" font-family="GillSans-SemiBold,Gill Sans" font-weight="bold" font-size="50.0" fill="#FEFFFF" transform="matrix(1.00, 0.00, -0.00, -1.00, 579.2, 931.8)">i</text><text xml:space="preserve" font-family="GillSans-SemiBold,Gill Sans" font-weight="bold" font-size="50.0" fill="#FEFFFF" transform="matrix(1.00, 0.00, -0.00, -1.00, 591.6, 931.8)">c</text><text xml:space="preserve" font-family="GillSans-SemiBold,Gill Sans" font-weight="bold" font-size="50.0" fill="#FEFFFF" transform="matrix(1.00, 0.00, -0.00, -1.00, 614.6, 931.8)">a</text></g></g><text xml:space="preserve" font-family="GillSans-Light,Gill Sans" font-size="41.0" fill="#525252" transform="matrix(1.00, 0.00, -0.00, -1.00, 105.3, 427.5)">•</text><text xml:space="preserve" font-family="GillSans-Light,Gill Sans" font-size="50.0" fill="#525252" transform="matrix(1.00, 0.00, -0.00, -1.00, 150.6, 423.7)">C</text><text xml:space="preserve" font-family="GillSans-Light,Gill Sans" font-size="50.0" fill="#525252" transform="matrix(1.00, 0.00, -0.00, -1.00, 184.5, 423.7)">o</text><text xml:space="preserve" font-family="GillSans-Light,Gill Sans" font-size="50.0" fill="#525252" transform="matrix(1.00, 0.00, -0.00, -1.00, 211.6, 423.7)">n</text><text xml:space="preserve" font-family="GillSans-Light,Gill Sans" font-size="50.0" fill="#525252" transform="matrix(1.00, 0.00, -0.00, -1.00, 236.1, 423.7)">s</text><text xml:space="preserve" font-family="GillSans-Light,Gill Sans" font-size="50.0" fill="#525252" transform="matrix(1.00, 0.00, -0.00, -1.00, 253.8, 423.7)">i</text><text xml:space="preserve" font-family="GillSans-Light,Gill Sans" font-size="50.0" fill="#525252" transform="matrix(1.00, 0.00, -0.00, -1.00, 263.2, 423.7)">s</text><text xml:space="preserve" font-family="GillSans-Light,Gill Sans" font-size="50.0" fill="#525252" transform="matrix(1.00, 0.00, -0.00, -1.00, 280.9, 423.7)">t</text><text xml:space="preserve" font-family="GillSans-Light,Gill Sans" font-size="50.0" fill="#525252" transform="matrix(1.00, 0.00, -0.00, -1.00, 296.0, 423.7)">e</text><text xml:space="preserve" font-family="GillSans-Light,Gill Sans" font-size="50.0" fill="#525252" transform="matrix(1.00, 0.00, -0.00, -1.00, 319.9, 423.7)"> </text><text xml:space="preserve" font-family="GillSans-Light,Gill Sans" font-size="50.0" fill="#525252" transform="matrix(1.00, 0.00, -0.00, -1.00, 333.8, 423.7)">n</text><text xml:space="preserve" font-family="GillSans-Light,Gill Sans" font-size="50.0" fill="#525252" transform="matrix(1.00, 0.00, -0.00, -1.00, 358.3, 423.7)">a</text><text xml:space="preserve" font-family="GillSans-Light,Gill Sans" font-size="50.0" fill="#525252" transform="matrix(1.00, 0.00, -0.00, -1.00, 379.6, 423.7)"> </text><text xml:space="preserve" font-family="GillSans-Light,Gill Sans" font-size="50.0" fill="#525252" transform="matrix(1.00, 0.00, -0.00, -1.00, 393.5, 423.7)">c</text><text xml:space="preserve" font-family="GillSans-Light,Gill Sans" font-size="50.0" fill="#525252" transform="matrix(1.00, 0.00, -0.00, -1.00, 414.4, 423.7)">ó</text><text xml:space="preserve" font-family="GillSans-Light,Gill Sans" font-size="50.0" fill="#525252" transform="matrix(1.00, 0.00, -0.00, -1.00, 441.5, 423.7)">p</text><text xml:space="preserve" font-family="GillSans-Light,Gill Sans" font-size="50.0" fill="#525252" transform="matrix(1.00, 0.00, -0.00, -1.00, 466.9, 423.7)">i</text><text xml:space="preserve" font-family="GillSans-Light,Gill Sans" font-size="50.0" fill="#525252" transform="matrix(1.00, 0.00, -0.00, -1.00, 476.3, 423.7)">a</text><text xml:space="preserve" font-family="GillSans-Light,Gill Sans" font-size="50.0" fill="#525252" transform="matrix(1.00, 0.00, -0.00, -1.00, 497.7, 423.7)"> </text><text xml:space="preserve" font-family="GillSans-Light,Gill Sans" font-size="50.0" fill="#525252" transform="matrix(1.00, 0.00, -0.00, -1.00, 511.6, 423.7)">i</text><text xml:space="preserve" font-family="GillSans-Light,Gill Sans" font-size="50.0" fill="#525252" transform="matrix(1.00, 0.00, -0.00, -1.00, 521.0, 423.7)">n</text><text xml:space="preserve" font-family="GillSans-Light,Gill Sans" font-size="50.0" fill="#525252" transform="matrix(1.00, 0.00, -0.00, -1.00, 545.5, 423.7)">a</text><text xml:space="preserve" font-family="GillSans-Light,Gill Sans" font-size="50.0" fill="#525252" transform="matrix(1.00, 0.00, -0.00, -1.00, 566.8, 423.7)">l</text><text xml:space="preserve" font-family="GillSans-Light,Gill Sans" font-size="50.0" fill="#525252" transform="matrix(1.00, 0.00, -0.00, -1.00, 576.2, 423.7)">t</text><text xml:space="preserve" font-family="GillSans-Light,Gill Sans" font-size="50.0" fill="#525252" transform="matrix(1.00, 0.00, -0.00, -1.00, 591.3, 423.7)">e</text><text xml:space="preserve" font-family="GillSans-Light,Gill Sans" font-size="50.0" fill="#525252" transform="matrix(1.00, 0.00, -0.00, -1.00, 615.2, 423.7)">r</text><text xml:space="preserve" font-family="GillSans-Light,Gill Sans" font-size="50.0" fill="#525252" transform="matrix(1.00, 0.00, -0.00, -1.00, 633.1, 423.7)">a</text><text xml:space="preserve" font-family="GillSans-Light,Gill Sans" font-size="50.0" fill="#525252" transform="matrix(1.00, 0.00, -0.00, -1.00, 654.5, 423.7)">d</text><text xml:space="preserve" font-family="GillSans-Light,Gill Sans" font-size="50.0" fill="#525252" transform="matrix(1.00, 0.00, -0.00, -1.00, 679.9, 423.7)">a</text><text xml:space="preserve" font-family="GillSans-Light,Gill Sans" font-size="50.0" fill="#525252" transform="matrix(1.00, 0.00, -0.00, -1.00, 701.3, 423.7)"> </text><text xml:space="preserve" font-family="GillSans-Light,Gill Sans" font-size="50.0" fill="#525252" transform="matrix(1.00, 0.00, -0.00, -1.00, 715.1, 423.7)">d</text><text xml:space="preserve" font-family="GillSans-Light,Gill Sans" font-size="50.0" fill="#525252" transform="matrix(1.00, 0.00, -0.00, -1.00, 740.6, 423.7)">e</text><text xml:space="preserve" font-family="GillSans-Light,Gill Sans" font-size="50.0" fill="#525252" transform="matrix(1.00, 0.00, -0.00, -1.00, 764.6, 423.7)"> </text><text xml:space="preserve" font-family="GillSans-SemiBold,Gill Sans" font-weight="bold" font-size="50.0" fill="#525252" transform="matrix(1.00, 0.00, -0.00, -1.00, 778.6, 423.7)">N</text><text xml:space="preserve" font-family="GillSans-SemiBold,Gill Sans" font-weight="bold" font-size="50.0" fill="#525252" transform="matrix(1.00, 0.00, -0.00, -1.00, 818.6, 423.7)"> </text><text xml:space="preserve" font-family="GillSans-Light,Gill Sans" font-size="50.0" fill="#525252" transform="matrix(1.00, 0.00, -0.00, -1.00, 832.5, 423.7)">i</text><text xml:space="preserve" font-family="GillSans-Light,Gill Sans" font-size="50.0" fill="#525252" transform="matrix(1.00, 0.00, -0.00, -1.00, 841.9, 423.7)">n</text><text xml:space="preserve" font-family="GillSans-Light,Gill Sans" font-size="50.0" fill="#525252" transform="matrix(1.00, 0.00, -0.00, -1.00, 866.4, 423.7)">d</text><text xml:space="preserve" font-family="GillSans-Light,Gill Sans" font-size="50.0" fill="#525252" transform="matrix(1.00, 0.00, -0.00, -1.00, 891.9, 423.7)">i</text><text xml:space="preserve" font-family="GillSans-Light,Gill Sans" font-size="50.0" fill="#525252" transform="matrix(1.00, 0.00, -0.00, -1.00, 901.3, 423.7)">v</text><text xml:space="preserve" font-family="GillSans-Light,Gill Sans" font-size="50.0" fill="#525252" transform="matrix(1.00, 0.00, -0.00, -1.00, 922.6, 423.7)">í</text><text xml:space="preserve" font-family="GillSans-Light,Gill Sans" font-size="50.0" fill="#525252" transform="matrix(1.00, 0.00, -0.00, -1.00, 932.0, 423.7)">d</text><text xml:space="preserve" font-family="GillSans-Light,Gill Sans" font-size="50.0" fill="#525252" transform="matrix(1.00, 0.00, -0.00, -1.00, 957.5, 423.7)">u</text><text xml:space="preserve" font-family="GillSans-Light,Gill Sans" font-size="50.0" fill="#525252" transform="matrix(1.00, 0.00, -0.00, -1.00, 982.0, 423.7)">o</text><text xml:space="preserve" font-family="GillSans-Light,Gill Sans" font-size="50.0" fill="#525252" transform="matrix(1.00, 0.00, -0.00, -1.00, 1009.1, 423.7)">s</text><text xml:space="preserve" font-family="GillSans-Light,Gill Sans" font-size="50.0" fill="#525252" transform="matrix(1.00, 0.00, -0.00, -1.00, 1026.8, 423.7)"> </text><text xml:space="preserve" font-family="GillSans-Light,Gill Sans" font-size="50.0" fill="#525252" transform="matrix(1.00, 0.00, -0.00, -1.00, 1040.7, 423.7)">p</text><text xml:space="preserve" font-family="GillSans-Light,Gill Sans" font-size="50.0" fill="#525252" transform="matrix(1.00, 0.00, -0.00, -1.00, 1066.1, 423.7)">a</text><text xml:space="preserve" font-family="GillSans-Light,Gill Sans" font-size="50.0" fill="#525252" transform="matrix(1.00, 0.00, -0.00, -1.00, 1087.5, 423.7)">r</text><text xml:space="preserve" font-family="GillSans-Light,Gill Sans" font-size="50.0" fill="#525252" transform="matrix(1.00, 0.00, -0.00, -1.00, 1105.4, 423.7)">a</text><text xml:space="preserve" font-family="GillSans-Light,Gill Sans" font-size="50.0" fill="#525252" transform="matrix(1.00, 0.00, -0.00, -1.00, 1126.7, 423.7)"> </text><text xml:space="preserve" font-family="GillSans-Light,Gill Sans" font-size="50.0" fill="#525252" transform="matrix(1.00, 0.00, -0.00, -1.00, 1140.6, 423.7)">a</text><text xml:space="preserve" font-family="GillSans-Light,Gill Sans" font-size="50.0" fill="#525252" transform="matrix(1.00, 0.00, -0.00, -1.00, 1161.9, 423.7)"> </text><text xml:space="preserve" font-family="GillSans-Light,Gill Sans" font-size="50.0" fill="#525252" transform="matrix(1.00, 0.00, -0.00, -1.00, 1175.8, 423.7)">p</text><text xml:space="preserve" font-family="GillSans-Light,Gill Sans" font-size="50.0" fill="#525252" transform="matrix(1.00, 0.00, -0.00, -1.00, 1201.3, 423.7)">r</text><text xml:space="preserve" font-family="GillSans-Light,Gill Sans" font-size="50.0" fill="#525252" transform="matrix(1.00, 0.00, -0.00, -1.00, 1217.9, 423.7)">ó</text><text xml:space="preserve" font-family="GillSans-Light,Gill Sans" font-size="50.0" fill="#525252" transform="matrix(1.00, 0.00, -0.00, -1.00, 1245.0, 423.7)">x</text><text xml:space="preserve" font-family="GillSans-Light,Gill Sans" font-size="50.0" fill="#525252" transform="matrix(1.00, 0.00, -0.00, -1.00, 1269.0, 423.7)">i</text><text xml:space="preserve" font-family="GillSans-Light,Gill Sans" font-size="50.0" fill="#525252" transform="matrix(1.00, 0.00, -0.00, -1.00, 1278.4, 423.7)">m</text><text xml:space="preserve" font-family="GillSans-Light,Gill Sans" font-size="50.0" fill="#525252" transform="matrix(1.00, 0.00, -0.00, -1.00, 1316.9, 423.7)">a</text><text xml:space="preserve" font-family="GillSans-Light,Gill Sans" font-size="50.0" fill="#525252" transform="matrix(1.00, 0.00, -0.00, -1.00, 1338.2, 423.7)"> </text><text xml:space="preserve" font-family="GillSans-Light,Gill Sans" font-size="50.0" fill="#525252" transform="matrix(1.00, 0.00, -0.00, -1.00, 1352.1, 423.7)">g</text><text xml:space="preserve" font-family="GillSans-Light,Gill Sans" font-size="50.0" fill="#525252" transform="matrix(1.00, 0.00, -0.00, -1.00, 1373.5, 423.7)">e</text><text xml:space="preserve" font-family="GillSans-Light,Gill Sans" font-size="50.0" fill="#525252" transform="matrix(1.00, 0.00, -0.00, -1.00, 1397.4, 423.7)">r</text><text xml:space="preserve" font-family="GillSans-Light,Gill Sans" font-size="50.0" fill="#525252" transform="matrix(1.00, 0.00, -0.00, -1.00, 1415.3, 423.7)">a</text><text xml:space="preserve" font-family="GillSans-Light,Gill Sans" font-size="50.0" fill="#525252" transform="matrix(1.00, 0.00, -0.00, -1.00, 1436.6, 423.7)">ç</text><text xml:space="preserve" font-family="GillSans-Light,Gill Sans" font-size="50.0" fill="#525252" transform="matrix(1.00, 0.00, -0.00, -1.00, 1457.5, 423.7)">ã</text><text xml:space="preserve" font-family="GillSans-Light,Gill Sans" font-size="50.0" fill="#525252" transform="matrix(1.00, 0.00, -0.00, -1.00, 1478.8, 423.7)">o</text></g></svg>