<?xml version="1.0" encoding="UTF-8" standalone="no"?><svg xmlns="http://www.w3.org/2000/svg" xmlns:xlink="http://www.w3.org/1999/xlink" clip-rule="evenodd" stroke-miterlimit="10" viewBox="0 0 1920 1080"><desc>SVG generated by Keynote</desc><defs></defs><g transform="matrix(1.00, 0.00, -0.00, -1.00, 0.0, 1080.0)"><g><clipPath id="clip0x608001ca6600"><path d="M 0.0 1080.0 L 1920.0 1080.0 L 1920.0 0.0 L 0.0 0.0 Z M 0.0 1080.0 "></path></clipPath><g clip-path="url(#clip0x608001ca6600)"><image xlink:href="../../670AF0A5-B06C-45B2-A649-BC83FE98871A/assets/400D38DE9BD779267D8D9BA1A44336F3.jpeg" width="3840.00" height="2160.00" transform="matrix(1.75, 0.00, -0.00, -1.75, -2406.0, 2433.0)"></image></g></g><text xml:space="preserve" font-family="GillSans-SemiBold,Gill Sans" font-weight="bold" font-size="71.0" fill="#525252" transform="matrix(1.00, 0.00, -0.00, -1.00, 586.7, 127.3)">S</text><text xml:space="preserve" font-family="GillSans-SemiBold,Gill Sans" font-weight="bold" font-size="71.0" fill="#525252" transform="matrix(1.00, 0.00, -0.00, -1.00, 624.6, 127.3)">h</text><text xml:space="preserve" font-family="GillSans-SemiBold,Gill Sans" font-weight="bold" font-size="71.0" fill="#525252" transform="matrix(1.00, 0.00, -0.00, -1.00, 663.0, 127.3)">o</text><text xml:space="preserve" font-family="GillSans-SemiBold,Gill Sans" font-weight="bold" font-size="71.0" fill="#525252" transform="matrix(1.00, 0.00, -0.00, -1.00, 703.7, 127.3)">w</text><text xml:space="preserve" font-family="GillSans-SemiBold,Gill Sans" font-weight="bold" font-size="71.0" fill="#525252" transform="matrix(1.00, 0.00, -0.00, -1.00, 757.3, 127.3)"> </text><text xml:space="preserve" font-family="GillSans-SemiBold,Gill Sans" font-weight="bold" font-size="71.0" fill="#525252" transform="matrix(1.00, 0.00, -0.00, -1.00, 777.0, 127.3)">m</text><text xml:space="preserve" font-family="GillSans-SemiBold,Gill Sans" font-weight="bold" font-size="71.0" fill="#525252" transform="matrix(1.00, 0.00, -0.00, -1.00, 837.1, 127.3)">e</text><text xml:space="preserve" font-family="GillSans-SemiBold,Gill Sans" font-weight="bold" font-size="71.0" fill="#525252" transform="matrix(1.00, 0.00, -0.00, -1.00, 873.8, 127.3)"> </text><text xml:space="preserve" font-family="GillSans-SemiBold,Gill Sans" font-weight="bold" font-size="71.0" fill="#525252" transform="matrix(1.00, 0.00, -0.00, -1.00, 893.5, 127.3)">s</text><text xml:space="preserve" font-family="GillSans-SemiBold,Gill Sans" font-weight="bold" font-size="71.0" fill="#525252" transform="matrix(1.00, 0.00, -0.00, -1.00, 922.1, 127.3)">o</text><text xml:space="preserve" font-family="GillSans-SemiBold,Gill Sans" font-weight="bold" font-size="71.0" fill="#525252" transform="matrix(1.00, 0.00, -0.00, -1.00, 962.9, 127.3)">m</text><text xml:space="preserve" font-family="GillSans-SemiBold,Gill Sans" font-weight="bold" font-size="71.0" fill="#525252" transform="matrix(1.00, 0.00, -0.00, -1.00, 1022.9, 127.3)">e</text><text xml:space="preserve" font-family="GillSans-SemiBold,Gill Sans" font-weight="bold" font-size="71.0" fill="#525252" transform="matrix(1.00, 0.00, -0.00, -1.00, 1059.6, 127.3)"> </text><text xml:space="preserve" font-family="GillSans-SemiBold,Gill Sans" font-weight="bold" font-size="71.0" fill="#525252" transform="matrix(1.00, 0.00, -0.00, -1.00, 1079.3, 127.3)">m</text><text xml:space="preserve" font-family="GillSans-SemiBold,Gill Sans" font-weight="bold" font-size="71.0" fill="#525252" transform="matrix(1.00, 0.00, -0.00, -1.00, 1139.4, 127.3)">o</text><text xml:space="preserve" font-family="GillSans-SemiBold,Gill Sans" font-weight="bold" font-size="71.0" fill="#525252" transform="matrix(1.00, 0.00, -0.00, -1.00, 1180.1, 127.3)">r</text><text xml:space="preserve" font-family="GillSans-SemiBold,Gill Sans" font-weight="bold" font-size="71.0" fill="#525252" transform="matrix(1.00, 0.00, -0.00, -1.00, 1208.4, 127.3)">e</text><text xml:space="preserve" font-family="GillSans-SemiBold,Gill Sans" font-weight="bold" font-size="71.0" fill="#525252" transform="matrix(1.00, 0.00, -0.00, -1.00, 1245.0, 127.3)">!</text><g><clipPath id="clip0x608001ca8460"><path d="M 557.8 778.2 L 1363.1 778.2 L 1363.1 338.8 L 557.8 338.8 Z M 557.8 778.2 "></path></clipPath><g clip-path="url(#clip0x608001ca8460)"><path d="M 558.0 778.0 L 789.1 778.0 L 789.1 704.8 L 558.0 704.8 Z M 558.0 778.0 " fill="#E0E0E0"></path><path d="M 789.1 778.0 L 1020.1 778.0 L 1020.1 704.8 L 789.1 704.8 Z M 789.1 778.0 " fill="#E0E0E0"></path><path d="M 1020.1 778.0 L 1362.9 778.0 L 1362.9 704.8 L 1020.1 704.8 Z M 1020.1 778.0 " fill="#E0E0E0"></path></g></g><g><clipPath id="clip0x608001ca8760"><path d="M 557.8 778.2 L 1363.1 778.2 L 1363.1 338.8 L 557.8 338.8 Z M 557.8 778.2 "></path></clipPath><g clip-path="url(#clip0x608001ca8760)"><g><clipPath id="clip0x608001ca88e0"><path d="M 558.2 705.1 L 788.8 705.1 L 788.8 777.8 L 558.2 777.8 Z M 558.2 705.1 "></path></clipPath><g clip-path="url(#clip0x608001ca88e0)"><text xml:space="preserve" font-family="Helvetica-Bold,Helvetica" font-weight="bold" font-size="51.6" fill="#595E5D" transform="matrix(1.00, 0.00, -0.00, -1.00, 563.2, 727.6)">X</text><text xml:space="preserve" font-family="Helvetica-Bold,Helvetica" font-weight="bold" font-size="51.6" fill="#595E5D" transform="matrix(1.00, 0.00, -0.00, -1.00, 597.7, 727.6)">1</text></g></g></g></g><g><clipPath id="clip0x608001ca8b80"><path d="M 557.8 778.2 L 1363.1 778.2 L 1363.1 338.8 L 557.8 338.8 Z M 557.8 778.2 "></path></clipPath><g clip-path="url(#clip0x608001ca8b80)"><g><clipPath id="clip0x608001ca8d00"><path d="M 789.3 705.1 L 1019.9 705.1 L 1019.9 777.8 L 789.3 777.8 Z M 789.3 705.1 "></path></clipPath><g clip-path="url(#clip0x608001ca8d00)"><text xml:space="preserve" font-family="Helvetica-Bold,Helvetica" font-weight="bold" font-size="51.6" fill="#595E5D" transform="matrix(1.00, 0.00, -0.00, -1.00, 794.3, 727.6)">X</text><text xml:space="preserve" font-family="Helvetica-Bold,Helvetica" font-weight="bold" font-size="51.6" fill="#595E5D" transform="matrix(1.00, 0.00, -0.00, -1.00, 828.7, 727.6)">2</text></g></g></g></g><g><clipPath id="clip0x608001ca8fa0"><path d="M 557.8 778.2 L 1363.1 778.2 L 1363.1 338.8 L 557.8 338.8 Z M 557.8 778.2 "></path></clipPath><g clip-path="url(#clip0x608001ca8fa0)"><g><clipPath id="clip0x608001ca9120"><path d="M 1020.4 705.1 L 1362.6 705.1 L 1362.6 777.8 L 1020.4 777.8 Z M 1020.4 705.1 "></path></clipPath><g clip-path="url(#clip0x608001ca9120)"><text xml:space="preserve" font-family="Helvetica-Bold,Helvetica" font-weight="bold" font-size="51.6" fill="#595E5D" transform="matrix(1.00, 0.00, -0.00, -1.00, 1025.4, 727.6)">R</text><text xml:space="preserve" font-family="Helvetica-Bold,Helvetica" font-weight="bold" font-size="51.6" fill="#595E5D" transform="matrix(1.00, 0.00, -0.00, -1.00, 1062.6, 727.6)">e</text><text xml:space="preserve" font-family="Helvetica-Bold,Helvetica" font-weight="bold" font-size="51.6" fill="#595E5D" transform="matrix(1.00, 0.00, -0.00, -1.00, 1091.4, 727.6)">s</text><text xml:space="preserve" font-family="Helvetica-Bold,Helvetica" font-weight="bold" font-size="51.6" fill="#595E5D" transform="matrix(1.00, 0.00, -0.00, -1.00, 1120.1, 727.6)">u</text><text xml:space="preserve" font-family="Helvetica-Bold,Helvetica" font-weight="bold" font-size="51.6" fill="#595E5D" transform="matrix(1.00, 0.00, -0.00, -1.00, 1151.6, 727.6)">l</text><text xml:space="preserve" font-family="Helvetica-Bold,Helvetica" font-weight="bold" font-size="51.6" fill="#595E5D" transform="matrix(1.00, 0.00, -0.00, -1.00, 1165.9, 727.6)">t</text><text xml:space="preserve" font-family="Helvetica-Bold,Helvetica" font-weight="bold" font-size="51.6" fill="#595E5D" transform="matrix(1.00, 0.00, -0.00, -1.00, 1183.1, 727.6)">a</text><text xml:space="preserve" font-family="Helvetica-Bold,Helvetica" font-weight="bold" font-size="51.6" fill="#595E5D" transform="matrix(1.00, 0.00, -0.00, -1.00, 1211.8, 727.6)">d</text><text xml:space="preserve" font-family="Helvetica-Bold,Helvetica" font-weight="bold" font-size="51.6" fill="#595E5D" transform="matrix(1.00, 0.00, -0.00, -1.00, 1243.3, 727.6)">o</text></g></g></g></g><g><clipPath id="clip0x608001ca9660"><path d="M 557.8 778.2 L 1363.1 778.2 L 1363.1 338.8 L 557.8 338.8 Z M 557.8 778.2 "></path></clipPath><g clip-path="url(#clip0x608001ca9660)"><g><clipPath id="clip0x608001ca97e0"><path d="M 558.2 631.9 L 788.8 631.9 L 788.8 704.6 L 558.2 704.6 Z M 558.2 631.9 "></path></clipPath><g clip-path="url(#clip0x608001ca97e0)"><text xml:space="preserve" font-family="Helvetica,Helvetica" font-size="51.6" fill="#595E5D" transform="matrix(1.00, 0.00, -0.00, -1.00, 726.4, 654.5)">2</text><text xml:space="preserve" font-family="Helvetica,Helvetica" font-size="51.6" fill="#595E5D" transform="matrix(1.00, 0.00, -0.00, -1.00, 755.1, 654.5)">6</text></g></g></g></g><g><clipPath id="clip0x608001ca9a20"><path d="M 557.8 778.2 L 1363.1 778.2 L 1363.1 338.8 L 557.8 338.8 Z M 557.8 778.2 "></path></clipPath><g clip-path="url(#clip0x608001ca9a20)"><g><clipPath id="clip0x608001ca9ba0"><path d="M 789.3 631.9 L 1019.9 631.9 L 1019.9 704.6 L 789.3 704.6 Z M 789.3 631.9 "></path></clipPath><g clip-path="url(#clip0x608001ca9ba0)"><text xml:space="preserve" font-family="Helvetica,Helvetica" font-size="51.6" fill="#595E5D" transform="matrix(1.00, 0.00, -0.00, -1.00, 957.5, 654.5)">3</text><text xml:space="preserve" font-family="Helvetica,Helvetica" font-size="51.6" fill="#595E5D" transform="matrix(1.00, 0.00, -0.00, -1.00, 986.2, 654.5)">5</text></g></g></g></g><g><clipPath id="clip0x608001ca9e40"><path d="M 557.8 778.2 L 1363.1 778.2 L 1363.1 338.8 L 557.8 338.8 Z M 557.8 778.2 "></path></clipPath><g clip-path="url(#clip0x608001ca9e40)"><g><clipPath id="clip0x608001ca9fc0"><path d="M 1020.4 631.9 L 1362.6 631.9 L 1362.6 704.6 L 1020.4 704.6 Z M 1020.4 631.9 "></path></clipPath><g clip-path="url(#clip0x608001ca9fc0)"><text xml:space="preserve" font-family="Helvetica-Bold,Helvetica" font-weight="bold" font-size="51.6" fill="#595E5D" transform="matrix(1.00, 0.00, -0.00, -1.00, 1271.6, 654.5)">8</text><text xml:space="preserve" font-family="Helvetica-Bold,Helvetica" font-weight="bold" font-size="51.6" fill="#595E5D" transform="matrix(1.00, 0.00, -0.00, -1.00, 1300.3, 654.5)">2</text><text xml:space="preserve" font-family="Helvetica-Bold,Helvetica" font-weight="bold" font-size="51.6" fill="#595E5D" transform="matrix(1.00, 0.00, -0.00, -1.00, 1329.0, 654.5)">9</text></g></g></g></g><g><clipPath id="clip0x608001caa1a0"><path d="M 557.8 778.2 L 1363.1 778.2 L 1363.1 338.8 L 557.8 338.8 Z M 557.8 778.2 "></path></clipPath><g clip-path="url(#clip0x608001caa1a0)"><g><clipPath id="clip0x608001caa320"><path d="M 558.2 558.8 L 788.8 558.8 L 788.8 631.4 L 558.2 631.4 Z M 558.2 558.8 "></path></clipPath><g clip-path="url(#clip0x608001caa320)"><text xml:space="preserve" font-family="Helvetica,Helvetica" font-size="51.6" fill="#595E5D" transform="matrix(1.00, 0.00, -0.00, -1.00, 755.1, 581.3)">8</text></g></g></g></g><g><clipPath id="clip0x608001caa560"><path d="M 557.8 778.2 L 1363.1 778.2 L 1363.1 338.8 L 557.8 338.8 Z M 557.8 778.2 "></path></clipPath><g clip-path="url(#clip0x608001caa560)"><g><clipPath id="clip0x608001caa6e0"><path d="M 789.3 558.8 L 1019.9 558.8 L 1019.9 631.4 L 789.3 631.4 Z M 789.3 558.8 "></path></clipPath><g clip-path="url(#clip0x608001caa6e0)"><text xml:space="preserve" font-family="Helvetica,Helvetica" font-size="51.6" fill="#595E5D" transform="matrix(1.00, 0.00, -0.00, -1.00, 957.5, 581.3)">2</text><text xml:space="preserve" font-family="Helvetica,Helvetica" font-size="51.6" fill="#595E5D" transform="matrix(1.00, 0.00, -0.00, -1.00, 986.2, 581.3)">4</text></g></g></g></g><g><clipPath id="clip0x608001caa980"><path d="M 557.8 778.2 L 1363.1 778.2 L 1363.1 338.8 L 557.8 338.8 Z M 557.8 778.2 "></path></clipPath><g clip-path="url(#clip0x608001caa980)"><g><clipPath id="clip0x608001caab00"><path d="M 1020.4 558.8 L 1362.6 558.8 L 1362.6 631.4 L 1020.4 631.4 Z M 1020.4 558.8 "></path></clipPath><g clip-path="url(#clip0x608001caab00)"><text xml:space="preserve" font-family="Helvetica-Bold,Helvetica" font-weight="bold" font-size="51.6" fill="#595E5D" transform="matrix(1.00, 0.00, -0.00, -1.00, 1271.6, 581.3)">1</text><text xml:space="preserve" font-family="Helvetica-Bold,Helvetica" font-weight="bold" font-size="51.6" fill="#595E5D" transform="matrix(1.00, 0.00, -0.00, -1.00, 1300.3, 581.3)">4</text><text xml:space="preserve" font-family="Helvetica-Bold,Helvetica" font-weight="bold" font-size="51.6" fill="#595E5D" transform="matrix(1.00, 0.00, -0.00, -1.00, 1329.0, 581.3)">1</text></g></g></g></g><g><clipPath id="clip0x608001caae00"><path d="M 557.8 778.2 L 1363.1 778.2 L 1363.1 338.8 L 557.8 338.8 Z M 557.8 778.2 "></path></clipPath><g clip-path="url(#clip0x608001caae00)"><g><clipPath id="clip0x608001caaf80"><path d="M 558.2 485.6 L 788.8 485.6 L 788.8 558.3 L 558.2 558.3 Z M 558.2 485.6 "></path></clipPath><g clip-path="url(#clip0x608001caaf80)"><text xml:space="preserve" font-family="Helvetica,Helvetica" font-size="51.6" fill="#595E5D" transform="matrix(1.00, 0.00, -0.00, -1.00, 726.4, 508.2)">2</text><text xml:space="preserve" font-family="Helvetica,Helvetica" font-size="51.6" fill="#595E5D" transform="matrix(1.00, 0.00, -0.00, -1.00, 755.1, 508.2)">0</text></g></g></g></g><g><clipPath id="clip0x608001cab220"><path d="M 557.8 778.2 L 1363.1 778.2 L 1363.1 338.8 L 557.8 338.8 Z M 557.8 778.2 "></path></clipPath><g clip-path="url(#clip0x608001cab220)"><g><clipPath id="clip0x608001cab3a0"><path d="M 789.3 485.6 L 1019.9 485.6 L 1019.9 558.3 L 789.3 558.3 Z M 789.3 485.6 "></path></clipPath><g clip-path="url(#clip0x608001cab3a0)"><text xml:space="preserve" font-family="Helvetica,Helvetica" font-size="51.6" fill="#595E5D" transform="matrix(1.00, 0.00, -0.00, -1.00, 986.2, 508.2)">1</text></g></g></g></g><g><clipPath id="clip0x608001cab5e0"><path d="M 557.8 778.2 L 1363.1 778.2 L 1363.1 338.8 L 557.8 338.8 Z M 557.8 778.2 "></path></clipPath><g clip-path="url(#clip0x608001cab5e0)"><g><clipPath id="clip0x608001cab760"><path d="M 1020.4 485.6 L 1362.6 485.6 L 1362.6 558.3 L 1020.4 558.3 Z M 1020.4 485.6 "></path></clipPath><g clip-path="url(#clip0x608001cab760)"><text xml:space="preserve" font-family="Helvetica-Bold,Helvetica" font-weight="bold" font-size="51.6" fill="#595E5D" transform="matrix(1.00, 0.00, -0.00, -1.00, 1271.6, 508.2)">4</text><text xml:space="preserve" font-family="Helvetica-Bold,Helvetica" font-weight="bold" font-size="51.6" fill="#595E5D" transform="matrix(1.00, 0.00, -0.00, -1.00, 1300.3, 508.2)">6</text><text xml:space="preserve" font-family="Helvetica-Bold,Helvetica" font-weight="bold" font-size="51.6" fill="#595E5D" transform="matrix(1.00, 0.00, -0.00, -1.00, 1329.0, 508.2)">7</text></g></g></g></g><g><clipPath id="clip0x608001caba60"><path d="M 557.8 778.2 L 1363.1 778.2 L 1363.1 338.8 L 557.8 338.8 Z M 557.8 778.2 "></path></clipPath><g clip-path="url(#clip0x608001caba60)"><g><clipPath id="clip0x608001cabbe0"><path d="M 558.2 412.5 L 788.8 412.5 L 788.8 485.1 L 558.2 485.1 Z M 558.2 412.5 "></path></clipPath><g clip-path="url(#clip0x608001cabbe0)"><text xml:space="preserve" font-family="Helvetica,Helvetica" font-size="51.6" fill="#595E5D" transform="matrix(1.00, 0.00, -0.00, -1.00, 726.4, 435.0)">3</text><text xml:space="preserve" font-family="Helvetica,Helvetica" font-size="51.6" fill="#595E5D" transform="matrix(1.00, 0.00, -0.00, -1.00, 755.1, 435.0)">3</text></g></g></g></g><g><clipPath id="clip0x608001cabe80"><path d="M 557.8 778.2 L 1363.1 778.2 L 1363.1 338.8 L 557.8 338.8 Z M 557.8 778.2 "></path></clipPath><g clip-path="url(#clip0x608001cabe80)"><g><clipPath id="clip0x608001cac000"><path d="M 789.3 412.5 L 1019.9 412.5 L 1019.9 485.1 L 789.3 485.1 Z M 789.3 412.5 "></path></clipPath><g clip-path="url(#clip0x608001cac000)"><text xml:space="preserve" font-family="Helvetica,Helvetica" font-size="51.6" fill="#595E5D" transform="matrix(1.00, 0.00, -0.00, -1.00, 961.3, 435.0)">1</text><text xml:space="preserve" font-family="Helvetica,Helvetica" font-size="51.6" fill="#595E5D" transform="matrix(1.00, 0.00, -0.00, -1.00, 986.2, 435.0)">1</text></g></g></g></g><g><clipPath id="clip0x608001cac2a0"><path d="M 557.8 778.2 L 1363.1 778.2 L 1363.1 338.8 L 557.8 338.8 Z M 557.8 778.2 "></path></clipPath><g clip-path="url(#clip0x608001cac2a0)"><g><clipPath id="clip0x608001cac420"><path d="M 1020.4 412.5 L 1362.6 412.5 L 1362.6 485.1 L 1020.4 485.1 Z M 1020.4 412.5 "></path></clipPath><g clip-path="url(#clip0x608001cac420)"><text xml:space="preserve" font-family="Helvetica-Bold,Helvetica" font-weight="bold" font-size="51.6" fill="#595E5D" transform="matrix(1.00, 0.00, -0.00, -1.00, 1242.9, 435.0)">1</text><text xml:space="preserve" font-family="Helvetica-Bold,Helvetica" font-weight="bold" font-size="51.6" fill="#595E5D" transform="matrix(1.00, 0.00, -0.00, -1.00, 1271.6, 435.0)">2</text><text xml:space="preserve" font-family="Helvetica-Bold,Helvetica" font-weight="bold" font-size="51.6" fill="#595E5D" transform="matrix(1.00, 0.00, -0.00, -1.00, 1300.3, 435.0)">1</text><text xml:space="preserve" font-family="Helvetica-Bold,Helvetica" font-weight="bold" font-size="51.6" fill="#595E5D" transform="matrix(1.00, 0.00, -0.00, -1.00, 1329.0, 435.0)">5</text></g></g></g></g><g><clipPath id="clip0x608001cac780"><path d="M 557.8 778.2 L 1363.1 778.2 L 1363.1 338.8 L 557.8 338.8 Z M 557.8 778.2 "></path></clipPath><g clip-path="url(#clip0x608001cac780)"><g><clipPath id="clip0x608001cac900"><path d="M 558.2 339.3 L 788.8 339.3 L 788.8 412.0 L 558.2 412.0 Z M 558.2 339.3 "></path></clipPath><g clip-path="url(#clip0x608001cac900)"><text xml:space="preserve" font-family="Helvetica,Helvetica" font-size="51.6" fill="#595E5D" transform="matrix(1.00, 0.00, -0.00, -1.00, 726.4, 361.9)">3</text><text xml:space="preserve" font-family="Helvetica,Helvetica" font-size="51.6" fill="#595E5D" transform="matrix(1.00, 0.00, -0.00, -1.00, 755.1, 361.9)">7</text></g></g></g></g><g><clipPath id="clip0x608001cacba0"><path d="M 557.8 778.2 L 1363.1 778.2 L 1363.1 338.8 L 557.8 338.8 Z M 557.8 778.2 "></path></clipPath><g clip-path="url(#clip0x608001cacba0)"><g><clipPath id="clip0x608001cacd20"><path d="M 789.3 339.3 L 1019.9 339.3 L 1019.9 412.0 L 789.3 412.0 Z M 789.3 339.3 "></path></clipPath><g clip-path="url(#clip0x608001cacd20)"><text xml:space="preserve" font-family="Helvetica,Helvetica" font-size="51.6" fill="#595E5D" transform="matrix(1.00, 0.00, -0.00, -1.00, 957.5, 361.9)">1</text><text xml:space="preserve" font-family="Helvetica,Helvetica" font-size="51.6" fill="#595E5D" transform="matrix(1.00, 0.00, -0.00, -1.00, 986.2, 361.9)">6</text></g></g></g></g><g><clipPath id="clip0x608001cacfc0"><path d="M 557.8 778.2 L 1363.1 778.2 L 1363.1 338.8 L 557.8 338.8 Z M 557.8 778.2 "></path></clipPath><g clip-path="url(#clip0x608001cacfc0)"><g><clipPath id="clip0x608001cad140"><path d="M 1020.4 339.3 L 1362.6 339.3 L 1362.6 412.0 L 1020.4 412.0 Z M 1020.4 339.3 "></path></clipPath><g clip-path="url(#clip0x608001cad140)"><text xml:space="preserve" font-family="Helvetica-Bold,Helvetica" font-weight="bold" font-size="51.6" fill="#595E5D" transform="matrix(1.00, 0.00, -0.00, -1.00, 1242.9, 361.9)">1</text><text xml:space="preserve" font-family="Helvetica-Bold,Helvetica" font-weight="bold" font-size="51.6" fill="#595E5D" transform="matrix(1.00, 0.00, -0.00, -1.00, 1271.6, 361.9)">5</text><text xml:space="preserve" font-family="Helvetica-Bold,Helvetica" font-weight="bold" font-size="51.6" fill="#595E5D" transform="matrix(1.00, 0.00, -0.00, -1.00, 1300.3, 361.9)">1</text><text xml:space="preserve" font-family="Helvetica-Bold,Helvetica" font-weight="bold" font-size="51.6" fill="#595E5D" transform="matrix(1.00, 0.00, -0.00, -1.00, 1329.0, 361.9)">7</text></g></g></g></g><g><clipPath id="clip0x608001cad4a0"><path d="M 557.8 778.2 L 1363.1 778.2 L 1363.1 338.8 L 557.8 338.8 Z M 557.8 778.2 "></path></clipPath><g clip-path="url(#clip0x608001cad4a0)"><path d="M 233.1 1.5 L 233.1 75.2 " fill="none" stroke="#E4E4E4" stroke-width="0.50" transform="matrix(1.00, 0.00, 0.00, -1.00, 556.0, 780.0)"></path><path d="M 233.1 75.2 L 233.1 441.4 " fill="none" stroke="#E4E4E4" stroke-width="0.50" transform="matrix(1.00, 0.00, 0.00, -1.00, 556.0, 780.0)"></path><path d="M 464.1 1.5 L 464.1 75.2 " fill="none" stroke="#E4E4E4" stroke-width="0.50" transform="matrix(1.00, 0.00, 0.00, -1.00, 556.0, 780.0)"></path><path d="M 464.1 75.2 L 464.1 441.4 " fill="none" stroke="#E4E4E4" stroke-width="0.50" transform="matrix(1.00, 0.00, 0.00, -1.00, 556.0, 780.0)"></path><path d="M 1.5 75.2 L 807.4 75.2 " fill="none" stroke="#E4E4E4" stroke-width="0.50" transform="matrix(1.00, 0.00, 0.00, -1.00, 556.0, 780.0)"></path><path d="M 1.5 148.3 L 807.4 148.3 " fill="none" stroke="#E4E4E4" stroke-width="0.50" transform="matrix(1.00, 0.00, 0.00, -1.00, 556.0, 780.0)"></path><path d="M 1.5 221.5 L 807.4 221.5 " fill="none" stroke="#E4E4E4" stroke-width="0.50" transform="matrix(1.00, 0.00, 0.00, -1.00, 556.0, 780.0)"></path><path d="M 1.5 294.6 L 807.4 294.6 " fill="none" stroke="#E4E4E4" stroke-width="0.50" transform="matrix(1.00, 0.00, 0.00, -1.00, 556.0, 780.0)"></path><path d="M 1.5 367.8 L 807.4 367.8 " fill="none" stroke="#E4E4E4" stroke-width="0.50" transform="matrix(1.00, 0.00, 0.00, -1.00, 556.0, 780.0)"></path><path d="M 2.0 1.5 L 2.0 75.2 " fill="none" stroke="#E4E4E4" stroke-width="0.50" transform="matrix(1.00, 0.00, 0.00, -1.00, 556.0, 780.0)"></path><path d="M 2.0 75.2 L 2.0 441.4 " fill="none" stroke="#E4E4E4" stroke-width="0.50" transform="matrix(1.00, 0.00, 0.00, -1.00, 556.0, 780.0)"></path><path d="M 806.9 1.5 L 806.9 75.2 " fill="none" stroke="#E4E4E4" stroke-width="0.50" transform="matrix(1.00, 0.00, 0.00, -1.00, 556.0, 780.0)"></path><path d="M 806.9 75.2 L 806.9 441.4 " fill="none" stroke="#E4E4E4" stroke-width="0.50" transform="matrix(1.00, 0.00, 0.00, -1.00, 556.0, 780.0)"></path><path d="M 1.5 2.0 L 807.4 2.0 " fill="none" stroke="#E4E4E4" stroke-width="0.50" transform="matrix(1.00, 0.00, 0.00, -1.00, 556.0, 780.0)"></path><path d="M 1.5 440.9 L 807.4 440.9 " fill="none" stroke="#E4E4E4" stroke-width="0.50" transform="matrix(1.00, 0.00, 0.00, -1.00, 556.0, 780.0)"></path></g></g><path d="M 48.0 1023.0 L 460.0 1023.0 L 460.0 908.0 L 48.0 908.0 Z M 47.8 1023.3 " fill="#AA1802"></path><g><clipPath id="clip0x608001cadce0"><path d="M 36.9 907.6 L 470.9 907.6 L 470.9 1023.3 L 36.9 1023.3 Z M 36.9 907.6 "></path></clipPath><g clip-path="url(#clip0x608001cadce0)"><text xml:space="preserve" font-family="GillSans-SemiBold,Gill Sans" font-weight="bold" font-size="50.0" fill="#FEFFFF" transform="matrix(1.00, 0.00, -0.00, -1.00, 87.8, 947.8)">P</text><text xml:space="preserve" font-family="GillSans-SemiBold,Gill Sans" font-weight="bold" font-size="50.0" fill="#FEFFFF" transform="matrix(1.00, 0.00, -0.00, -1.00, 117.0, 947.8)">r</text><text xml:space="preserve" font-family="GillSans-SemiBold,Gill Sans" font-weight="bold" font-size="50.0" fill="#FEFFFF" transform="matrix(1.00, 0.00, -0.00, -1.00, 136.9, 947.8)">o</text><text xml:space="preserve" font-family="GillSans-SemiBold,Gill Sans" font-weight="bold" font-size="50.0" fill="#FEFFFF" transform="matrix(1.00, 0.00, -0.00, -1.00, 165.6, 947.8)">b</text><text xml:space="preserve" font-family="GillSans-SemiBold,Gill Sans" font-weight="bold" font-size="50.0" fill="#FEFFFF" transform="matrix(1.00, 0.00, -0.00, -1.00, 193.0, 947.8)">l</text><text xml:space="preserve" font-family="GillSans-SemiBold,Gill Sans" font-weight="bold" font-size="50.0" fill="#FEFFFF" transform="matrix(1.00, 0.00, -0.00, -1.00, 205.4, 947.8)">e</text><text xml:space="preserve" font-family="GillSans-SemiBold,Gill Sans" font-weight="bold" font-size="50.0" fill="#FEFFFF" transform="matrix(1.00, 0.00, -0.00, -1.00, 231.2, 947.8)">m</text><text xml:space="preserve" font-family="GillSans-SemiBold,Gill Sans" font-weight="bold" font-size="50.0" fill="#FEFFFF" transform="matrix(1.00, 0.00, -0.00, -1.00, 273.6, 947.8)">a</text><text xml:space="preserve" font-family="GillSans-SemiBold,Gill Sans" font-weight="bold" font-size="50.0" fill="#FEFFFF" transform="matrix(1.00, 0.00, -0.00, -1.00, 297.7, 947.8)">!</text></g></g><path d="M 159.0 928.0 L 1460.0 928.0 L 1460.0 863.0 L 159.0 863.0 Z M 159.1 928.4 " fill="#78889F"></path><g><clipPath id="clip0x608001cae2e0"><path d="M 148.5 867.4 L 1470.7 867.4 L 1470.7 924.4 L 148.5 924.4 Z M 148.5 867.4 "></path></clipPath><g clip-path="url(#clip0x608001cae2e0)"><text xml:space="preserve" font-family="GillSans-Light,Gill Sans" font-size="49.0" fill="#FEFFFF" transform="matrix(1.00, 0.00, -0.00, -1.00, 181.1, 878.7)">E</text><text xml:space="preserve" font-family="GillSans-Light,Gill Sans" font-size="49.0" fill="#FEFFFF" transform="matrix(1.00, 0.00, -0.00, -1.00, 205.2, 878.7)">n</text><text xml:space="preserve" font-family="GillSans-Light,Gill Sans" font-size="49.0" fill="#FEFFFF" transform="matrix(1.00, 0.00, -0.00, -1.00, 229.2, 878.7)">c</text><text xml:space="preserve" font-family="GillSans-Light,Gill Sans" font-size="49.0" fill="#FEFFFF" transform="matrix(1.00, 0.00, -0.00, -1.00, 249.6, 878.7)">o</text><text xml:space="preserve" font-family="GillSans-Light,Gill Sans" font-size="49.0" fill="#FEFFFF" transform="matrix(1.00, 0.00, -0.00, -1.00, 276.2, 878.7)">n</text><text xml:space="preserve" font-family="GillSans-Light,Gill Sans" font-size="49.0" fill="#FEFFFF" transform="matrix(1.00, 0.00, -0.00, -1.00, 300.2, 878.7)">t</text><text xml:space="preserve" font-family="GillSans-Light,Gill Sans" font-size="49.0" fill="#FEFFFF" transform="matrix(1.00, 0.00, -0.00, -1.00, 315.0, 878.7)">r</text><text xml:space="preserve" font-family="GillSans-Light,Gill Sans" font-size="49.0" fill="#FEFFFF" transform="matrix(1.00, 0.00, -0.00, -1.00, 331.3, 878.7)">e</text><text xml:space="preserve" font-family="GillSans-Light,Gill Sans" font-size="49.0" fill="#FEFFFF" transform="matrix(1.00, 0.00, -0.00, -1.00, 354.8, 878.7)"> </text><text xml:space="preserve" font-family="GillSans-Light,Gill Sans" font-size="49.0" fill="#FEFFFF" transform="matrix(1.00, 0.00, -0.00, -1.00, 368.4, 878.7)">u</text><text xml:space="preserve" font-family="GillSans-Light,Gill Sans" font-size="49.0" fill="#FEFFFF" transform="matrix(1.00, 0.00, -0.00, -1.00, 392.4, 878.7)">m</text><text xml:space="preserve" font-family="GillSans-Light,Gill Sans" font-size="49.0" fill="#FEFFFF" transform="matrix(1.00, 0.00, -0.00, -1.00, 430.2, 878.7)">a</text><text xml:space="preserve" font-family="GillSans-Light,Gill Sans" font-size="49.0" fill="#FEFFFF" transform="matrix(1.00, 0.00, -0.00, -1.00, 451.1, 878.7)"> </text><text xml:space="preserve" font-family="GillSans-Light,Gill Sans" font-size="49.0" fill="#FEFFFF" transform="matrix(1.00, 0.00, -0.00, -1.00, 464.7, 878.7)">f</text><text xml:space="preserve" font-family="GillSans-Light,Gill Sans" font-size="49.0" fill="#FEFFFF" transform="matrix(1.00, 0.00, -0.00, -1.00, 476.5, 878.7)">u</text><text xml:space="preserve" font-family="GillSans-Light,Gill Sans" font-size="49.0" fill="#FEFFFF" transform="matrix(1.00, 0.00, -0.00, -1.00, 500.5, 878.7)">n</text><text xml:space="preserve" font-family="GillSans-Light,Gill Sans" font-size="49.0" fill="#FEFFFF" transform="matrix(1.00, 0.00, -0.00, -1.00, 524.5, 878.7)">รง</text><text xml:space="preserve" font-family="GillSans-Light,Gill Sans" font-size="49.0" fill="#FEFFFF" transform="matrix(1.00, 0.00, -0.00, -1.00, 545.0, 878.7)">รฃ</text><text xml:space="preserve" font-family="GillSans-Light,Gill Sans" font-size="49.0" fill="#FEFFFF" transform="matrix(1.00, 0.00, -0.00, -1.00, 565.9, 878.7)">o</text><text xml:space="preserve" font-family="GillSans-Light,Gill Sans" font-size="49.0" fill="#FEFFFF" transform="matrix(1.00, 0.00, -0.00, -1.00, 592.4, 878.7)"> </text><text xml:space="preserve" font-family="GillSans-Light,Gill Sans" font-size="49.0" fill="#FEFFFF" transform="matrix(1.00, 0.00, -0.00, -1.00, 606.0, 878.7)">q</text><text xml:space="preserve" font-family="GillSans-Light,Gill Sans" font-size="49.0" fill="#FEFFFF" transform="matrix(1.00, 0.00, -0.00, -1.00, 631.0, 878.7)">u</text><text xml:space="preserve" font-family="GillSans-Light,Gill Sans" font-size="49.0" fill="#FEFFFF" transform="matrix(1.00, 0.00, -0.00, -1.00, 655.0, 878.7)">e</text><text xml:space="preserve" font-family="GillSans-Light,Gill Sans" font-size="49.0" fill="#FEFFFF" transform="matrix(1.00, 0.00, -0.00, -1.00, 678.5, 878.7)"> </text><text xml:space="preserve" font-family="GillSans-Light,Gill Sans" font-size="49.0" fill="#FEFFFF" transform="matrix(1.00, 0.00, -0.00, -1.00, 692.1, 878.7)">d</text><text xml:space="preserve" font-family="GillSans-Light,Gill Sans" font-size="49.0" fill="#FEFFFF" transform="matrix(1.00, 0.00, -0.00, -1.00, 717.1, 878.7)">a</text><text xml:space="preserve" font-family="GillSans-Light,Gill Sans" font-size="49.0" fill="#FEFFFF" transform="matrix(1.00, 0.00, -0.00, -1.00, 738.0, 878.7)">d</text><text xml:space="preserve" font-family="GillSans-Light,Gill Sans" font-size="49.0" fill="#FEFFFF" transform="matrix(1.00, 0.00, -0.00, -1.00, 763.0, 878.7)">o</text><text xml:space="preserve" font-family="GillSans-Light,Gill Sans" font-size="49.0" fill="#FEFFFF" transform="matrix(1.00, 0.00, -0.00, -1.00, 789.5, 878.7)"> </text><text xml:space="preserve" font-family="GillSans-SemiBold,Gill Sans" font-weight="bold" font-size="49.0" fill="#FEFFFF" transform="matrix(1.00, 0.00, -0.00, -1.00, 803.2, 878.7)">X</text><text xml:space="preserve" font-family="GillSans-SemiBold,Gill Sans" font-weight="bold" font-size="49.0" fill="#FEFFFF" transform="matrix(1.00, 0.00, -0.00, -1.00, 840.6, 878.7)">1</text><text xml:space="preserve" font-family="GillSans-Light,Gill Sans" font-size="49.0" fill="#FEFFFF" transform="matrix(1.00, 0.00, -0.00, -1.00, 866.4, 878.7)"> </text><text xml:space="preserve" font-family="GillSans-Light,Gill Sans" font-size="49.0" fill="#FEFFFF" transform="matrix(1.00, 0.00, -0.00, -1.00, 880.0, 878.7)">e</text><text xml:space="preserve" font-family="GillSans-Light,Gill Sans" font-size="49.0" fill="#FEFFFF" transform="matrix(1.00, 0.00, -0.00, -1.00, 903.5, 878.7)"> </text><text xml:space="preserve" font-family="GillSans-SemiBold,Gill Sans" font-weight="bold" font-size="49.0" fill="#FEFFFF" transform="matrix(1.00, 0.00, -0.00, -1.00, 917.1, 878.7)">X</text><text xml:space="preserve" font-family="GillSans-SemiBold,Gill Sans" font-weight="bold" font-size="49.0" fill="#FEFFFF" transform="matrix(1.00, 0.00, -0.00, -1.00, 954.5, 878.7)">2</text><text xml:space="preserve" font-family="GillSans-Light,Gill Sans" font-size="49.0" fill="#FEFFFF" transform="matrix(1.00, 0.00, -0.00, -1.00, 980.4, 878.7)"> </text><text xml:space="preserve" font-family="GillSans-Light,Gill Sans" font-size="49.0" fill="#FEFFFF" transform="matrix(1.00, 0.00, -0.00, -1.00, 994.0, 878.7)">d</text><text xml:space="preserve" font-family="GillSans-Light,Gill Sans" font-size="49.0" fill="#FEFFFF" transform="matrix(1.00, 0.00, -0.00, -1.00, 1018.9, 878.7)">e</text><text xml:space="preserve" font-family="GillSans-Light,Gill Sans" font-size="49.0" fill="#FEFFFF" transform="matrix(1.00, 0.00, -0.00, -1.00, 1042.4, 878.7)">v</text><text xml:space="preserve" font-family="GillSans-Light,Gill Sans" font-size="49.0" fill="#FEFFFF" transform="matrix(1.00, 0.00, -0.00, -1.00, 1062.6, 878.7)">o</text><text xml:space="preserve" font-family="GillSans-Light,Gill Sans" font-size="49.0" fill="#FEFFFF" transform="matrix(1.00, 0.00, -0.00, -1.00, 1089.1, 878.7)">l</text><text xml:space="preserve" font-family="GillSans-Light,Gill Sans" font-size="49.0" fill="#FEFFFF" transform="matrix(1.00, 0.00, -0.00, -1.00, 1098.3, 878.7)">v</text><text xml:space="preserve" font-family="GillSans-Light,Gill Sans" font-size="49.0" fill="#FEFFFF" transform="matrix(1.00, 0.00, -0.00, -1.00, 1119.2, 878.7)">a</text><text xml:space="preserve" font-family="GillSans-Light,Gill Sans" font-size="49.0" fill="#FEFFFF" transform="matrix(1.00, 0.00, -0.00, -1.00, 1140.1, 878.7)"> </text><text xml:space="preserve" font-family="GillSans-SemiBold,Gill Sans" font-weight="bold" font-size="49.0" fill="#FEFFFF" transform="matrix(1.00, 0.00, -0.00, -1.00, 1153.8, 878.7)">R</text><text xml:space="preserve" font-family="GillSans-SemiBold,Gill Sans" font-weight="bold" font-size="49.0" fill="#FEFFFF" transform="matrix(1.00, 0.00, -0.00, -1.00, 1184.4, 878.7)">e</text><text xml:space="preserve" font-family="GillSans-SemiBold,Gill Sans" font-weight="bold" font-size="49.0" fill="#FEFFFF" transform="matrix(1.00, 0.00, -0.00, -1.00, 1209.7, 878.7)">s</text><text xml:space="preserve" font-family="GillSans-SemiBold,Gill Sans" font-weight="bold" font-size="49.0" fill="#FEFFFF" transform="matrix(1.00, 0.00, -0.00, -1.00, 1229.5, 878.7)">u</text><text xml:space="preserve" font-family="GillSans-SemiBold,Gill Sans" font-weight="bold" font-size="49.0" fill="#FEFFFF" transform="matrix(1.00, 0.00, -0.00, -1.00, 1255.9, 878.7)">l</text><text xml:space="preserve" font-family="GillSans-SemiBold,Gill Sans" font-weight="bold" font-size="49.0" fill="#FEFFFF" transform="matrix(1.00, 0.00, -0.00, -1.00, 1268.1, 878.7)">t</text><text xml:space="preserve" font-family="GillSans-SemiBold,Gill Sans" font-weight="bold" font-size="49.0" fill="#FEFFFF" transform="matrix(1.00, 0.00, -0.00, -1.00, 1286.2, 878.7)">a</text><text xml:space="preserve" font-family="GillSans-SemiBold,Gill Sans" font-weight="bold" font-size="49.0" fill="#FEFFFF" transform="matrix(1.00, 0.00, -0.00, -1.00, 1309.8, 878.7)">d</text><text xml:space="preserve" font-family="GillSans-SemiBold,Gill Sans" font-weight="bold" font-size="49.0" fill="#FEFFFF" transform="matrix(1.00, 0.00, -0.00, -1.00, 1336.7, 878.7)">o</text></g></g></g></svg>