<?xml version="1.0" encoding="UTF-8" standalone="no"?><svg xmlns="http://www.w3.org/2000/svg" xmlns:xlink="http://www.w3.org/1999/xlink" clip-rule="evenodd" stroke-miterlimit="10" viewBox="0 0 1920 1080"><desc>SVG generated by Keynote</desc><defs></defs><g transform="matrix(1.00, 0.00, -0.00, -1.00, 0.0, 1080.0)"><g><clipPath id="clip0x6000018ba460"><path d="M 0.0 1080.0 L 1920.0 1080.0 L 1920.0 0.0 L 0.0 0.0 Z M 0.0 1080.0 "></path></clipPath><g clip-path="url(#clip0x6000018ba460)"><image xlink:href="../../670AF0A5-B06C-45B2-A649-BC83FE98871A/assets/400D38DE9BD779267D8D9BA1A44336F3.jpeg" width="3840.00" height="2160.00" transform="matrix(0.50, 0.00, -0.00, -0.50, 0.0, 1080.0)"></image></g></g><image xlink:href="../../867A16FB-847D-4809-9820-F1FC2E0071F3/assets/2830E3B464DC16FB4E268CA017F3CF9D.png" width="641.00" height="647.00" transform="matrix(1.52, 0.00, -0.00, -1.52, 893.0, 1033.0)"></image><path d="M 78.0 1002.0 L 1091.0 1002.0 L 1091.0 78.0 L 78.0 78.0 Z M 77.8 1002.2 " fill="#AA1802"></path><g><clipPath id="clip0x6000018ba880"><path d="M 67.2 77.8 L 1101.9 77.8 L 1101.9 1002.2 L 67.2 1002.2 Z M 67.2 77.8 "></path></clipPath><g clip-path="url(#clip0x6000018ba880)"><text xml:space="preserve" font-family="GillSans-SemiBold,Gill Sans" font-weight="bold" font-size="49.0" fill="#FEFFFF" transform="matrix(1.00, 0.00, -0.00, -1.00, 117.8, 789.4)">D</text><text xml:space="preserve" font-family="GillSans-SemiBold,Gill Sans" font-weight="bold" font-size="49.0" fill="#FEFFFF" transform="matrix(1.00, 0.00, -0.00, -1.00, 155.7, 789.4)">i</text><text xml:space="preserve" font-family="GillSans-SemiBold,Gill Sans" font-weight="bold" font-size="49.0" fill="#FEFFFF" transform="matrix(1.00, 0.00, -0.00, -1.00, 167.8, 789.4)">z</text><text xml:space="preserve" font-family="GillSans-SemiBold,Gill Sans" font-weight="bold" font-size="49.0" fill="#FEFFFF" transform="matrix(1.00, 0.00, -0.00, -1.00, 191.1, 789.4)">a</text><text xml:space="preserve" font-family="GillSans-SemiBold,Gill Sans" font-weight="bold" font-size="49.0" fill="#FEFFFF" transform="matrix(1.00, 0.00, -0.00, -1.00, 214.7, 789.4)">n</text><text xml:space="preserve" font-family="GillSans-SemiBold,Gill Sans" font-weight="bold" font-size="49.0" fill="#FEFFFF" transform="matrix(1.00, 0.00, -0.00, -1.00, 241.2, 789.4)">d</text><text xml:space="preserve" font-family="GillSans-SemiBold,Gill Sans" font-weight="bold" font-size="49.0" fill="#FEFFFF" transform="matrix(1.00, 0.00, -0.00, -1.00, 268.1, 789.4)">o</text><text xml:space="preserve" font-family="GillSans-SemiBold,Gill Sans" font-weight="bold" font-size="49.0" fill="#FEFFFF" transform="matrix(1.00, 0.00, -0.00, -1.00, 296.2, 789.4)"> </text><text xml:space="preserve" font-family="GillSans-SemiBold,Gill Sans" font-weight="bold" font-size="49.0" fill="#FEFFFF" transform="matrix(1.00, 0.00, -0.00, -1.00, 309.8, 789.4)">N</text><text xml:space="preserve" font-family="GillSans-SemiBold,Gill Sans" font-weight="bold" font-size="49.0" fill="#FEFFFF" transform="matrix(1.00, 0.00, -0.00, -1.00, 349.0, 789.4)">o</text><text xml:space="preserve" font-family="GillSans-SemiBold,Gill Sans" font-weight="bold" font-size="49.0" fill="#FEFFFF" transform="matrix(1.00, 0.00, -0.00, -1.00, 377.1, 789.4)">r</text><text xml:space="preserve" font-family="GillSans-SemiBold,Gill Sans" font-weight="bold" font-size="49.0" fill="#FEFFFF" transform="matrix(1.00, 0.00, -0.00, -1.00, 397.5, 789.4)">t</text><text xml:space="preserve" font-family="GillSans-SemiBold,Gill Sans" font-weight="bold" font-size="49.0" fill="#FEFFFF" transform="matrix(1.00, 0.00, -0.00, -1.00, 415.6, 789.4)">o</text><text xml:space="preserve" font-family="GillSans-SemiBold,Gill Sans" font-weight="bold" font-size="49.0" fill="#FEFFFF" transform="matrix(1.00, 0.00, -0.00, -1.00, 443.7, 789.4)">n</text><text xml:space="preserve" font-family="GillSans-SemiBold,Gill Sans" font-weight="bold" font-size="49.0" fill="#FEFFFF" transform="matrix(1.00, 0.00, -0.00, -1.00, 470.2, 789.4)">,</text><text xml:space="preserve" font-family="GillSans-SemiBold,Gill Sans" font-weight="bold" font-size="49.0" fill="#FEFFFF" transform="matrix(1.00, 0.00, -0.00, -1.00, 482.3, 789.4)"> </text><text xml:space="preserve" font-family="GillSans-SemiBold,Gill Sans" font-weight="bold" font-size="49.0" fill="#FEFFFF" transform="matrix(1.00, 0.00, -0.00, -1.00, 495.9, 789.4)">M</text><text xml:space="preserve" font-family="GillSans-SemiBold,Gill Sans" font-weight="bold" font-size="49.0" fill="#FEFFFF" transform="matrix(1.00, 0.00, -0.00, -1.00, 536.8, 789.4)">S</text><text xml:space="preserve" font-family="GillSans-SemiBold,Gill Sans" font-weight="bold" font-size="49.0" fill="#FEFFFF" transform="matrix(1.00, 0.00, -0.00, -1.00, 563.0, 789.4)">c</text><text xml:space="preserve" font-family="GillSans-Light,Gill Sans" font-size="46.0" fill="#FEFFFF" transform="matrix(1.00, 0.00, -0.00, -1.00, 117.8, 736.1)">P</text><text xml:space="preserve" font-family="GillSans-Light,Gill Sans" font-size="46.0" fill="#FEFFFF" transform="matrix(1.00, 0.00, -0.00, -1.00, 141.3, 736.1)">r</text><text xml:space="preserve" font-family="GillSans-Light,Gill Sans" font-size="46.0" fill="#FEFFFF" transform="matrix(1.00, 0.00, -0.00, -1.00, 156.6, 736.1)">o</text><text xml:space="preserve" font-family="GillSans-Light,Gill Sans" font-size="46.0" fill="#FEFFFF" transform="matrix(1.00, 0.00, -0.00, -1.00, 181.5, 736.1)">f</text><text xml:space="preserve" font-family="GillSans-Light,Gill Sans" font-size="46.0" fill="#FEFFFF" transform="matrix(1.00, 0.00, -0.00, -1.00, 191.9, 736.1)">e</text><text xml:space="preserve" font-family="GillSans-Light,Gill Sans" font-size="46.0" fill="#FEFFFF" transform="matrix(1.00, 0.00, -0.00, -1.00, 213.9, 736.1)">s</text><text xml:space="preserve" font-family="GillSans-Light,Gill Sans" font-size="46.0" fill="#FEFFFF" transform="matrix(1.00, 0.00, -0.00, -1.00, 230.2, 736.1)">s</text><text xml:space="preserve" font-family="GillSans-Light,Gill Sans" font-size="46.0" fill="#FEFFFF" transform="matrix(1.00, 0.00, -0.00, -1.00, 246.5, 736.1)">o</text><text xml:space="preserve" font-family="GillSans-Light,Gill Sans" font-size="46.0" fill="#FEFFFF" transform="matrix(1.00, 0.00, -0.00, -1.00, 271.4, 736.1)">r</text><text xml:space="preserve" font-family="GillSans-Light,Gill Sans" font-size="46.0" fill="#FEFFFF" transform="matrix(1.00, 0.00, -0.00, -1.00, 286.7, 736.1)"> </text><text xml:space="preserve" font-family="GillSans-Light,Gill Sans" font-size="46.0" fill="#FEFFFF" transform="matrix(1.00, 0.00, -0.00, -1.00, 299.5, 736.1)">n</text><text xml:space="preserve" font-family="GillSans-Light,Gill Sans" font-size="46.0" fill="#FEFFFF" transform="matrix(1.00, 0.00, -0.00, -1.00, 322.1, 736.1)">o</text><text xml:space="preserve" font-family="GillSans-Light,Gill Sans" font-size="46.0" fill="#FEFFFF" transform="matrix(1.00, 0.00, -0.00, -1.00, 347.0, 736.1)"> </text><text xml:space="preserve" font-family="GillSans-Light,Gill Sans" font-size="46.0" fill="#FEFFFF" transform="matrix(1.00, 0.00, -0.00, -1.00, 359.8, 736.1)">C</text><text xml:space="preserve" font-family="GillSans-Light,Gill Sans" font-size="46.0" fill="#FEFFFF" transform="matrix(1.00, 0.00, -0.00, -1.00, 390.9, 736.1)">u</text><text xml:space="preserve" font-family="GillSans-Light,Gill Sans" font-size="46.0" fill="#FEFFFF" transform="matrix(1.00, 0.00, -0.00, -1.00, 413.4, 736.1)">r</text><text xml:space="preserve" font-family="GillSans-Light,Gill Sans" font-size="46.0" fill="#FEFFFF" transform="matrix(1.00, 0.00, -0.00, -1.00, 430.6, 736.1)">s</text><text xml:space="preserve" font-family="GillSans-Light,Gill Sans" font-size="46.0" fill="#FEFFFF" transform="matrix(1.00, 0.00, -0.00, -1.00, 446.9, 736.1)">o</text><text xml:space="preserve" font-family="GillSans-Light,Gill Sans" font-size="46.0" fill="#FEFFFF" transform="matrix(1.00, 0.00, -0.00, -1.00, 471.8, 736.1)"> </text><text xml:space="preserve" font-family="GillSans-Light,Gill Sans" font-size="46.0" fill="#FEFFFF" transform="matrix(1.00, 0.00, -0.00, -1.00, 484.6, 736.1)">d</text><text xml:space="preserve" font-family="GillSans-Light,Gill Sans" font-size="46.0" fill="#FEFFFF" transform="matrix(1.00, 0.00, -0.00, -1.00, 508.0, 736.1)">e</text><text xml:space="preserve" font-family="GillSans-Light,Gill Sans" font-size="46.0" fill="#FEFFFF" transform="matrix(1.00, 0.00, -0.00, -1.00, 530.1, 736.1)"> </text><text xml:space="preserve" font-family="GillSans-Light,Gill Sans" font-size="46.0" fill="#FEFFFF" transform="matrix(1.00, 0.00, -0.00, -1.00, 542.8, 736.1)">C</text><text xml:space="preserve" font-family="GillSans-Light,Gill Sans" font-size="46.0" fill="#FEFFFF" transform="matrix(1.00, 0.00, -0.00, -1.00, 574.0, 736.1)">i</text><text xml:space="preserve" font-family="GillSans-Light,Gill Sans" font-size="46.0" fill="#FEFFFF" transform="matrix(1.00, 0.00, -0.00, -1.00, 582.6, 736.1)">ê</text><text xml:space="preserve" font-family="GillSans-Light,Gill Sans" font-size="46.0" fill="#FEFFFF" transform="matrix(1.00, 0.00, -0.00, -1.00, 604.6, 736.1)">n</text><text xml:space="preserve" font-family="GillSans-Light,Gill Sans" font-size="46.0" fill="#FEFFFF" transform="matrix(1.00, 0.00, -0.00, -1.00, 627.2, 736.1)">c</text><text xml:space="preserve" font-family="GillSans-Light,Gill Sans" font-size="46.0" fill="#FEFFFF" transform="matrix(1.00, 0.00, -0.00, -1.00, 646.4, 736.1)">i</text><text xml:space="preserve" font-family="GillSans-Light,Gill Sans" font-size="46.0" fill="#FEFFFF" transform="matrix(1.00, 0.00, -0.00, -1.00, 655.0, 736.1)">a</text><text xml:space="preserve" font-family="GillSans-Light,Gill Sans" font-size="46.0" fill="#FEFFFF" transform="matrix(1.00, 0.00, -0.00, -1.00, 674.6, 736.1)"> </text><text xml:space="preserve" font-family="GillSans-Light,Gill Sans" font-size="46.0" fill="#FEFFFF" transform="matrix(1.00, 0.00, -0.00, -1.00, 687.4, 736.1)">d</text><text xml:space="preserve" font-family="GillSans-Light,Gill Sans" font-size="46.0" fill="#FEFFFF" transform="matrix(1.00, 0.00, -0.00, -1.00, 710.9, 736.1)">a</text><text xml:space="preserve" font-family="GillSans-Light,Gill Sans" font-size="46.0" fill="#FEFFFF" transform="matrix(1.00, 0.00, -0.00, -1.00, 730.5, 736.1)"> </text><text xml:space="preserve" font-family="GillSans-Light,Gill Sans" font-size="46.0" fill="#FEFFFF" transform="matrix(1.00, 0.00, -0.00, -1.00, 743.2, 736.1)">C</text><text xml:space="preserve" font-family="GillSans-Light,Gill Sans" font-size="46.0" fill="#FEFFFF" transform="matrix(1.00, 0.00, -0.00, -1.00, 774.4, 736.1)">o</text><text xml:space="preserve" font-family="GillSans-Light,Gill Sans" font-size="46.0" fill="#FEFFFF" transform="matrix(1.00, 0.00, -0.00, -1.00, 799.3, 736.1)">m</text><text xml:space="preserve" font-family="GillSans-Light,Gill Sans" font-size="46.0" fill="#FEFFFF" transform="matrix(1.00, 0.00, -0.00, -1.00, 834.8, 736.1)">p</text><text xml:space="preserve" font-family="GillSans-Light,Gill Sans" font-size="46.0" fill="#FEFFFF" transform="matrix(1.00, 0.00, -0.00, -1.00, 858.2, 736.1)">u</text><text xml:space="preserve" font-family="GillSans-Light,Gill Sans" font-size="46.0" fill="#FEFFFF" transform="matrix(1.00, 0.00, -0.00, -1.00, 880.8, 736.1)">t</text><text xml:space="preserve" font-family="GillSans-Light,Gill Sans" font-size="46.0" fill="#FEFFFF" transform="matrix(1.00, 0.00, -0.00, -1.00, 894.6, 736.1)">a</text><text xml:space="preserve" font-family="GillSans-Light,Gill Sans" font-size="46.0" fill="#FEFFFF" transform="matrix(1.00, 0.00, -0.00, -1.00, 914.3, 736.1)">ç</text><text xml:space="preserve" font-family="GillSans-Light,Gill Sans" font-size="46.0" fill="#FEFFFF" transform="matrix(1.00, 0.00, -0.00, -1.00, 933.4, 736.1)">ã</text><text xml:space="preserve" font-family="GillSans-Light,Gill Sans" font-size="46.0" fill="#FEFFFF" transform="matrix(1.00, 0.00, -0.00, -1.00, 953.1, 736.1)">o</text><text xml:space="preserve" font-family="GillSans-Light,Gill Sans" font-size="46.0" fill="#FEFFFF" transform="matrix(1.00, 0.00, -0.00, -1.00, 978.0, 736.1)"> </text><text xml:space="preserve" font-family="GillSans-Light,Gill Sans" font-size="46.0" fill="#FEFFFF" transform="matrix(1.00, 0.00, -0.00, -1.00, 990.8, 736.1)">n</text><text xml:space="preserve" font-family="GillSans-Light,Gill Sans" font-size="46.0" fill="#FEFFFF" transform="matrix(1.00, 0.00, -0.00, -1.00, 1013.3, 736.1)">a</text><text xml:space="preserve" font-family="GillSans-Light,Gill Sans" font-size="46.0" fill="#FEFFFF" transform="matrix(1.00, 0.00, -0.00, -1.00, 1032.9, 736.1)"> </text><text xml:space="preserve" font-family="GillSans-Light,Gill Sans" font-size="46.0" fill="#FEFFFF" transform="matrix(1.00, 0.00, -0.00, -1.00, 117.8, 684.1)">F</text><text xml:space="preserve" font-family="GillSans-Light,Gill Sans" font-size="46.0" fill="#FEFFFF" transform="matrix(1.00, 0.00, -0.00, -1.00, 138.0, 684.1)">a</text><text xml:space="preserve" font-family="GillSans-Light,Gill Sans" font-size="46.0" fill="#FEFFFF" transform="matrix(1.00, 0.00, -0.00, -1.00, 157.6, 684.1)">c</text><text xml:space="preserve" font-family="GillSans-Light,Gill Sans" font-size="46.0" fill="#FEFFFF" transform="matrix(1.00, 0.00, -0.00, -1.00, 176.8, 684.1)">u</text><text xml:space="preserve" font-family="GillSans-Light,Gill Sans" font-size="46.0" fill="#FEFFFF" transform="matrix(1.00, 0.00, -0.00, -1.00, 199.3, 684.1)">l</text><text xml:space="preserve" font-family="GillSans-Light,Gill Sans" font-size="46.0" fill="#FEFFFF" transform="matrix(1.00, 0.00, -0.00, -1.00, 208.0, 684.1)">d</text><text xml:space="preserve" font-family="GillSans-Light,Gill Sans" font-size="46.0" fill="#FEFFFF" transform="matrix(1.00, 0.00, -0.00, -1.00, 231.4, 684.1)">a</text><text xml:space="preserve" font-family="GillSans-Light,Gill Sans" font-size="46.0" fill="#FEFFFF" transform="matrix(1.00, 0.00, -0.00, -1.00, 251.0, 684.1)">d</text><text xml:space="preserve" font-family="GillSans-Light,Gill Sans" font-size="46.0" fill="#FEFFFF" transform="matrix(1.00, 0.00, -0.00, -1.00, 274.5, 684.1)">e</text><text xml:space="preserve" font-family="GillSans-Light,Gill Sans" font-size="46.0" fill="#FEFFFF" transform="matrix(1.00, 0.00, -0.00, -1.00, 296.5, 684.1)"> </text><text xml:space="preserve" font-family="GillSans-Light,Gill Sans" font-size="46.0" fill="#FEFFFF" transform="matrix(1.00, 0.00, -0.00, -1.00, 309.3, 684.1)">d</text><text xml:space="preserve" font-family="GillSans-Light,Gill Sans" font-size="46.0" fill="#FEFFFF" transform="matrix(1.00, 0.00, -0.00, -1.00, 332.7, 684.1)">e</text><text xml:space="preserve" font-family="GillSans-Light,Gill Sans" font-size="46.0" fill="#FEFFFF" transform="matrix(1.00, 0.00, -0.00, -1.00, 354.8, 684.1)"> </text><text xml:space="preserve" font-family="GillSans-Light,Gill Sans" font-size="46.0" fill="#FEFFFF" transform="matrix(1.00, 0.00, -0.00, -1.00, 367.5, 684.1)">C</text><text xml:space="preserve" font-family="GillSans-Light,Gill Sans" font-size="46.0" fill="#FEFFFF" transform="matrix(1.00, 0.00, -0.00, -1.00, 398.6, 684.1)">i</text><text xml:space="preserve" font-family="GillSans-Light,Gill Sans" font-size="46.0" fill="#FEFFFF" transform="matrix(1.00, 0.00, -0.00, -1.00, 407.3, 684.1)">ê</text><text xml:space="preserve" font-family="GillSans-Light,Gill Sans" font-size="46.0" fill="#FEFFFF" transform="matrix(1.00, 0.00, -0.00, -1.00, 429.3, 684.1)">n</text><text xml:space="preserve" font-family="GillSans-Light,Gill Sans" font-size="46.0" fill="#FEFFFF" transform="matrix(1.00, 0.00, -0.00, -1.00, 451.9, 684.1)">c</text><text xml:space="preserve" font-family="GillSans-Light,Gill Sans" font-size="46.0" fill="#FEFFFF" transform="matrix(1.00, 0.00, -0.00, -1.00, 471.1, 684.1)">i</text><text xml:space="preserve" font-family="GillSans-Light,Gill Sans" font-size="46.0" fill="#FEFFFF" transform="matrix(1.00, 0.00, -0.00, -1.00, 479.7, 684.1)">a</text><text xml:space="preserve" font-family="GillSans-Light,Gill Sans" font-size="46.0" fill="#FEFFFF" transform="matrix(1.00, 0.00, -0.00, -1.00, 499.3, 684.1)">s</text><text xml:space="preserve" font-family="GillSans-Light,Gill Sans" font-size="46.0" fill="#FEFFFF" transform="matrix(1.00, 0.00, -0.00, -1.00, 515.6, 684.1)"> </text><text xml:space="preserve" font-family="GillSans-Light,Gill Sans" font-size="46.0" fill="#FEFFFF" transform="matrix(1.00, 0.00, -0.00, -1.00, 528.4, 684.1)">d</text><text xml:space="preserve" font-family="GillSans-Light,Gill Sans" font-size="46.0" fill="#FEFFFF" transform="matrix(1.00, 0.00, -0.00, -1.00, 551.8, 684.1)">a</text><text xml:space="preserve" font-family="GillSans-Light,Gill Sans" font-size="46.0" fill="#FEFFFF" transform="matrix(1.00, 0.00, -0.00, -1.00, 571.5, 684.1)"> </text><text xml:space="preserve" font-family="GillSans-Light,Gill Sans" font-size="46.0" fill="#FEFFFF" transform="matrix(1.00, 0.00, -0.00, -1.00, 584.2, 684.1)">U</text><text xml:space="preserve" font-family="GillSans-Light,Gill Sans" font-size="46.0" fill="#FEFFFF" transform="matrix(1.00, 0.00, -0.00, -1.00, 615.0, 684.1)">A</text><text xml:space="preserve" font-family="GillSans-Light,Gill Sans" font-size="46.0" fill="#FEFFFF" transform="matrix(1.00, 0.00, -0.00, -1.00, 645.7, 684.1)">N</text><text xml:space="preserve" font-family="GillSans-Light,Gill Sans" font-size="46.0" fill="#FEFFFF" transform="matrix(1.00, 0.00, -0.00, -1.00, 117.8, 632.1)">C</text><text xml:space="preserve" font-family="GillSans-Light,Gill Sans" font-size="46.0" fill="#FEFFFF" transform="matrix(1.00, 0.00, -0.00, -1.00, 148.9, 632.1)">o</text><text xml:space="preserve" font-family="GillSans-Light,Gill Sans" font-size="46.0" fill="#FEFFFF" transform="matrix(1.00, 0.00, -0.00, -1.00, 173.9, 632.1)">-</text><text xml:space="preserve" font-family="GillSans-Light,Gill Sans" font-size="46.0" fill="#FEFFFF" transform="matrix(1.00, 0.00, -0.00, -1.00, 188.3, 632.1)">o</text><text xml:space="preserve" font-family="GillSans-Light,Gill Sans" font-size="46.0" fill="#FEFFFF" transform="matrix(1.00, 0.00, -0.00, -1.00, 213.2, 632.1)">r</text><text xml:space="preserve" font-family="GillSans-Light,Gill Sans" font-size="46.0" fill="#FEFFFF" transform="matrix(1.00, 0.00, -0.00, -1.00, 229.7, 632.1)">g</text><text xml:space="preserve" font-family="GillSans-Light,Gill Sans" font-size="46.0" fill="#FEFFFF" transform="matrix(1.00, 0.00, -0.00, -1.00, 249.3, 632.1)">a</text><text xml:space="preserve" font-family="GillSans-Light,Gill Sans" font-size="46.0" fill="#FEFFFF" transform="matrix(1.00, 0.00, -0.00, -1.00, 268.9, 632.1)">n</text><text xml:space="preserve" font-family="GillSans-Light,Gill Sans" font-size="46.0" fill="#FEFFFF" transform="matrix(1.00, 0.00, -0.00, -1.00, 291.5, 632.1)">i</text><text xml:space="preserve" font-family="GillSans-Light,Gill Sans" font-size="46.0" fill="#FEFFFF" transform="matrix(1.00, 0.00, -0.00, -1.00, 300.1, 632.1)">z</text><text xml:space="preserve" font-family="GillSans-Light,Gill Sans" font-size="46.0" fill="#FEFFFF" transform="matrix(1.00, 0.00, -0.00, -1.00, 318.3, 632.1)">a</text><text xml:space="preserve" font-family="GillSans-Light,Gill Sans" font-size="46.0" fill="#FEFFFF" transform="matrix(1.00, 0.00, -0.00, -1.00, 337.9, 632.1)">d</text><text xml:space="preserve" font-family="GillSans-Light,Gill Sans" font-size="46.0" fill="#FEFFFF" transform="matrix(1.00, 0.00, -0.00, -1.00, 361.4, 632.1)">o</text><text xml:space="preserve" font-family="GillSans-Light,Gill Sans" font-size="46.0" fill="#FEFFFF" transform="matrix(1.00, 0.00, -0.00, -1.00, 386.3, 632.1)">r</text><text xml:space="preserve" font-family="GillSans-Light,Gill Sans" font-size="46.0" fill="#FEFFFF" transform="matrix(1.00, 0.00, -0.00, -1.00, 401.6, 632.1)"> </text><text xml:space="preserve" font-family="GillSans-Light,Gill Sans" font-size="46.0" fill="#FEFFFF" transform="matrix(1.00, 0.00, -0.00, -1.00, 414.4, 632.1)">d</text><text xml:space="preserve" font-family="GillSans-Light,Gill Sans" font-size="46.0" fill="#FEFFFF" transform="matrix(1.00, 0.00, -0.00, -1.00, 437.9, 632.1)">o</text><text xml:space="preserve" font-family="GillSans-Light,Gill Sans" font-size="46.0" fill="#FEFFFF" transform="matrix(1.00, 0.00, -0.00, -1.00, 462.8, 632.1)"> </text><text xml:space="preserve" font-family="GillSans-Light,Gill Sans" font-size="46.0" fill="#FEFFFF" transform="matrix(1.00, 0.00, -0.00, -1.00, 475.6, 632.1)">G</text><text xml:space="preserve" font-family="GillSans-Light,Gill Sans" font-size="46.0" fill="#FEFFFF" transform="matrix(1.00, 0.00, -0.00, -1.00, 508.6, 632.1)">D</text><text xml:space="preserve" font-family="GillSans-Light,Gill Sans" font-size="46.0" fill="#FEFFFF" transform="matrix(1.00, 0.00, -0.00, -1.00, 542.7, 632.1)">G</text><text xml:space="preserve" font-family="GillSans-Light,Gill Sans" font-size="46.0" fill="#FEFFFF" transform="matrix(1.00, 0.00, -0.00, -1.00, 575.8, 632.1)"> </text><text xml:space="preserve" font-family="GillSans-Light,Gill Sans" font-size="46.0" fill="#FEFFFF" transform="matrix(1.00, 0.00, -0.00, -1.00, 588.6, 632.1)">L</text><text xml:space="preserve" font-family="GillSans-Light,Gill Sans" font-size="46.0" fill="#FEFFFF" transform="matrix(1.00, 0.00, -0.00, -1.00, 610.2, 632.1)">u</text><text xml:space="preserve" font-family="GillSans-Light,Gill Sans" font-size="46.0" fill="#FEFFFF" transform="matrix(1.00, 0.00, -0.00, -1.00, 632.7, 632.1)">a</text><text xml:space="preserve" font-family="GillSans-Light,Gill Sans" font-size="46.0" fill="#FEFFFF" transform="matrix(1.00, 0.00, -0.00, -1.00, 652.3, 632.1)">n</text><text xml:space="preserve" font-family="GillSans-Light,Gill Sans" font-size="46.0" fill="#FEFFFF" transform="matrix(1.00, 0.00, -0.00, -1.00, 674.9, 632.1)">d</text><text xml:space="preserve" font-family="GillSans-Light,Gill Sans" font-size="46.0" fill="#FEFFFF" transform="matrix(1.00, 0.00, -0.00, -1.00, 698.3, 632.1)">a</text><text xml:space="preserve" font-family="GillSans-Light,Gill Sans" font-size="46.0" fill="#FEFFFF" transform="matrix(1.00, 0.00, -0.00, -1.00, 117.8, 580.1)">…</text><text xml:space="preserve" font-family="GillSans-SemiBold,Gill Sans" font-weight="bold" font-size="46.0" fill="#FEFFFF" transform="matrix(1.00, 0.00, -0.00, -1.00, 117.8, 421.7)">w</text><text xml:space="preserve" font-family="GillSans-SemiBold,Gill Sans" font-weight="bold" font-size="46.0" fill="#FEFFFF" transform="matrix(1.00, 0.00, -0.00, -1.00, 152.5, 421.7)">w</text><text xml:space="preserve" font-family="GillSans-SemiBold,Gill Sans" font-weight="bold" font-size="46.0" fill="#FEFFFF" transform="matrix(1.00, 0.00, -0.00, -1.00, 187.3, 421.7)">w</text><text xml:space="preserve" font-family="GillSans-SemiBold,Gill Sans" font-weight="bold" font-size="46.0" fill="#FEFFFF" transform="matrix(1.00, 0.00, -0.00, -1.00, 220.1, 421.7)">.</text><text xml:space="preserve" font-family="GillSans-SemiBold,Gill Sans" font-weight="bold" font-size="46.0" fill="#FEFFFF" transform="matrix(1.00, 0.00, -0.00, -1.00, 231.5, 421.7)">d</text><text xml:space="preserve" font-family="GillSans-SemiBold,Gill Sans" font-weight="bold" font-size="46.0" fill="#FEFFFF" transform="matrix(1.00, 0.00, -0.00, -1.00, 256.7, 421.7)">i</text><text xml:space="preserve" font-family="GillSans-SemiBold,Gill Sans" font-weight="bold" font-size="46.0" fill="#FEFFFF" transform="matrix(1.00, 0.00, -0.00, -1.00, 268.1, 421.7)">z</text><text xml:space="preserve" font-family="GillSans-SemiBold,Gill Sans" font-weight="bold" font-size="46.0" fill="#FEFFFF" transform="matrix(1.00, 0.00, -0.00, -1.00, 289.9, 421.7)">a</text><text xml:space="preserve" font-family="GillSans-SemiBold,Gill Sans" font-weight="bold" font-size="46.0" fill="#FEFFFF" transform="matrix(1.00, 0.00, -0.00, -1.00, 312.1, 421.7)">n</text><text xml:space="preserve" font-family="GillSans-SemiBold,Gill Sans" font-weight="bold" font-size="46.0" fill="#FEFFFF" transform="matrix(1.00, 0.00, -0.00, -1.00, 337.0, 421.7)">d</text><text xml:space="preserve" font-family="GillSans-SemiBold,Gill Sans" font-weight="bold" font-size="46.0" fill="#FEFFFF" transform="matrix(1.00, 0.00, -0.00, -1.00, 362.2, 421.7)">o</text><text xml:space="preserve" font-family="GillSans-SemiBold,Gill Sans" font-weight="bold" font-size="46.0" fill="#FEFFFF" transform="matrix(1.00, 0.00, -0.00, -1.00, 388.5, 421.7)">.</text><text xml:space="preserve" font-family="GillSans-SemiBold,Gill Sans" font-weight="bold" font-size="46.0" fill="#FEFFFF" transform="matrix(1.00, 0.00, -0.00, -1.00, 399.9, 421.7)">m</text><text xml:space="preserve" font-family="GillSans-SemiBold,Gill Sans" font-weight="bold" font-size="46.0" fill="#FEFFFF" transform="matrix(1.00, 0.00, -0.00, -1.00, 438.8, 421.7)">e</text><text xml:space="preserve" font-family="GillSans-SemiBold,Gill Sans" font-weight="bold" font-size="46.0" fill="#FEFFFF" transform="matrix(1.00, 0.00, -0.00, -1.00, 462.5, 421.7)"> </text><text xml:space="preserve" font-family="GillSans-SemiBold,Gill Sans" font-weight="bold" font-size="46.0" fill="#FEFFFF" transform="matrix(1.00, 0.00, -0.00, -1.00, 117.8, 366.7)">w</text><text xml:space="preserve" font-family="GillSans-SemiBold,Gill Sans" font-weight="bold" font-size="46.0" fill="#FEFFFF" transform="matrix(1.00, 0.00, -0.00, -1.00, 152.5, 366.7)">w</text><text xml:space="preserve" font-family="GillSans-SemiBold,Gill Sans" font-weight="bold" font-size="46.0" fill="#FEFFFF" transform="matrix(1.00, 0.00, -0.00, -1.00, 187.3, 366.7)">w</text><text xml:space="preserve" font-family="GillSans-SemiBold,Gill Sans" font-weight="bold" font-size="46.0" fill="#FEFFFF" transform="matrix(1.00, 0.00, -0.00, -1.00, 220.1, 366.7)">.</text><text xml:space="preserve" font-family="GillSans-SemiBold,Gill Sans" font-weight="bold" font-size="46.0" fill="#FEFFFF" transform="matrix(1.00, 0.00, -0.00, -1.00, 231.5, 366.7)">g</text><text xml:space="preserve" font-family="GillSans-SemiBold,Gill Sans" font-weight="bold" font-size="46.0" fill="#FEFFFF" transform="matrix(1.00, 0.00, -0.00, -1.00, 254.0, 366.7)">d</text><text xml:space="preserve" font-family="GillSans-SemiBold,Gill Sans" font-weight="bold" font-size="46.0" fill="#FEFFFF" transform="matrix(1.00, 0.00, -0.00, -1.00, 279.2, 366.7)">g</text><text xml:space="preserve" font-family="GillSans-SemiBold,Gill Sans" font-weight="bold" font-size="46.0" fill="#FEFFFF" transform="matrix(1.00, 0.00, -0.00, -1.00, 301.8, 366.7)">l</text><text xml:space="preserve" font-family="GillSans-SemiBold,Gill Sans" font-weight="bold" font-size="46.0" fill="#FEFFFF" transform="matrix(1.00, 0.00, -0.00, -1.00, 313.2, 366.7)">u</text><text xml:space="preserve" font-family="GillSans-SemiBold,Gill Sans" font-weight="bold" font-size="46.0" fill="#FEFFFF" transform="matrix(1.00, 0.00, -0.00, -1.00, 338.0, 366.7)">a</text><text xml:space="preserve" font-family="GillSans-SemiBold,Gill Sans" font-weight="bold" font-size="46.0" fill="#FEFFFF" transform="matrix(1.00, 0.00, -0.00, -1.00, 360.2, 366.7)">n</text><text xml:space="preserve" font-family="GillSans-SemiBold,Gill Sans" font-weight="bold" font-size="46.0" fill="#FEFFFF" transform="matrix(1.00, 0.00, -0.00, -1.00, 385.1, 366.7)">d</text><text xml:space="preserve" font-family="GillSans-SemiBold,Gill Sans" font-weight="bold" font-size="46.0" fill="#FEFFFF" transform="matrix(1.00, 0.00, -0.00, -1.00, 410.3, 366.7)">a</text><text xml:space="preserve" font-family="GillSans-SemiBold,Gill Sans" font-weight="bold" font-size="46.0" fill="#FEFFFF" transform="matrix(1.00, 0.00, -0.00, -1.00, 432.5, 366.7)">.</text><text xml:space="preserve" font-family="GillSans-SemiBold,Gill Sans" font-weight="bold" font-size="46.0" fill="#FEFFFF" transform="matrix(1.00, 0.00, -0.00, -1.00, 443.9, 366.7)">o</text><text xml:space="preserve" font-family="GillSans-SemiBold,Gill Sans" font-weight="bold" font-size="46.0" fill="#FEFFFF" transform="matrix(1.00, 0.00, -0.00, -1.00, 470.2, 366.7)">r</text><text xml:space="preserve" font-family="GillSans-SemiBold,Gill Sans" font-weight="bold" font-size="46.0" fill="#FEFFFF" transform="matrix(1.00, 0.00, -0.00, -1.00, 489.5, 366.7)">g</text><text xml:space="preserve" font-family="GillSans-SemiBold,Gill Sans" font-weight="bold" font-size="46.0" fill="#FEFFFF" transform="matrix(1.00, 0.00, -0.00, -1.00, 512.0, 366.7)"> </text><text xml:space="preserve" font-family="GillSans-SemiBold,Gill Sans" font-weight="bold" font-size="46.0" fill="#FEFFFF" transform="matrix(1.00, 0.00, -0.00, -1.00, 117.8, 311.7)">w</text><text xml:space="preserve" font-family="GillSans-SemiBold,Gill Sans" font-weight="bold" font-size="46.0" fill="#FEFFFF" transform="matrix(1.00, 0.00, -0.00, -1.00, 152.5, 311.7)">w</text><text xml:space="preserve" font-family="GillSans-SemiBold,Gill Sans" font-weight="bold" font-size="46.0" fill="#FEFFFF" transform="matrix(1.00, 0.00, -0.00, -1.00, 187.3, 311.7)">w</text><text xml:space="preserve" font-family="GillSans-SemiBold,Gill Sans" font-weight="bold" font-size="46.0" fill="#FEFFFF" transform="matrix(1.00, 0.00, -0.00, -1.00, 220.1, 311.7)">.</text><text xml:space="preserve" font-family="GillSans-SemiBold,Gill Sans" font-weight="bold" font-size="46.0" fill="#FEFFFF" transform="matrix(1.00, 0.00, -0.00, -1.00, 231.5, 311.7)">a</text><text xml:space="preserve" font-family="GillSans-SemiBold,Gill Sans" font-weight="bold" font-size="46.0" fill="#FEFFFF" transform="matrix(1.00, 0.00, -0.00, -1.00, 253.7, 311.7)">n</text><text xml:space="preserve" font-family="GillSans-SemiBold,Gill Sans" font-weight="bold" font-size="46.0" fill="#FEFFFF" transform="matrix(1.00, 0.00, -0.00, -1.00, 278.6, 311.7)">g</text><text xml:space="preserve" font-family="GillSans-SemiBold,Gill Sans" font-weight="bold" font-size="46.0" fill="#FEFFFF" transform="matrix(1.00, 0.00, -0.00, -1.00, 301.1, 311.7)">o</text><text xml:space="preserve" font-family="GillSans-SemiBold,Gill Sans" font-weight="bold" font-size="46.0" fill="#FEFFFF" transform="matrix(1.00, 0.00, -0.00, -1.00, 327.5, 311.7)">p</text><text xml:space="preserve" font-family="GillSans-SemiBold,Gill Sans" font-weight="bold" font-size="46.0" fill="#FEFFFF" transform="matrix(1.00, 0.00, -0.00, -1.00, 352.7, 311.7)">r</text><text xml:space="preserve" font-family="GillSans-SemiBold,Gill Sans" font-weight="bold" font-size="46.0" fill="#FEFFFF" transform="matrix(1.00, 0.00, -0.00, -1.00, 371.0, 311.7)">e</text><text xml:space="preserve" font-family="GillSans-SemiBold,Gill Sans" font-weight="bold" font-size="46.0" fill="#FEFFFF" transform="matrix(1.00, 0.00, -0.00, -1.00, 394.7, 311.7)">n</text><text xml:space="preserve" font-family="GillSans-SemiBold,Gill Sans" font-weight="bold" font-size="46.0" fill="#FEFFFF" transform="matrix(1.00, 0.00, -0.00, -1.00, 419.6, 311.7)">e</text><text xml:space="preserve" font-family="GillSans-SemiBold,Gill Sans" font-weight="bold" font-size="46.0" fill="#FEFFFF" transform="matrix(1.00, 0.00, -0.00, -1.00, 443.4, 311.7)">u</text><text xml:space="preserve" font-family="GillSans-SemiBold,Gill Sans" font-weight="bold" font-size="46.0" fill="#FEFFFF" transform="matrix(1.00, 0.00, -0.00, -1.00, 468.2, 311.7)">r</text><text xml:space="preserve" font-family="GillSans-SemiBold,Gill Sans" font-weight="bold" font-size="46.0" fill="#FEFFFF" transform="matrix(1.00, 0.00, -0.00, -1.00, 484.2, 311.7)">.</text><text xml:space="preserve" font-family="GillSans-SemiBold,Gill Sans" font-weight="bold" font-size="46.0" fill="#FEFFFF" transform="matrix(1.00, 0.00, -0.00, -1.00, 495.5, 311.7)">o</text><text xml:space="preserve" font-family="GillSans-SemiBold,Gill Sans" font-weight="bold" font-size="46.0" fill="#FEFFFF" transform="matrix(1.00, 0.00, -0.00, -1.00, 521.9, 311.7)">r</text><text xml:space="preserve" font-family="GillSans-SemiBold,Gill Sans" font-weight="bold" font-size="46.0" fill="#FEFFFF" transform="matrix(1.00, 0.00, -0.00, -1.00, 541.1, 311.7)">g</text><text xml:space="preserve" font-family="GillSans-SemiBold,Gill Sans" font-weight="bold" font-size="46.0" fill="#FEFFFF" transform="matrix(1.00, 0.00, -0.00, -1.00, 563.7, 311.7)"> </text><text xml:space="preserve" font-family="GillSans-SemiBold,Gill Sans" font-weight="bold" font-size="46.0" fill="#FEFFFF" transform="matrix(1.00, 0.00, -0.00, -1.00, 117.8, 256.7)">w</text><text xml:space="preserve" font-family="GillSans-SemiBold,Gill Sans" font-weight="bold" font-size="46.0" fill="#FEFFFF" transform="matrix(1.00, 0.00, -0.00, -1.00, 152.5, 256.7)">w</text><text xml:space="preserve" font-family="GillSans-SemiBold,Gill Sans" font-weight="bold" font-size="46.0" fill="#FEFFFF" transform="matrix(1.00, 0.00, -0.00, -1.00, 187.3, 256.7)">w</text><text xml:space="preserve" font-family="GillSans-SemiBold,Gill Sans" font-weight="bold" font-size="46.0" fill="#FEFFFF" transform="matrix(1.00, 0.00, -0.00, -1.00, 220.1, 256.7)">.</text><text xml:space="preserve" font-family="GillSans-SemiBold,Gill Sans" font-weight="bold" font-size="46.0" fill="#FEFFFF" transform="matrix(1.00, 0.00, -0.00, -1.00, 231.5, 256.7)">i</text><text xml:space="preserve" font-family="GillSans-SemiBold,Gill Sans" font-weight="bold" font-size="46.0" fill="#FEFFFF" transform="matrix(1.00, 0.00, -0.00, -1.00, 242.9, 256.7)">t</text><text xml:space="preserve" font-family="GillSans-SemiBold,Gill Sans" font-weight="bold" font-size="46.0" fill="#FEFFFF" transform="matrix(1.00, 0.00, -0.00, -1.00, 259.9, 256.7)">e</text><text xml:space="preserve" font-family="GillSans-SemiBold,Gill Sans" font-weight="bold" font-size="46.0" fill="#FEFFFF" transform="matrix(1.00, 0.00, -0.00, -1.00, 283.6, 256.7)">v</text><text xml:space="preserve" font-family="GillSans-SemiBold,Gill Sans" font-weight="bold" font-size="46.0" fill="#FEFFFF" transform="matrix(1.00, 0.00, -0.00, -1.00, 305.5, 256.7)">e</text><text xml:space="preserve" font-family="GillSans-SemiBold,Gill Sans" font-weight="bold" font-size="46.0" fill="#FEFFFF" transform="matrix(1.00, 0.00, -0.00, -1.00, 329.3, 256.7)">n</text><text xml:space="preserve" font-family="GillSans-SemiBold,Gill Sans" font-weight="bold" font-size="46.0" fill="#FEFFFF" transform="matrix(1.00, 0.00, -0.00, -1.00, 354.2, 256.7)">t</text><text xml:space="preserve" font-family="GillSans-SemiBold,Gill Sans" font-weight="bold" font-size="46.0" fill="#FEFFFF" transform="matrix(1.00, 0.00, -0.00, -1.00, 371.2, 256.7)">.</text><text xml:space="preserve" font-family="GillSans-SemiBold,Gill Sans" font-weight="bold" font-size="46.0" fill="#FEFFFF" transform="matrix(1.00, 0.00, -0.00, -1.00, 382.5, 256.7)">u</text><text xml:space="preserve" font-family="GillSans-SemiBold,Gill Sans" font-weight="bold" font-size="46.0" fill="#FEFFFF" transform="matrix(1.00, 0.00, -0.00, -1.00, 407.3, 256.7)">s</text></g></g></g></svg>