<?xml version="1.0" encoding="UTF-8" standalone="no"?><svg xmlns="http://www.w3.org/2000/svg" xmlns:xlink="http://www.w3.org/1999/xlink" clip-rule="evenodd" stroke-miterlimit="10" viewBox="0 0 1920 1080"><desc>SVG generated by Keynote</desc><defs></defs><g transform="matrix(1.00, 0.00, -0.00, -1.00, 0.0, 1080.0)"><g><clipPath id="clip0x6080014a0420"><path d="M 0.0 1080.0 L 1920.0 1080.0 L 1920.0 0.0 L 0.0 0.0 Z M 0.0 1080.0 "></path></clipPath><g clip-path="url(#clip0x6080014a0420)"><image xlink:href="../../670AF0A5-B06C-45B2-A649-BC83FE98871A/assets/400D38DE9BD779267D8D9BA1A44336F3.jpeg" width="3840.00" height="2160.00" transform="matrix(1.75, 0.00, -0.00, -1.75, -2406.0, 2433.0)"></image></g></g><image xlink:href="E0C09455510571E1772209E10B939F38.png" width="640.00" height="360.00" transform="matrix(3.00, 0.00, -0.00, -3.00, 1.2, 1072.3)"></image><path d="M 26.0 1052.0 L 212.0 1052.0 L 212.0 966.0 L 26.0 966.0 Z M 25.8 1051.5 " fill="#AA1802"></path><g><clipPath id="clip0x6080014a05a0"><path d="M 14.9 963.6 L 223.3 963.6 L 223.3 1053.4 L 14.9 1053.4 Z M 14.9 963.6 "></path></clipPath><g clip-path="url(#clip0x6080014a05a0)"><text xml:space="preserve" font-family="GillSans-SemiBold,Gill Sans" font-weight="bold" font-size="50.0" fill="#FEFFFF" transform="matrix(1.00, 0.00, -0.00, -1.00, 65.8, 991.0)">v</text><text xml:space="preserve" font-family="GillSans-SemiBold,Gill Sans" font-weight="bold" font-size="50.0" fill="#FEFFFF" transform="matrix(1.00, 0.00, -0.00, -1.00, 89.7, 991.0)">i</text><text xml:space="preserve" font-family="GillSans-SemiBold,Gill Sans" font-weight="bold" font-size="50.0" fill="#FEFFFF" transform="matrix(1.00, 0.00, -0.00, -1.00, 102.1, 991.0)">d</text><text xml:space="preserve" font-family="GillSans-SemiBold,Gill Sans" font-weight="bold" font-size="50.0" fill="#FEFFFF" transform="matrix(1.00, 0.00, -0.00, -1.00, 129.5, 991.0)">e</text><text xml:space="preserve" font-family="GillSans-SemiBold,Gill Sans" font-weight="bold" font-size="50.0" fill="#FEFFFF" transform="matrix(1.00, 0.00, -0.00, -1.00, 155.3, 991.0)">o</text></g></g></g></svg>